<svg width="19" height="19" viewBox="0 0 19 19" fill="none" xmlns="http://www.w3.org/2000/svg">
<path d="M11.2705 19H15.8939C16.771 19 17.5061 18.6807 18.0752 18.0657C18.6442 17.4759 19 16.6895 19 15.8047V6.19528C19 5.31054 18.6442 4.52411 18.0752 3.93428C17.5061 3.34446 16.7474 3 15.8939 3H11.2705V5.01563H15.8939C16.5578 5.01563 17.0555 5.53153 17.0555 6.19528V15.8047C17.0555 16.4685 16.5578 17.0087 15.8939 17.0087H11.2705V19ZM2 9.09644V12.9303C2 13.3731 2.35583 13.7411 2.78221 13.7411H7.09765V16.7642C7.09765 17.0347 7.216 17.2557 7.45347 17.3784C7.54831 17.4028 7.66667 17.4028 7.71446 17.4028C7.88062 17.4028 8.02249 17.3532 8.14161 17.2305L13.7134 11.455C13.9266 11.234 13.9031 10.7912 13.7134 10.5458L8.14161 4.79464C7.95193 4.59803 7.71446 4.57365 7.45423 4.64679C7.21676 4.76948 7.09841 4.96608 7.09841 5.23662V8.28405H2.78297C2.35583 8.28405 2.00076 8.65289 2.00076 9.09486L2 9.09644Z" fill="#4A4543"/>
</svg>
