<svg width="21" height="21" viewBox="0 0 21 21" fill="none" xmlns="http://www.w3.org/2000/svg">
<g clip-path="url(#clip0_106_2867)">
<path d="M13.7812 1.3125C12.859 1.31226 11.9494 1.52808 11.1256 1.94264C10.3017 2.35721 9.58641 2.959 9.037 3.69979C8.4876 4.44058 8.11936 5.29977 7.9618 6.2085C7.80424 7.11723 7.86174 8.05024 8.12969 8.93274L1.3125 15.75V19.6875H5.25L12.0672 12.8702C12.8796 13.1169 13.7356 13.1855 14.5769 13.0714C15.4182 12.9573 16.225 12.6632 16.9424 12.209C17.6597 11.7549 18.2707 11.1514 18.7338 10.4398C19.1968 9.72813 19.5009 8.92502 19.6255 8.08519C19.75 7.24537 19.692 6.38856 19.4555 5.57316C19.2189 4.75777 18.8094 4.00296 18.2547 3.36017C17.7 2.71739 17.0133 2.20174 16.2413 1.84837C15.4694 1.49501 14.6303 1.31223 13.7812 1.3125ZM13.7812 11.8125C13.3294 11.8122 12.88 11.7454 12.4476 11.6142L11.695 11.3859L11.1391 11.9419L9.05146 14.0296L8.14675 13.125L7.21875 14.053L8.12352 14.9577L7.08278 15.9985L6.178 15.0938L5.25 16.0218L6.15477 16.9265L4.70636 18.375H2.625V16.2936L9.05776 9.86088L9.61373 9.30477L9.38582 8.55225C9.10532 7.62758 9.12355 6.63801 9.4379 5.7243C9.75225 4.81059 10.3467 4.01927 11.1367 3.4629C11.9268 2.90653 12.8721 2.61345 13.8383 2.62535C14.8045 2.63725 15.7424 2.95351 16.5185 3.52917C17.2945 4.10482 17.8694 4.91054 18.1611 5.83171C18.4529 6.75289 18.4467 7.74261 18.1435 8.66009C17.8404 9.57757 17.2556 10.3761 16.4724 10.942C15.6892 11.508 14.7475 11.8126 13.7812 11.8125Z" fill="black"/>
<path d="M14.4375 7.875C15.1624 7.875 15.75 7.28737 15.75 6.5625C15.75 5.83763 15.1624 5.25 14.4375 5.25C13.7126 5.25 13.125 5.83763 13.125 6.5625C13.125 7.28737 13.7126 7.875 14.4375 7.875Z" fill="black"/>
</g>
<defs>
<clipPath id="clip0_106_2867">
<rect width="21" height="21" fill="white"/>
</clipPath>
</defs>
</svg>
