<svg width="88" height="91" viewBox="0 0 88 91" fill="none" xmlns="http://www.w3.org/2000/svg">
<g filter="url(#filter0_d_106_1833)">
<ellipse cx="43" cy="39.4545" rx="40" ry="39.4545" fill="#84A6D3"/>
<g clip-path="url(#clip0_106_1833)">
<path d="M39.3479 63.9842C39.3479 66.0012 40.9829 67.6364 43 67.6364L44.2174 63.9842L43 60.332C40.9829 60.332 39.3479 61.9672 39.3479 63.9842Z" fill="white"/>
<path d="M43 60.332V67.6364C45.0171 67.6364 46.6521 66.0012 46.6521 63.9842C46.6521 61.9672 45.0171 60.332 43 60.332Z" fill="white"/>
<path d="M40.5194 42.3886L39.3479 43.4728V55.4625H43L45.4348 47.7721L43 40.0817C41.6019 41.3864 40.5456 42.3643 40.5194 42.3886Z" fill="white"/>
<path d="M26.8087 27.8277H34.1131C34.1131 22.9275 38.0998 18.9407 43 18.9407L45.4348 15.2886L43 11.6364C34.0722 11.6364 26.8087 18.8998 26.8087 27.8277Z" fill="white"/>
<path d="M43 11.6364V18.9407C47.9002 18.9407 51.8869 22.9275 51.8869 27.8277C51.8869 30.2014 50.9625 32.4332 49.284 34.1117C47.9677 35.4279 45.0985 38.1233 43 40.0817V55.4625H46.6521V46.6623C48.6679 44.7884 52.723 41.0024 54.4489 39.2767C57.5072 36.2185 59.1913 32.1525 59.1913 27.8277C59.1913 18.8998 51.928 11.6364 43 11.6364Z" fill="white"/>
</g>
</g>
<defs>
<filter id="filter0_d_106_1833" x="0" y="0" width="88" height="90.9091" filterUnits="userSpaceOnUse" color-interpolation-filters="sRGB">
<feFlood flood-opacity="0" result="BackgroundImageFix"/>
<feColorMatrix in="SourceAlpha" type="matrix" values="0 0 0 0 0 0 0 0 0 0 0 0 0 0 0 0 0 0 127 0" result="hardAlpha"/>
<feOffset dx="1" dy="8"/>
<feGaussianBlur stdDeviation="2"/>
<feComposite in2="hardAlpha" operator="out"/>
<feColorMatrix type="matrix" values="0 0 0 0 0 0 0 0 0 0 0 0 0 0 0 0 0 0 0.25 0"/>
<feBlend mode="normal" in2="BackgroundImageFix" result="effect1_dropShadow_106_1833"/>
<feBlend mode="normal" in="SourceGraphic" in2="effect1_dropShadow_106_1833" result="shape"/>
</filter>
<clipPath id="clip0_106_1833">
<rect width="56" height="56" fill="white" transform="translate(15 11.6364)"/>
</clipPath>
</defs>
</svg>
