<svg width="370" height="370" viewBox="0 0 370 370" fill="none" xmlns="http://www.w3.org/2000/svg">
<path d="M290.265 198.646L236.445 178.296C235.561 177.961 234.751 177.456 234.062 176.808C233.374 176.161 232.819 175.384 232.431 174.522C232.043 173.661 231.828 172.731 231.799 171.786C231.771 170.841 231.928 169.9 232.264 169.016L260.428 94.5276C261.104 92.7418 262.461 91.2973 264.201 90.5119C265.941 89.7265 267.922 89.6643 269.708 90.3392L303.844 103.245L319.961 140.467L299.545 194.487C298.863 196.267 297.504 197.705 295.765 198.484C294.025 199.264 292.047 199.322 290.265 198.646Z" fill="#F5F5F5"/>
<path d="M303.844 103.245L295.911 124.209C295.6 125.032 295.453 125.907 295.48 126.787C295.507 127.666 295.707 128.531 296.068 129.333C296.43 130.135 296.946 130.858 297.587 131.461C298.228 132.063 298.981 132.533 299.804 132.845L319.961 140.467L303.844 103.245Z" fill="#EBEBEB"/>
<path d="M295.489 126.155C295.489 126.155 293.306 131.143 298.449 135.035C298.644 135.18 298.846 135.314 299.056 135.435C301.513 136.915 317.675 146.535 317.823 146.143L319.954 140.504L299.796 132.882C299.796 132.882 294.838 130.773 295.489 126.155Z" fill="#E0E0E0"/>
<path d="M291.723 121.649C291.619 121.922 285.966 120.028 279.091 117.431C272.216 114.833 266.726 112.502 266.829 112.251C266.933 111.999 272.586 113.871 279.461 116.469C286.336 119.066 291.826 121.36 291.723 121.649Z" fill="#E0E0E0"/>
<path d="M303.319 139.586C303.215 139.853 293.965 136.626 282.65 132.327C271.336 128.027 262.241 124.357 262.345 124.083C262.448 123.809 271.698 127.043 283.02 131.35C294.342 135.657 303.4 139.312 303.319 139.586Z" fill="#E0E0E0"/>
<path d="M303.267 150.879C303.163 151.145 293.084 147.586 280.749 142.916C268.413 138.247 258.497 134.251 258.6 133.984C258.704 133.718 268.783 137.277 281.119 141.947C293.454 146.616 303.4 150.605 303.267 150.879Z" fill="#E0E0E0"/>
<path d="M299.737 160.217C299.633 160.484 289.555 156.924 277.219 152.255C264.883 147.586 254.967 143.56 255.071 143.323C255.174 143.086 265.253 146.616 277.589 151.278C289.925 155.94 299.841 159.944 299.737 160.217Z" fill="#E0E0E0"/>
<path d="M296.207 169.556C296.104 169.823 286.017 166.263 273.689 161.594C261.361 156.924 251.437 152.928 251.533 152.662C251.63 152.396 261.716 155.955 274.059 160.617C286.402 165.279 296.303 169.282 296.207 169.556Z" fill="#E0E0E0"/>
<path d="M292.67 178.895C292.574 179.161 282.488 175.595 270.159 170.933C257.831 166.271 247.9 162.267 248.004 162.001C248.107 161.734 258.186 165.294 270.522 169.956C282.858 174.618 292.774 178.621 292.67 178.895Z" fill="#E0E0E0"/>
<path d="M110.827 121.313L39.8754 146.16C37.4222 147.02 36.1299 149.705 36.989 152.158L72.5877 253.812C73.4468 256.265 76.132 257.557 78.5852 256.698L149.537 231.851C151.99 230.992 153.282 228.307 152.423 225.854L116.825 124.2C115.965 121.747 113.28 120.454 110.827 121.313Z" fill="#EBEBEB"/>
<path d="M111.737 127.632L43.1038 151.667L78.387 252.42L147.02 228.385L111.737 127.632Z" fill="#E0E0E0"/>
<path d="M110.509 127.158L41.8756 151.193L76.4862 250.025L145.119 225.99L110.509 127.158Z" fill="#FAFAFA"/>
<path d="M145.107 225.989L110.408 127.191L110.534 127.25L41.9136 151.293L41.9802 151.16C54.9154 188.278 66.9552 222.562 76.5678 249.994L76.4568 249.942L145.114 225.989L76.5086 250.12H76.4272V250.039C66.8072 222.607 54.8044 188.323 41.7952 151.212V151.108H41.8914L110.519 127.088H110.615V127.176L145.107 225.989Z" fill="#E0E0E0"/>
<path d="M120.768 234.513C120.768 234.513 136.049 221.623 138.698 208.199C137.165 210.327 135.216 212.122 132.97 213.477C130.724 214.831 128.227 215.717 125.63 216.08C125.63 216.08 125.326 230.14 120.768 234.513Z" fill="#E0E0E0"/>
<path d="M65.3304 173.215L61.7196 174.48C60.4005 174.942 59.7056 176.385 60.1675 177.705L61.432 181.315C61.894 182.635 63.3379 183.329 64.657 182.868L68.2678 181.603C69.587 181.141 70.2819 179.697 69.8199 178.378L68.5555 174.767C68.0935 173.448 66.6496 172.753 65.3304 173.215Z" fill="#EBEBEB"/>
<path d="M64.8906 179.435C64.8655 179.448 64.8375 179.455 64.8092 179.455C64.7809 179.455 64.753 179.448 64.7278 179.435L63.0702 178.473C63.0301 178.443 63.0025 178.398 62.9927 178.349C62.9829 178.299 62.9915 178.248 63.017 178.204C63.0424 178.16 63.083 178.128 63.1309 178.112C63.1789 178.096 63.231 178.098 63.2774 178.118L64.7574 178.962L66.5038 175.262C66.5293 175.212 66.5723 175.174 66.6243 175.155C66.6764 175.136 66.7337 175.137 66.785 175.158C66.8101 175.17 66.8325 175.187 66.851 175.207C66.8694 175.228 66.8836 175.252 66.8926 175.278C66.9015 175.304 66.9051 175.332 66.9032 175.36C66.9012 175.387 66.8938 175.414 66.8812 175.439L65.0386 179.376C65.0196 179.396 64.9966 179.411 64.971 179.422C64.9455 179.432 64.9181 179.436 64.8906 179.435Z" fill="white"/>
<path d="M112.28 157.916C112.28 157.975 103.4 161.15 92.3816 165.005C81.363 168.861 72.4016 171.939 72.4016 171.887C72.4016 171.835 81.2816 168.653 92.3076 164.798C103.334 160.943 112.265 157.864 112.28 157.916Z" fill="#E0E0E0"/>
<path d="M91.353 172.139C91.353 172.139 91.1236 172.242 90.7092 172.405L88.9184 173.071C87.4384 173.619 85.3072 174.366 82.9984 175.18C80.6896 175.994 78.5584 176.719 77.0784 177.23L75.2654 177.829C75.046 177.91 74.8209 177.974 74.592 178.022C74.799 177.913 75.0143 177.822 75.2358 177.748L77.0266 177.089C78.5066 176.534 80.6378 175.787 82.9466 174.973C85.2554 174.159 87.3866 173.441 88.8666 172.923L90.6796 172.324C90.8984 172.243 91.1237 172.181 91.353 172.139Z" fill="#E0E0E0"/>
<path d="M113.22 160.639C113.22 160.691 104.34 163.866 93.314 167.721C82.288 171.576 73.334 174.662 73.334 174.603C73.334 174.544 82.214 171.377 93.2474 167.521C104.281 163.666 113.22 160.58 113.22 160.639Z" fill="#E0E0E0"/>
<path d="M70.485 187.94L66.8742 189.204C65.555 189.666 64.8601 191.11 65.3221 192.429L66.5865 196.04C67.0485 197.359 68.4924 198.054 69.8116 197.592L73.4224 196.328C74.7415 195.866 75.4364 194.422 74.9745 193.102L73.71 189.492C73.248 188.173 71.8041 187.478 70.485 187.94Z" fill="#EBEBEB"/>
<path d="M70.0484 194.161C70.022 194.174 69.9929 194.181 69.9633 194.181C69.9338 194.181 69.9047 194.174 69.8782 194.161L68.228 193.199C68.2041 193.186 68.1831 193.168 68.1663 193.147C68.1495 193.126 68.1373 193.101 68.1304 193.075C68.1234 193.048 68.122 193.021 68.126 192.994C68.1301 192.967 68.1396 192.941 68.154 192.918C68.1671 192.894 68.1848 192.873 68.2063 192.856C68.2277 192.839 68.2523 192.827 68.2787 192.82C68.305 192.813 68.3325 192.812 68.3594 192.816C68.3863 192.82 68.4121 192.83 68.4352 192.844L69.9152 193.688L71.6616 189.951C71.6857 189.902 71.7273 189.864 71.7781 189.845C71.8289 189.826 71.8852 189.826 71.9354 189.847C71.9855 189.87 72.0245 189.911 72.0439 189.962C72.0633 190.014 72.0616 190.071 72.039 190.121L70.1964 194.065C70.18 194.091 70.1583 194.112 70.1328 194.129C70.1073 194.146 70.0785 194.157 70.0484 194.161Z" fill="white"/>
<path d="M117.438 172.642C117.438 172.701 108.558 175.868 97.532 179.731C86.506 183.594 77.552 186.665 77.552 186.613C77.552 186.561 86.432 183.379 97.458 179.524C108.484 175.669 117.423 172.59 117.438 172.642Z" fill="#E0E0E0"/>
<path d="M96.5108 186.865C96.5108 186.865 96.2814 186.968 95.8596 187.131L94.0762 187.797C92.5962 188.345 90.465 189.092 88.1562 189.906C85.8474 190.72 83.7162 191.445 82.2362 191.956L80.4232 192.555C80.2037 192.636 79.9786 192.7 79.7498 192.748C79.9558 192.638 80.1713 192.546 80.3936 192.474L82.1844 191.815C83.6644 191.26 85.7956 190.513 88.1044 189.699C90.4132 188.885 92.5444 188.167 94.0244 187.649L95.8374 187.05C96.0561 186.969 96.2814 186.907 96.5108 186.865Z" fill="#E0E0E0"/>
<path d="M118.4 175.38C118.4 175.432 109.52 178.606 98.494 182.462C87.468 186.317 78.514 189.403 78.514 189.344C78.514 189.285 87.394 186.117 98.42 182.262C109.446 178.407 118.4 175.306 118.4 175.38Z" fill="#E0E0E0"/>
<path d="M75.6468 202.664L72.036 203.928C70.7169 204.39 70.022 205.834 70.4839 207.153L71.7484 210.764C72.2104 212.083 73.6543 212.778 74.9734 212.316L78.5842 211.052C79.9034 210.59 80.5983 209.146 80.1363 207.827L78.8719 204.216C78.4099 202.897 76.966 202.202 75.6468 202.664Z" fill="#EBEBEB"/>
<path d="M75.2062 208.887C75.1798 208.9 75.1506 208.907 75.1211 208.907C75.0916 208.907 75.0625 208.9 75.036 208.887L73.3784 207.94C73.3514 207.928 73.3272 207.911 73.3073 207.89C73.2874 207.868 73.2724 207.842 73.2632 207.815C73.2539 207.787 73.2508 207.757 73.2538 207.728C73.2569 207.699 73.2661 207.67 73.2809 207.645C73.2957 207.62 73.3157 207.598 73.3397 207.581C73.3636 207.564 73.3909 207.552 73.4197 207.546C73.4485 207.541 73.4782 207.541 73.5068 207.548C73.5354 207.554 73.5623 207.567 73.5856 207.585L75.0656 208.428L76.812 204.691C76.8224 204.665 76.8379 204.642 76.8577 204.622C76.8774 204.602 76.901 204.587 76.9269 204.576C76.9528 204.566 76.9806 204.561 77.0086 204.561C77.0366 204.562 77.0641 204.568 77.0896 204.579C77.1151 204.591 77.138 204.607 77.157 204.628C77.1759 204.649 77.1905 204.673 77.1998 204.699C77.2091 204.726 77.213 204.754 77.2112 204.781C77.2094 204.809 77.202 204.837 77.1894 204.862L75.3468 208.806C75.3106 208.848 75.261 208.877 75.2062 208.887Z" fill="white"/>
<path d="M122.596 187.368C122.596 187.427 113.716 190.594 102.69 194.457C91.6638 198.32 82.7098 201.391 82.7098 201.332C82.7098 201.273 91.5898 198.105 102.623 194.25C113.657 190.395 122.574 187.316 122.596 187.368Z" fill="#E0E0E0"/>
<path d="M101.669 201.583C101.459 201.69 101.241 201.782 101.017 201.857L99.2265 202.523C97.7465 203.071 95.6227 203.818 93.3065 204.632C90.9903 205.446 88.8665 206.164 87.3865 206.682L85.5735 207.281C85.3537 207.361 85.1287 207.425 84.9001 207.474C85.1062 207.363 85.3216 207.272 85.5439 207.2L87.3347 206.534C88.8147 205.986 90.9459 205.239 93.2547 204.425C95.5635 203.611 97.6947 202.893 99.1747 202.375L100.98 201.776C101.206 201.699 101.436 201.634 101.669 201.583Z" fill="#E0E0E0"/>
<path d="M123.58 190.091C123.58 190.143 114.7 193.318 103.674 197.173C92.648 201.028 83.694 204.114 83.694 204.055C83.694 203.996 92.574 200.829 103.6 196.966C114.626 193.103 123.528 190.032 123.58 190.091Z" fill="#E0E0E0"/>
<path d="M80.8014 217.389L77.1906 218.653C75.8714 219.115 75.1765 220.559 75.6385 221.878L76.9029 225.489C77.3649 226.808 78.8088 227.503 80.128 227.041L83.7388 225.776C85.0579 225.315 85.7528 223.871 85.2909 222.551L84.0264 218.941C83.5644 217.621 82.1205 216.927 80.8014 217.389Z" fill="#EBEBEB"/>
<path d="M80.3566 223.613C80.3309 223.624 80.3032 223.63 80.2752 223.63C80.2473 223.63 80.2196 223.624 80.1938 223.613L78.5362 222.651C78.4891 222.623 78.4553 222.577 78.4421 222.523C78.4289 222.47 78.4375 222.413 78.4659 222.366C78.4944 222.319 78.5404 222.285 78.5938 222.272C78.6473 222.259 78.7037 222.267 78.7508 222.296L80.2308 223.139L81.9772 219.439C81.9998 219.389 82.0414 219.35 82.0927 219.331C82.144 219.312 82.201 219.313 82.251 219.336C82.2998 219.36 82.3375 219.402 82.3568 219.452C82.376 219.503 82.3752 219.559 82.3546 219.61L80.5046 223.554C80.4647 223.592 80.4117 223.613 80.3566 223.613Z" fill="white"/>
<path d="M127.754 202.094C127.754 202.153 118.874 205.32 107.848 209.176C96.8216 213.031 87.8676 216.117 87.8676 216.058C87.8676 215.999 96.7476 212.831 107.774 208.976C118.8 205.121 127.731 202.02 127.754 202.094Z" fill="#E0E0E0"/>
<path d="M106.819 216.309C106.613 216.42 106.397 216.511 106.175 216.583L104.384 217.249C102.904 217.797 100.773 218.544 98.4644 219.358C96.1556 220.172 94.0244 220.89 92.5444 221.408L90.7314 222.007C90.3022 222.141 90.058 222.207 90.058 222.2C90.264 222.09 90.4795 221.998 90.7018 221.926L92.4926 221.26C93.9726 220.712 96.1038 219.965 98.4126 219.151C100.721 218.337 102.853 217.619 104.333 217.101L106.146 216.502C106.365 216.422 106.59 216.358 106.819 216.309Z" fill="#E0E0E0"/>
<path d="M128.708 204.817C128.708 204.869 119.828 208.044 108.802 211.899C97.7763 215.754 88.8223 218.833 88.8223 218.781C88.8223 218.729 97.7023 215.555 108.728 211.692C119.754 207.829 128.686 204.758 128.708 204.817Z" fill="#E0E0E0"/>
<path d="M49.6466 141.562L51.4522 146.742C51.9572 148.184 53.014 149.367 54.3905 150.03C55.767 150.693 57.3505 150.783 58.793 150.279L96.755 136.959C97.4687 136.71 98.1262 136.323 98.69 135.819C99.2538 135.315 99.7128 134.706 100.041 134.024C100.368 133.343 100.559 132.604 100.601 131.849C100.643 131.095 100.535 130.339 100.285 129.626L98.4792 124.446L49.6466 141.562Z" fill="#E0E0E0"/>
<path d="M74.5698 134.547C73.5614 134.902 72.4703 134.949 71.4348 134.684C70.3992 134.418 69.4658 133.851 68.7526 133.055C68.0394 132.258 67.5786 131.268 67.4284 130.21C67.2783 129.151 67.4455 128.072 67.9091 127.109C68.3726 126.145 69.1115 125.341 70.0323 124.798C70.9531 124.255 72.0144 123.997 73.0817 124.058C74.149 124.118 75.1745 124.494 76.0282 125.137C76.882 125.78 77.5256 126.663 77.8776 127.672C78.3485 129.022 78.2648 130.504 77.6447 131.793C77.0246 133.082 75.9188 134.072 74.5698 134.547ZM71.6838 126.311C71.0618 126.528 70.5183 126.924 70.1218 127.451C69.7254 127.977 69.494 128.609 69.4568 129.266C69.4196 129.924 69.5783 130.578 69.9129 131.146C70.2475 131.713 70.7429 132.169 71.3364 132.455C71.9299 132.74 72.5949 132.844 73.2472 132.752C73.8995 132.66 74.5098 132.376 75.001 131.937C75.4921 131.498 75.8419 130.923 76.0062 130.285C76.1705 129.647 76.1419 128.975 75.924 128.353C75.6321 127.52 75.0216 126.837 74.2265 126.454C73.4315 126.071 72.517 126.02 71.6838 126.311Z" fill="#E0E0E0"/>
<path d="M104.91 148C104.91 148.096 94.9346 151.7 82.5544 156.029C70.1742 160.358 60.1102 163.799 60.0732 163.703C60.0362 163.606 70.0484 160.003 82.4286 155.674C94.8088 151.345 104.873 147.874 104.91 148Z" fill="#E0E0E0"/>
<path d="M92.0856 149.813C92.0856 149.909 87.7196 151.545 82.251 153.461C76.7824 155.378 72.3202 156.88 72.2832 156.747C72.2462 156.614 76.6566 155.015 82.1252 153.099C87.5938 151.182 92.056 149.717 92.0856 149.813Z" fill="#E0E0E0"/>
<path d="M289.34 299.759C292.065 298.48 295.128 298.109 298.079 298.701C299.663 298.96 301.321 299.441 302.394 300.625C303.467 301.809 303.681 303.911 302.438 304.932C301.635 305.478 300.665 305.721 299.7 305.62C297.384 305.62 294.823 305.183 292.981 306.575C291.923 307.366 291.227 308.684 289.969 309.076C289.336 309.223 288.672 309.158 288.079 308.891C287.487 308.623 286.999 308.168 286.691 307.596C286.093 306.438 285.96 305.096 286.321 303.844C286.476 302.977 286.829 302.157 287.353 301.449C287.876 300.74 288.557 300.162 289.34 299.759Z" fill="#41B6FF"/>
<path d="M283.213 288.008C284.841 290.324 288.001 289.562 289.466 288.141C290.931 286.721 291.545 284.671 292.108 282.717C293.395 278.24 294.698 273.549 293.743 268.99C293.505 267.62 292.899 266.341 291.989 265.29C291.525 264.769 290.933 264.378 290.27 264.157C289.608 263.936 288.899 263.893 288.215 264.032C286.617 264.454 285.633 266.015 284.915 267.495C282.805 271.883 281.7 276.687 281.681 281.555C281.681 283.82 281.94 286.188 283.213 288.06" fill="#41B6FF"/>
<path d="M278.751 291.338C279.587 290.247 280.144 288.968 280.373 287.613C280.603 286.257 280.498 284.866 280.068 283.561C279.173 280.961 277.581 278.657 275.465 276.901C273.059 274.76 270.259 273.109 267.221 272.039C266.048 271.565 264.786 271.35 263.521 271.41C262.889 271.446 262.275 271.636 261.734 271.963C261.192 272.291 260.739 272.746 260.413 273.29C259.54 274.947 260.413 276.953 261.272 278.588C262.856 281.475 264.667 284.232 266.689 286.832C268.309 288.926 270.167 290.99 272.646 291.938C275.125 292.885 277.685 292.766 278.995 291.057" fill="#41B6FF"/>
<path d="M283.109 323.018C283.19 322.673 283.238 322.321 283.25 321.967C283.331 321.227 283.42 320.235 283.531 319.088C283.673 317.669 283.89 316.259 284.182 314.863C284.558 313.164 285.07 311.499 285.714 309.883C286.346 308.268 287.203 306.751 288.26 305.376C289.12 304.255 290.22 303.34 291.479 302.697C292.331 302.274 293.245 301.989 294.187 301.854C294.541 301.841 294.894 301.791 295.238 301.706C294.881 301.667 294.521 301.667 294.165 301.706C293.189 301.784 292.234 302.035 291.345 302.446C290.02 303.069 288.857 303.991 287.949 305.139C286.849 306.536 285.962 308.087 285.314 309.742C284.658 311.381 284.148 313.075 283.79 314.804C283.518 316.217 283.33 317.645 283.228 319.081C283.131 320.302 283.102 321.301 283.087 321.974C283.053 322.322 283.061 322.672 283.109 323.018Z" fill="#263238"/>
<path d="M283.302 320.805C283.324 320.643 283.324 320.478 283.302 320.316V318.94C283.302 317.726 283.302 315.98 283.361 313.76C283.472 309.416 283.842 304.747 284.567 298.161C285.248 291.967 286.165 284.759 287.135 280.075C287.342 279.01 287.549 278.048 287.749 277.211C287.949 276.375 288.097 275.643 288.252 275.058C288.408 274.473 288.489 274.052 288.578 273.696C288.618 273.536 288.648 273.373 288.667 273.208C288.592 273.354 288.535 273.508 288.496 273.667C288.385 274.022 288.252 274.466 288.089 275.014C287.927 275.561 287.719 276.316 287.512 277.152C287.305 277.988 287.061 278.943 286.831 280.009C285.645 285.557 284.754 291.164 284.16 296.807C283.42 303.407 283.109 309.387 283.087 313.767C283.087 315.943 283.087 317.704 283.161 318.947C283.161 319.517 283.22 319.983 283.242 320.346C283.249 320.5 283.268 320.654 283.302 320.805Z" fill="#263238"/>
<path d="M283.331 309.216C283.372 308.724 283.372 308.229 283.331 307.736C283.247 306.41 283.097 305.089 282.88 303.777C282.563 301.83 282.133 299.903 281.592 298.005C280.966 295.67 280.159 293.386 279.18 291.175C277.505 287.1 275.106 283.361 272.098 280.142C271.574 279.592 271.015 279.075 270.426 278.595C270.174 278.373 269.945 278.159 269.686 277.988L269.042 277.544C268.654 277.247 268.24 276.984 267.806 276.76C269.227 277.87 270.574 279.071 271.839 280.356C274.756 283.598 277.094 287.318 278.751 291.353C279.71 293.551 280.521 295.81 281.178 298.116C281.735 299.995 282.192 301.902 282.547 303.829C282.85 305.479 283.028 306.789 283.131 307.751C283.162 308.244 283.229 308.734 283.331 309.216Z" fill="#263238"/>
<path d="M272.128 329.663L273.289 345.573H293.736L294.89 329.663H272.128Z" fill="#263238"/>
<path d="M297.339 323.387H270.159V329.663H297.339V323.387Z" fill="#263238"/>
<path d="M270.159 344.966V346.697H271.432H296.881V344.966H270.159Z" fill="#455A64"/>
<path d="M272.683 349.761L271.432 346.698H295.911L294.446 349.761H272.683Z" fill="#455A64"/>
<path d="M294.52 334.857C294.52 334.857 294.52 334.917 294.424 335.005L294.12 335.412L292.929 336.937L292.877 337.003L292.825 336.929L289.902 332.889H290.08L287.194 336.966L287.105 337.092L287.002 336.974L283.59 332.904H283.783L283.598 333.141L280.541 336.966L280.445 337.1L280.349 336.966C279.313 335.486 278.344 334.125 277.463 332.889H277.633L274.089 336.929L274.022 337.003L273.97 336.922C273.504 336.138 273.134 335.509 272.86 335.057L272.579 334.561C272.542 334.506 272.512 334.447 272.49 334.384C272.49 334.384 272.535 334.428 272.609 334.539L272.927 335.02L274.089 336.848H273.978L277.47 332.756L277.559 332.652L277.641 332.763L280.549 336.826H280.349L283.42 333L283.612 332.763L283.709 332.637L283.805 332.756L287.216 336.833H287.024L289.932 332.771L290.013 332.652L290.102 332.771C291.249 334.421 292.233 335.819 292.966 336.863H292.855L294.098 335.383L294.431 334.998L294.52 334.857Z" fill="#E0E0E0"/>
<path d="M295.179 329.552C295.179 329.626 290.058 329.685 283.738 329.685C277.419 329.685 272.298 329.626 272.298 329.552C272.298 329.478 277.419 329.426 283.738 329.426C290.058 329.426 295.179 329.485 295.179 329.552Z" fill="#455A64"/>
<path d="M296.215 346.875C296.215 346.942 290.642 347.001 283.783 347.001C276.923 347.001 271.351 346.942 271.351 346.875C271.351 346.809 276.915 346.742 283.783 346.742C290.65 346.742 296.215 346.801 296.215 346.875Z" fill="#263238"/>
<path d="M94.572 296.111C94.5128 296.178 94.0466 295.896 93.5286 295.482C93.0106 295.068 92.6332 294.675 92.6924 294.601C92.7516 294.527 93.2104 294.816 93.7284 295.23C94.2464 295.645 94.6238 296.037 94.572 296.111Z" fill="#263238"/>
<path d="M108.78 274.917C108.982 272.944 108.818 270.949 108.299 269.034C107.677 267.147 106.227 265.423 104.288 265.016C102.068 264.557 99.8038 265.956 98.5606 267.85C97.3174 269.745 96.8956 272.039 96.5256 274.266C94.0009 289.657 93.071 305.267 93.7506 320.849L102.808 322.122C106.752 305.864 108.04 291.649 108.78 274.917Z" fill="#455A64"/>
<path d="M102.993 264.92L102.949 265.068L102.801 265.475L102.194 267.044C102.068 267.384 101.898 267.784 101.765 268.176L101.328 269.545L100.818 271.121L100.351 272.92C99.591 275.89 99.0054 278.902 98.5975 281.94C98.1091 285.344 97.7909 289.118 97.5319 293.085C97.0731 301.025 96.9991 308.232 96.7919 313.442C96.6957 316.054 96.6069 318.163 96.5107 319.614C96.4589 320.354 96.4219 320.879 96.3923 321.293C96.3923 321.464 96.3923 321.612 96.3923 321.723C96.3923 321.834 96.3923 321.871 96.3923 321.871C96.3923 321.871 96.3923 321.826 96.3923 321.723C96.3923 321.619 96.3923 321.464 96.3923 321.286C96.3923 320.879 96.3923 320.317 96.4441 319.606C96.5033 318.126 96.5551 316.047 96.6217 313.435C96.7697 308.255 96.8067 301.017 97.2729 293.07C97.5245 289.096 97.8575 285.315 98.3607 281.896C98.7852 278.867 99.3956 275.866 100.189 272.912L100.677 271.114C100.869 270.561 101.047 270.036 101.21 269.538L101.683 268.169C101.824 267.754 102.002 267.384 102.135 267.044L102.801 265.505C102.87 265.342 102.929 265.209 102.978 265.105C102.973 265.043 102.978 264.981 102.993 264.92Z" fill="#263238"/>
<path d="M103.829 264.957C104.301 265.515 104.677 266.147 104.939 266.829C105.632 268.701 105.912 270.7 105.761 272.69C105.524 277.7 105.073 284.597 104.481 292.219C103.889 299.841 103.215 306.723 102.682 311.703C102.409 314.189 102.179 316.202 102.009 317.623C101.92 318.296 101.854 318.829 101.802 319.221L101.743 319.636C101.746 319.682 101.746 319.729 101.743 319.776C101.743 319.776 101.743 319.732 101.743 319.636C101.743 319.539 101.743 319.384 101.743 319.214C101.743 318.822 101.824 318.289 101.883 317.608C102.024 316.187 102.216 314.182 102.453 311.688C102.927 306.7 103.556 299.848 104.155 292.196C104.754 284.545 105.235 277.685 105.531 272.69C105.692 270.723 105.44 268.745 104.791 266.881C104.528 266.213 104.206 265.569 103.829 264.957Z" fill="#263238"/>
<path d="M110.112 288.408C109.518 288.364 108.936 288.214 108.395 287.964C107.82 287.814 107.277 287.563 106.789 287.224C107.385 287.262 107.967 287.413 108.506 287.668C109.082 287.816 109.626 288.066 110.112 288.408Z" fill="#263238"/>
<path d="M111.207 279.173C110.716 279.565 110.164 279.872 109.572 280.083C109.022 280.387 108.424 280.595 107.803 280.697C108.841 279.995 109.993 279.479 111.207 279.173Z" fill="#263238"/>
<path d="M110.637 271.632C109.743 271.794 108.822 271.73 107.959 271.447C108.396 271.321 108.857 271.299 109.305 271.38C109.763 271.36 110.219 271.446 110.637 271.632Z" fill="#263238"/>
<path d="M101.284 266.807C101.21 266.851 100.81 266.356 100.403 265.704C100.107 265.328 99.8974 264.891 99.7891 264.424C99.8631 264.38 100.263 264.868 100.677 265.527C101.091 266.185 101.38 266.755 101.284 266.807Z" fill="#263238"/>
<path d="M98.1981 271.365C97.786 271.513 97.3441 271.559 96.9105 271.499C96.4744 271.54 96.0348 271.474 95.6302 271.306C96.0423 271.158 96.4842 271.112 96.9179 271.173C97.3539 271.131 97.7935 271.197 98.1981 271.365Z" fill="#263238"/>
<path d="M95.9779 280.46C95.5043 280.441 95.0412 280.315 94.6237 280.09C94.1669 279.96 93.7447 279.73 93.3879 279.417C93.8616 279.436 94.3247 279.562 94.7421 279.787C95.199 279.917 95.6211 280.147 95.9779 280.46Z" fill="#263238"/>
<path d="M95.7412 288.149C95.7412 288.238 95.2454 288.423 94.5868 288.556C93.9282 288.689 93.388 288.741 93.3658 288.652C93.3436 288.563 93.869 288.378 94.5202 288.245C94.9129 288.112 95.3325 288.079 95.7412 288.149Z" fill="#263238"/>
<path d="M94.72 300.699C94.72 300.788 94.1872 300.958 93.4916 301.084C93.0761 301.208 92.6366 301.228 92.2114 301.143C92.5847 300.921 93.006 300.791 93.4398 300.766C93.8544 300.638 94.2944 300.615 94.72 300.699Z" fill="#263238"/>
<path d="M93.98 307.626C94.0244 307.7 93.5656 308.025 92.9588 308.366C92.352 308.706 91.8266 308.884 91.7896 308.802C91.7526 308.721 92.204 308.403 92.8108 308.062C93.4176 307.722 93.98 307.544 93.98 307.626Z" fill="#263238"/>
<path d="M99.6558 315.484C99.5818 315.529 99.1822 314.981 98.7678 314.256C98.4681 313.841 98.2611 313.366 98.161 312.865C98.235 312.82 98.6346 313.368 99.049 314.093C99.3488 314.508 99.5557 314.982 99.6558 315.484Z" fill="#263238"/>
<path d="M101.291 302.423C101.35 302.483 100.906 303.023 100.3 303.622C99.6927 304.222 99.1451 304.651 99.0785 304.584C99.0119 304.518 99.4633 303.985 100.07 303.385C100.677 302.786 101.225 302.357 101.291 302.423Z" fill="#263238"/>
<path d="M100.929 295.563C100.862 295.63 100.455 295.29 100.011 294.823C99.567 294.357 99.271 293.906 99.3302 293.847C99.3894 293.787 99.8038 294.12 100.248 294.587C100.692 295.053 100.995 295.504 100.929 295.563Z" fill="#263238"/>
<path d="M102.053 286.809C102.12 286.868 101.75 287.394 101.225 287.971C100.699 288.548 100.226 288.985 100.159 288.926C100.092 288.866 100.462 288.341 100.98 287.756C101.498 287.172 101.987 286.75 102.053 286.809Z" fill="#263238"/>
<path d="M102.682 280.46C102.616 280.527 102.105 280.12 101.528 279.557C100.951 278.995 100.544 278.484 100.603 278.418C100.662 278.351 101.18 278.758 101.757 279.328C102.335 279.898 102.742 280.394 102.682 280.46Z" fill="#263238"/>
<path d="M103.926 271.861C103.828 272.328 103.628 272.768 103.341 273.149C102.949 273.815 102.564 274.318 102.49 274.274C102.416 274.229 102.668 273.652 103.067 272.986C103.467 272.32 103.844 271.817 103.926 271.861Z" fill="#263238"/>
<path d="M106.257 263.899C106.338 263.943 106.109 264.52 105.746 265.186C105.383 265.852 105.006 266.363 104.947 266.326C105.017 265.864 105.192 265.423 105.457 265.038C105.82 264.365 106.175 263.862 106.257 263.899Z" fill="#263238"/>
<path d="M108.906 267.518C108.943 267.599 108.58 267.851 108.092 268.087C107.603 268.324 107.182 268.443 107.145 268.361C107.108 268.28 107.47 268.028 107.959 267.791C108.447 267.555 108.869 267.436 108.906 267.518Z" fill="#263238"/>
<path d="M108.965 296.111C107.736 296.021 106.572 295.524 105.657 294.698C106.233 294.872 106.791 295.103 107.322 295.386C107.893 295.571 108.444 295.814 108.965 296.111Z" fill="#263238"/>
<path d="M107.885 302.164C107.885 302.253 107.359 302.431 106.664 302.564C106.25 302.696 105.81 302.724 105.383 302.645C105.754 302.419 106.172 302.282 106.604 302.246C107.3 302.113 107.87 302.076 107.885 302.164Z" fill="#263238"/>
<path d="M106.56 312.547C106.508 312.621 105.82 312.14 105.184 311.34C104.76 310.884 104.461 310.326 104.318 309.72C104.731 310.16 105.105 310.635 105.435 311.141C105.852 311.574 106.229 312.044 106.56 312.547Z" fill="#263238"/>
<path d="M91.9894 317.297C91.9302 317.231 92.3002 316.816 92.8108 316.38C93.3214 315.943 93.7876 315.64 93.8468 315.714C93.906 315.788 93.536 316.187 93.0254 316.631C92.5148 317.075 92.0486 317.364 91.9894 317.297Z" fill="#263238"/>
<path d="M87.801 294.639C87.209 292.796 86.1064 290.65 84.175 290.62C83.5995 290.652 83.043 290.837 82.5639 291.157C82.0848 291.478 81.7006 291.921 81.4518 292.441C80.9203 293.468 80.6652 294.615 80.7118 295.771C80.9503 303.973 82.348 312.099 84.8632 319.91H91.945C91.8593 311.324 90.4618 302.802 87.801 294.639Z" fill="#455A64"/>
<path d="M75.0063 283.043C74.6561 281.317 73.7362 279.758 72.3943 278.618C71.0524 277.477 69.3662 276.82 67.6063 276.753C64.4761 277.3 63.2625 280.379 62.8925 283.531C62.5225 286.683 63.4994 289.821 64.4688 292.848C67.5669 302.556 70.6699 312.268 73.7779 321.981L82.5839 321.019C79.8311 308.01 78.2327 295.948 75.0063 283.043Z" fill="#455A64"/>
<path d="M84.175 290.62C83.9462 290.935 83.7456 291.269 83.5756 291.619C83.2106 292.62 83.0963 293.695 83.2426 294.75C83.3758 296.096 83.5312 297.71 83.7606 299.486C83.99 301.262 84.3082 303.186 84.7078 305.243C85.507 309.313 86.4098 312.954 86.9796 315.603C87.2682 316.927 87.4902 318.008 87.6234 318.755C87.6826 319.103 87.7344 319.384 87.7714 319.621C87.8084 319.858 87.8158 319.924 87.7714 319.924C87.733 319.831 87.7032 319.734 87.6826 319.636L87.4754 318.785C87.283 317.993 87.0314 316.935 86.7354 315.655C86.1064 313.005 85.1666 309.372 84.3674 305.295C83.9678 303.252 83.6274 301.299 83.4424 299.508C83.324 298.62 83.25 297.761 83.176 296.97C83.102 296.178 83.028 295.43 82.991 294.75C82.8645 293.664 83.0173 292.563 83.435 291.553C83.6111 291.192 83.8636 290.874 84.175 290.62Z" fill="#263238"/>
<path d="M67.7692 276.501C67.3768 276.948 67.0205 277.426 66.7036 277.929C65.8931 279.336 65.4337 280.917 65.3642 282.539C65.3274 284.944 65.6951 287.338 66.452 289.621C67.192 292.241 68.0726 295.119 68.968 298.131C70.7218 304.17 72.3054 309.631 73.4672 313.619L74.7992 318.326C74.9472 318.859 75.0582 319.28 75.147 319.606C75.1954 319.753 75.2276 319.904 75.2432 320.057C75.1753 319.92 75.1208 319.776 75.0804 319.628C74.9842 319.303 74.8436 318.888 74.6808 318.355C74.333 317.223 73.8446 315.632 73.2526 313.686L68.6572 298.22C67.7692 295.193 66.933 292.3 66.1634 289.695C65.4096 287.38 65.0616 284.951 65.1348 282.517C65.2302 280.864 65.7391 279.261 66.6148 277.855C66.9222 277.343 67.3123 276.886 67.7692 276.501Z" fill="#263238"/>
<path d="M80.697 320.08C80.6225 319.943 80.5558 319.802 80.4972 319.658C80.3862 319.369 80.2012 318.962 80.0014 318.415C79.5796 317.334 79.0394 315.743 78.5214 313.745C78.0034 311.747 77.4114 309.305 76.8786 306.641C76.3458 303.977 75.813 300.995 75.221 297.887C74.629 294.779 73.9334 291.856 73.1416 289.244C72.4547 286.922 71.5964 284.653 70.5738 282.458C69.8787 280.981 69.0851 279.552 68.1984 278.181C67.895 277.693 67.6212 277.33 67.4584 277.078C67.3657 276.952 67.284 276.819 67.2142 276.679C67.3228 276.789 67.4218 276.907 67.5102 277.034C67.6952 277.285 67.9838 277.626 68.302 278.114C69.2379 279.463 70.0668 280.884 70.781 282.362C71.8425 284.552 72.7259 286.823 73.4228 289.155C74.2586 292.008 74.9452 294.903 75.48 297.828C76.0646 300.929 76.6122 303.888 77.1154 306.589C77.6186 309.291 78.1514 311.681 78.6842 313.686C79.217 315.691 79.7128 317.283 80.0976 318.37C80.2752 318.925 80.4454 319.34 80.5416 319.628C80.6102 319.772 80.6624 319.924 80.697 320.08Z" fill="#263238"/>
<path d="M64.6612 291.397C64.6612 291.479 64.2024 291.671 63.5882 291.819C62.974 291.967 62.4634 292.019 62.4486 291.93C62.4338 291.841 62.9 291.656 63.5142 291.508C64.1284 291.36 64.639 291.309 64.6612 291.397Z" fill="#263238"/>
<path d="M63.7288 285.389C63.2478 285.524 62.7477 285.579 62.2488 285.551C61.7565 285.621 61.256 285.606 60.7688 285.507C61.2296 285.287 61.7395 285.19 62.2488 285.226C62.7479 285.153 63.2574 285.209 63.7288 285.389Z" fill="#263238"/>
<path d="M64.7204 279.898C64.6612 279.972 64.1802 279.661 63.6548 279.209C63.1294 278.758 62.7372 278.336 62.7964 278.27C62.8556 278.203 63.3292 278.506 63.862 278.958C64.3948 279.409 64.7796 279.831 64.7204 279.898Z" fill="#263238"/>
<path d="M67.4066 274.821C67.4954 274.821 67.4659 275.273 67.4585 275.783C67.4511 276.294 67.4585 276.731 67.3475 276.745C67.2365 276.76 67.1181 276.331 67.1329 275.776C67.1477 275.221 67.34 274.799 67.4066 274.821Z" fill="#263238"/>
<path d="M72.89 277.211C72.964 277.263 72.7494 277.7 72.409 278.181C72.0686 278.662 71.7356 279.017 71.669 278.965C71.6024 278.913 71.8096 278.484 72.1426 277.996C72.4756 277.507 72.816 277.16 72.89 277.211Z" fill="#263238"/>
<path d="M76.4495 283.42C76.4495 283.509 76.0277 283.768 75.4357 284.012C74.8437 284.256 74.3257 284.382 74.2961 284.301C74.2665 284.219 74.7179 283.953 75.3099 283.716C75.9019 283.479 76.4199 283.316 76.4495 283.42Z" fill="#263238"/>
<path d="M78.6102 289.762C78.2186 290.102 77.7338 290.316 77.219 290.376C76.7257 290.536 76.1975 290.554 75.6946 290.428C76.1694 290.24 76.667 290.115 77.1746 290.058C77.6393 289.901 78.1214 289.802 78.6102 289.762Z" fill="#263238"/>
<path d="M68.6942 287.956C68.6128 287.956 68.6942 287.49 68.8348 286.972C68.9754 286.454 69.1974 286.062 69.2788 286.091C69.3602 286.121 69.2788 286.558 69.1382 287.076C68.9976 287.594 68.82 287.986 68.6942 287.956Z" fill="#263238"/>
<path d="M70.078 295.948C70.1079 295.482 70.2447 295.029 70.4776 294.624C70.781 293.928 71.0918 293.395 71.1732 293.432C71.1433 293.899 71.0066 294.352 70.7736 294.757C70.4702 295.452 70.1594 296 70.078 295.948Z" fill="#263238"/>
<path d="M66.6592 298.139C66.2231 298.128 65.7933 298.033 65.3938 297.858C64.7204 297.643 64.1728 297.451 64.195 297.362C64.6354 297.305 65.083 297.369 65.49 297.547C66.1782 297.761 66.6962 298.057 66.6592 298.139Z" fill="#263238"/>
<path d="M68.6276 304.651C68.6794 304.725 68.302 305.08 67.7914 305.45C67.2808 305.82 66.8072 306.057 66.7554 305.99C66.7036 305.924 67.081 305.554 67.599 305.184C68.117 304.814 68.5758 304.577 68.6276 304.651Z" fill="#263238"/>
<path d="M70.2112 311.148C70.2112 311.229 69.7672 311.422 69.1678 311.562C68.5684 311.703 68.0726 311.755 68.0504 311.673C68.0282 311.592 68.4944 311.399 69.0938 311.251C69.6932 311.103 70.189 311.059 70.2112 311.148Z" fill="#263238"/>
<path d="M78.7877 295.194C78.8321 295.268 78.4325 295.586 77.8553 295.8C77.2781 296.015 76.7601 296.045 76.7453 295.963C76.7305 295.882 77.1893 295.712 77.7369 295.497C78.2845 295.282 78.7433 295.112 78.7877 295.194Z" fill="#263238"/>
<path d="M80.0088 305.294C79.9718 305.376 79.4982 305.235 78.9506 304.976C78.403 304.717 77.9886 304.443 78.0256 304.362C78.0626 304.281 78.5436 304.429 79.0912 304.68C79.6388 304.932 80.0532 305.213 80.0088 305.294Z" fill="#263238"/>
<path d="M82.1771 312.532C81.6869 312.507 81.2077 312.378 80.7711 312.154C80.0311 311.866 79.4612 311.562 79.4908 311.473C79.9785 311.499 80.4553 311.627 80.8894 311.851C81.6294 312.139 82.2067 312.443 82.1771 312.532Z" fill="#263238"/>
<path d="M70.559 318.2C70.5146 318.119 71.0918 317.734 71.7578 317.208C72.4238 316.683 72.9418 316.209 73.0084 316.276C73.075 316.343 72.6532 316.912 71.9576 317.46C71.5707 317.834 71.0858 318.09 70.559 318.2Z" fill="#263238"/>
<path d="M76.2718 314.5C76.183 314.5 76.0572 314.026 75.8352 313.464C75.6132 312.902 75.3912 312.45 75.4652 312.398C75.5392 312.347 75.9092 312.731 76.1386 313.346C76.368 313.96 76.3606 314.5 76.2718 314.5Z" fill="#263238"/>
<path d="M74.74 305.82C74.6882 305.894 74.3182 305.716 73.9112 305.428C73.5042 305.139 73.223 304.843 73.2748 304.769C73.3266 304.695 73.6966 304.873 74.1036 305.161C74.5106 305.45 74.814 305.746 74.74 305.82Z" fill="#263238"/>
<path d="M88.0601 292.189C88.1119 292.263 87.7493 292.618 87.2535 292.981C86.7577 293.343 86.3137 293.588 86.2619 293.514C86.2101 293.44 86.5653 293.092 87.0611 292.722C87.5569 292.352 88.0601 292.115 88.0601 292.189Z" fill="#263238"/>
<path d="M90.095 297.68C90.095 297.769 89.54 297.887 88.8444 297.813C88.1488 297.739 87.6234 297.502 87.6456 297.421C87.6678 297.339 88.2154 297.421 88.8814 297.487C89.5474 297.554 90.0876 297.591 90.095 297.68Z" fill="#263238"/>
<path d="M81.4592 298.916C81.4592 298.997 80.9634 299.182 80.2826 299.226C79.6018 299.271 79.069 299.16 79.0764 299.071C79.0838 298.982 79.6166 298.953 80.2678 298.908C80.919 298.864 81.4444 298.827 81.4592 298.916Z" fill="#263238"/>
<path d="M82.2065 293.721C82.2065 293.81 81.6737 293.824 81.0965 293.551C80.5193 293.277 80.1863 292.885 80.2455 292.811C80.3047 292.737 80.7043 293.018 81.2297 293.255C81.7551 293.491 82.2139 293.632 82.2065 293.721Z" fill="#263238"/>
<path d="M90.835 303.578C90.7906 303.652 90.2504 303.4 89.6288 303.008C89.0072 302.616 88.5484 302.268 88.6002 302.164C88.652 302.061 89.1848 302.349 89.8064 302.734C90.428 303.119 90.8868 303.504 90.835 303.578Z" fill="#263238"/>
<path d="M111.903 318.984H65.8378V327.147H111.903V318.984Z" fill="#41B6FF"/>
<path d="M69.2788 325.533L74.8806 349.931H102.335L108.462 325.533H69.2788Z" fill="#41B6FF"/>
<path d="M111.881 327.162C111.881 327.25 101.521 327.324 88.6742 327.324C75.8278 327.324 65.4678 327.25 65.4678 327.162C65.4678 327.073 75.8278 326.999 88.6742 326.999C101.521 326.999 111.881 327.08 111.881 327.162Z" fill="#263238"/>
<path d="M86.2618 299.093C86.1878 299.138 85.8696 298.775 85.5588 298.272C85.248 297.769 85.0556 297.325 85.1296 297.28C85.2036 297.236 85.5218 297.598 85.8326 298.102C86.1434 298.605 86.3358 299.041 86.2618 299.093Z" fill="#263238"/>
<path d="M86.2766 305.657C86.2544 305.231 86.3383 304.807 86.5208 304.421C86.7354 303.763 86.987 303.252 87.0684 303.282C87.0911 303.71 87.0072 304.137 86.8242 304.525C86.58 305.176 86.3654 305.687 86.2766 305.657Z" fill="#263238"/>
<path d="M88.5262 312.554C88.4448 312.598 88.1044 312.043 87.7862 311.326C87.5309 310.909 87.3693 310.442 87.3126 309.957C87.394 309.912 87.7344 310.467 88.0526 311.185C88.3079 311.602 88.4696 312.069 88.5262 312.554Z" fill="#263238"/>
<path d="M83.6644 318.104C83.5978 318.045 83.8716 317.623 84.2786 317.149C84.6856 316.676 85.063 316.35 85.137 316.409C85.211 316.468 84.9298 316.898 84.5228 317.364C84.1158 317.83 83.731 318.2 83.6644 318.104Z" fill="#263238"/>
<path d="M82.6433 308.033C82.6433 308.121 82.1845 308.114 81.6517 308.033C81.1189 307.951 80.7045 307.796 80.7193 307.707C80.7341 307.618 81.1781 307.626 81.7035 307.707C82.2289 307.788 82.6581 307.944 82.6433 308.033Z" fill="#263238"/>
<path d="M242.905 262.878H133.666V349.99H242.905V262.878Z" fill="#E0E0E0"/>
<g opacity="0.3">
<path d="M141.621 263.055C154.482 267.643 168.668 268.627 182.469 268.886C185.333 268.938 188.226 268.931 190.994 269.626C193.762 270.322 196.433 271.898 197.854 274.377C199.4 277.078 199.238 280.46 198.357 283.442C197.476 286.424 195.959 289.185 194.864 292.093C192.925 297.238 192.332 302.793 193.14 308.232C193.389 310.549 194.169 312.778 195.419 314.744C196.053 315.721 196.906 316.536 197.911 317.125C198.915 317.713 200.044 318.059 201.206 318.133C205.357 318.193 208.199 314.115 210.256 310.504C218.7 295.704 227.831 278.906 233.233 262.752L141.621 263.055Z" fill="black"/>
</g>
<path d="M170.888 349.524C170.777 349.524 170.696 330.218 170.696 306.405C170.696 282.591 170.777 263.277 170.888 263.277C170.999 263.277 171.081 282.584 171.081 306.405C171.081 330.225 170.992 349.524 170.888 349.524Z" fill="#455A64"/>
<path d="M215.651 198.498C215.325 196.322 208.828 189.144 208.828 189.144C208.828 189.144 205.587 176.113 204.61 172.272C204.285 171.162 203.809 170.101 203.197 169.12C200.899 165.292 197.632 162.14 193.725 159.981L184.734 154.926L182.588 150.146L160.994 139.046L155.141 149.406C155.141 149.406 140.926 153.92 139.046 157.124C137.166 160.328 139.978 203.596 139.978 203.596C139.978 203.596 134.058 228.549 132.778 233.714C131.498 238.879 133.178 245.036 133.178 245.036L143.767 231.753C147.06 227.624 154.283 225.722 159.47 225.796L203.803 225.996L202.02 213.579L237.888 220.52C237.888 220.52 244.052 208.488 244.548 208.251C245.044 208.014 215.651 198.498 215.651 198.498Z" fill="#41B6FF"/>
<path d="M160.077 153.439C159.766 153.121 162.578 162.63 166.115 172.316C168.018 177.551 168.987 183.079 168.979 188.648V223.724L190.232 222.281L187.057 199.178C187.057 199.178 184.467 184.275 183.742 178.606C183.076 173.426 180.782 159.366 180.782 159.366C180.782 159.366 168.979 162.504 160.077 153.439Z" fill="white"/>
<path d="M207.244 207.2C207.211 207.021 207.211 206.838 207.244 206.66C207.293 206.176 207.387 205.698 207.526 205.232C207.975 203.675 208.81 202.257 209.953 201.11C211.102 199.965 212.519 199.126 214.075 198.668C214.541 198.529 215.019 198.435 215.503 198.387C215.679 198.353 215.86 198.353 216.036 198.387C216.036 198.453 215.296 198.535 214.156 198.927C212.677 199.434 211.334 200.274 210.229 201.381C209.125 202.488 208.289 203.833 207.785 205.313C207.392 206.46 207.311 207.2 207.244 207.2Z" fill="#263238"/>
<path d="M208.34 198.794C209.327 198.214 210.444 197.891 211.588 197.854C212.721 197.697 213.876 197.834 214.94 198.253C214.94 198.372 213.46 198.083 211.618 198.253C209.775 198.424 208.384 198.905 208.34 198.794Z" fill="#263238"/>
<g opacity="0.3">
<path d="M137.84 217.938L135.99 220.024C137.919 222.406 140.533 224.136 143.479 224.982C146.447 225.612 149.48 225.886 152.514 225.796C153.743 225.856 154.974 225.739 156.17 225.448C157.376 225.101 158.493 224.42 159.744 224.346C160.582 224.35 161.417 224.469 162.223 224.701C163.034 224.931 163.891 224.944 164.709 224.738C165.114 224.629 165.473 224.392 165.733 224.063C165.993 223.734 166.14 223.329 166.152 222.91C156.927 220.214 147.432 218.546 137.84 217.938Z" fill="black"/>
</g>
<path d="M198.52 220.616L193.34 215.081L182.573 212.38C182.573 212.38 172.746 215.34 172.509 215.34C172.272 215.34 163.954 213.061 163.954 213.061L161.046 223.732L176.031 224.76L193.14 224.072C193.14 224.072 194.035 223.243 193.503 222.674C192.97 222.104 196.366 223.636 196.766 223.65C197.166 223.665 197.935 223.976 198.468 223.34C198.831 222.866 199.319 221.467 198.52 220.616Z" fill="#FFBE9D"/>
<path d="M193.503 222.637C192.921 222.527 192.352 222.363 191.801 222.148C190.765 221.823 189.322 221.408 187.716 220.964C186.11 220.52 184.63 220.224 183.557 220.039C182.97 219.962 182.392 219.826 181.833 219.632C182.425 219.606 183.019 219.651 183.601 219.765C185.017 219.963 186.42 220.24 187.805 220.594C189.191 220.946 190.555 221.381 191.889 221.897C192.456 222.074 192.999 222.322 193.503 222.637Z" fill="#EB996E"/>
<path d="M198.52 220.616C197.713 220.412 196.918 220.165 196.137 219.876C194.657 219.388 192.637 218.781 190.365 218.152C188.093 217.523 186.08 216.805 184.549 216.717C183.724 216.674 182.896 216.706 182.077 216.813C182.277 216.703 182.495 216.628 182.721 216.591C183.326 216.46 183.945 216.41 184.563 216.443C186.147 216.443 188.263 217.116 190.483 217.782C192.703 218.448 194.79 219.062 196.241 219.625C196.981 219.899 197.536 220.15 197.935 220.328C198.143 220.395 198.34 220.492 198.52 220.616Z" fill="#EB996E"/>
<path d="M139.046 157.124C139.046 157.124 131.313 162.504 129.426 170.244C127.539 177.985 119.392 209.62 121.064 214.348C122.736 219.077 155.252 223.724 155.252 223.724L159.107 207.444L142.591 202.923C142.591 202.923 142.805 187.864 143.012 181.626C143.22 175.387 139.046 157.124 139.046 157.124Z" fill="#41B6FF"/>
<path d="M158.9 209.894L164.221 211.203L161.017 223.473L155.792 222.636L158.9 209.894Z" fill="white"/>
<path d="M120.946 212.676C120.946 212.676 120.946 212.95 121.027 213.416C121.207 214.132 121.602 214.775 122.159 215.259C123.573 216.576 126.274 217.671 129.692 218.285C131.254 218.803 133.037 219.21 134.939 219.639C136.841 220.069 138.898 220.505 141.059 220.942C145.388 221.83 150.176 222.762 155.252 223.709L155.03 223.85C155.393 222.37 155.77 220.749 156.177 219.129C157.087 215.429 157.975 211.788 158.811 208.362L158.945 208.584L144.3 204.432C142.278 203.581 140.09 203.196 137.899 203.307C136.234 203.4 134.598 203.786 133.067 204.447C132.094 204.868 131.164 205.384 130.292 205.986L129.618 206.475C129.545 206.534 129.465 206.586 129.382 206.63C129.382 206.63 129.448 206.556 129.589 206.438C129.729 206.319 129.944 206.134 130.24 205.912C131.099 205.275 132.025 204.732 133 204.292C134.541 203.593 136.196 203.18 137.884 203.071C140.114 202.929 142.346 203.298 144.411 204.151L159.1 208.266L159.278 208.31L159.233 208.487C158.397 211.914 157.516 215.525 156.614 219.262C156.214 220.875 155.829 222.474 155.459 223.976L155.415 224.153H155.237C150.161 223.199 145.38 222.251 141.051 221.349C138.891 220.897 136.841 220.446 134.932 220.002C133.022 219.558 131.232 219.136 129.663 218.596C126.2 217.937 123.499 216.798 122.07 215.414C121.504 214.905 121.115 214.228 120.96 213.482C120.907 213.217 120.902 212.943 120.946 212.676Z" fill="#263238"/>
<path d="M143.493 204.025C143.449 204.077 142.894 203.567 141.902 202.908C139.306 201.169 136.236 200.272 133.111 200.34C131.912 200.34 131.18 200.503 131.165 200.436C131.785 200.212 132.437 200.09 133.096 200.074C136.307 199.841 139.495 200.768 142.08 202.686C142.622 203.051 143.099 203.504 143.493 204.025Z" fill="#263238"/>
<path d="M145.662 177.533C145.689 177.863 145.689 178.195 145.662 178.525C145.662 179.169 145.595 180.086 145.506 181.226C145.321 183.498 144.988 186.628 144.389 190.062C143.92 192.999 143.235 195.898 142.339 198.734C142.161 199.275 141.969 199.763 141.814 200.214L141.34 201.28C141.201 201.584 141.03 201.872 140.829 202.138C140.922 201.821 141.046 201.514 141.199 201.221C141.325 200.903 141.458 200.54 141.614 200.14C141.769 199.741 141.917 199.223 142.08 198.66C142.889 195.814 143.534 192.923 144.011 190.002C144.603 186.584 144.981 183.468 145.232 181.204C145.343 180.131 145.44 179.235 145.514 178.525C145.523 178.19 145.573 177.857 145.662 177.533Z" fill="#263238"/>
<path d="M164.517 169.149C164.517 169.149 164.443 168.949 164.265 168.602C164.002 168.109 163.617 167.691 163.148 167.388C162.8 167.15 162.403 166.994 161.986 166.932C161.57 166.871 161.144 166.905 160.743 167.033C160.234 167.207 159.779 167.511 159.424 167.915C159.068 168.318 158.824 168.807 158.715 169.334L158.612 169.86L158.382 169.371C157.517 167.514 156.763 165.606 156.125 163.658C154.995 160.414 154.429 157 154.453 153.565C154.453 152.906 154.542 152.314 154.579 151.789C154.616 151.263 154.734 150.827 154.815 150.472C154.893 150.098 155.002 149.732 155.141 149.376C154.889 150.759 154.747 152.16 154.719 153.565C154.78 156.962 155.377 160.329 156.488 163.54C157.126 165.473 157.867 167.37 158.708 169.223L158.375 169.268C158.502 168.686 158.781 168.148 159.182 167.707C159.584 167.267 160.094 166.94 160.661 166.759C161.102 166.626 161.567 166.598 162.021 166.676C162.474 166.754 162.903 166.937 163.274 167.21C163.754 167.548 164.133 168.012 164.369 168.55C164.433 168.692 164.481 168.841 164.509 168.994C164.524 169.09 164.532 169.149 164.517 169.149Z" fill="#263238"/>
<path d="M182.558 170.814C182.479 170.525 182.422 170.231 182.388 169.934C182.226 169.118 182.174 168.284 182.232 167.455C182.399 166.178 183.035 165.01 184.016 164.176C184.623 163.677 185.383 163.403 186.169 163.399C186.598 163.394 187.022 163.483 187.413 163.658C187.804 163.833 188.152 164.09 188.434 164.413L188.108 164.606L187.405 162.837C186.021 159.352 184.793 156.177 183.92 153.89L182.906 151.16C182.765 150.834 182.658 150.494 182.588 150.146C182.77 150.452 182.923 150.774 183.046 151.108C183.342 151.848 183.72 152.714 184.179 153.794C185.118 156.066 186.399 159.211 187.768 162.674L188.463 164.45L188.915 165.59L188.175 164.635C187.93 164.352 187.627 164.125 187.285 163.972C186.944 163.819 186.573 163.742 186.199 163.747C185.494 163.743 184.81 163.98 184.26 164.421C183.335 165.194 182.718 166.273 182.521 167.462C182.441 168.273 182.456 169.09 182.565 169.897C182.601 170.202 182.598 170.51 182.558 170.814Z" fill="#263238"/>
<path d="M196.285 172.649C196.389 172.649 198.061 183.883 200.022 197.772C201.983 211.662 203.478 222.932 203.374 222.932C203.271 222.932 201.598 211.699 199.637 197.772C197.676 183.846 196.181 172.664 196.285 172.649Z" fill="#263238"/>
<g opacity="0.3">
<path d="M156.347 163.777C156.437 166.654 157.062 169.49 158.19 172.139C158.996 171.14 159.892 170.089 161.15 169.793C162.674 169.43 164.221 170.37 165.323 171.525C165.132 170.37 164.676 169.276 163.991 168.328C163.649 167.862 163.204 167.481 162.691 167.215C162.177 166.95 161.609 166.806 161.031 166.796C160.455 166.81 159.9 167.015 159.454 167.379C159.007 167.744 158.695 168.247 158.567 168.809L156.443 163.829" fill="black"/>
</g>
<path d="M143.849 171.909C143.782 171.909 143.804 171.132 143.582 169.926C143.278 168.355 142.667 166.858 141.784 165.523C141.287 164.8 140.719 164.129 140.089 163.518C139.568 163.024 139 162.58 138.395 162.193C137.351 161.535 136.619 161.283 136.648 161.216C136.83 161.23 137.008 161.275 137.174 161.35C137.381 161.405 137.582 161.482 137.773 161.579C138.029 161.689 138.276 161.818 138.513 161.964C139.157 162.328 139.76 162.759 140.311 163.251C140.975 163.87 141.568 164.56 142.08 165.309C142.997 166.683 143.594 168.246 143.826 169.882C143.9 170.371 143.925 170.867 143.9 171.362C143.9 171.717 143.878 171.909 143.849 171.909Z" fill="#263238"/>
<path d="M186.806 119.14C186.383 115.178 184.484 111.519 181.486 108.894C178.489 106.268 174.613 104.867 170.629 104.969H169.808C160.965 105.709 156.658 113.634 157.65 122.448L160.077 153.454L161.105 154.712C163.415 157.549 166.597 159.542 170.158 160.381C173.718 161.221 177.456 160.859 180.789 159.352L180.109 149.376C180.109 149.376 188.589 147.837 188.471 139.327C188.419 135.198 187.62 126.747 186.806 119.14Z" fill="#FFBE9D"/>
<path d="M180.175 149.354C176.227 149.464 172.33 148.437 168.949 146.394C168.949 146.394 171.724 152.455 180.197 151.471L180.175 149.354Z" fill="#EB996E"/>
<path d="M184.112 126.14C184.12 126.456 184.007 126.764 183.794 126.998C183.582 127.232 183.288 127.376 182.972 127.398C182.818 127.414 182.662 127.398 182.514 127.353C182.366 127.307 182.228 127.233 182.109 127.133C181.99 127.034 181.892 126.912 181.82 126.775C181.749 126.638 181.705 126.487 181.692 126.333C181.682 126.016 181.795 125.708 182.008 125.473C182.22 125.239 182.516 125.096 182.832 125.075C182.986 125.058 183.142 125.073 183.291 125.118C183.44 125.163 183.578 125.238 183.697 125.337C183.816 125.437 183.914 125.559 183.986 125.697C184.057 125.835 184.1 125.986 184.112 126.14Z" fill="#263238"/>
<path d="M184.652 121.515C184.556 121.663 183.594 121.767 182.432 122.389C181.27 123.01 180.59 123.787 180.434 123.772C180.279 123.758 180.434 123.558 180.723 123.21C181.165 122.719 181.692 122.311 182.277 122.004C182.835 121.692 183.448 121.488 184.082 121.404C184.519 121.36 184.704 121.441 184.652 121.515Z" fill="#263238"/>
<path d="M171.828 126.784C171.842 127.102 171.73 127.412 171.517 127.648C171.304 127.883 171.006 128.025 170.688 128.042C170.534 128.058 170.378 128.044 170.229 127.999C170.081 127.953 169.943 127.879 169.823 127.78C169.704 127.68 169.606 127.558 169.534 127.42C169.463 127.282 169.42 127.131 169.408 126.977C169.398 126.66 169.511 126.352 169.724 126.117C169.936 125.882 170.232 125.74 170.548 125.719C170.702 125.702 170.858 125.717 171.007 125.762C171.156 125.807 171.294 125.882 171.413 125.981C171.532 126.08 171.631 126.203 171.702 126.341C171.773 126.479 171.816 126.629 171.828 126.784Z" fill="#263238"/>
<path d="M171.68 123.299C171.51 123.299 170.718 122.803 169.46 122.492C168.202 122.181 167.159 122.248 167.048 122.144C166.937 122.041 167.181 121.996 167.632 121.959C168.292 121.918 168.953 121.98 169.593 122.144C170.213 122.291 170.803 122.542 171.34 122.884C171.636 123.121 171.724 123.284 171.68 123.299Z" fill="#263238"/>
<path d="M176.771 133.459C177.457 133.23 178.167 133.084 178.888 133.022C179.221 133.022 179.531 132.904 179.583 132.675C179.604 132.332 179.519 131.991 179.339 131.698L178.281 129.174C176.801 125.593 175.75 122.64 175.898 122.588C176.046 122.537 177.378 125.386 178.806 128.967C179.161 129.855 179.502 130.699 179.82 131.505C180.038 131.902 180.112 132.363 180.027 132.808C179.981 132.927 179.909 133.035 179.815 133.122C179.721 133.209 179.609 133.274 179.487 133.311C179.305 133.368 179.115 133.401 178.925 133.407C178.212 133.517 177.488 133.534 176.771 133.459Z" fill="#263238"/>
<path d="M171.68 118.252C171.532 118.6 170.237 118.37 168.72 118.474C167.203 118.578 165.915 118.948 165.76 118.615C165.671 118.459 165.908 118.134 166.419 117.815C167.105 117.425 167.873 117.196 168.661 117.147C169.45 117.098 170.24 117.231 170.97 117.534C171.458 117.793 171.724 118.082 171.68 118.252Z" fill="#263238"/>
<path d="M184.623 118.541C184.334 118.844 183.209 118.541 181.862 118.541C180.516 118.541 179.369 118.77 179.102 118.459C178.984 118.311 179.161 118.008 179.657 117.719C180.341 117.361 181.106 117.185 181.877 117.209C182.655 117.203 183.421 117.402 184.097 117.786C184.586 118.089 184.748 118.4 184.623 118.541Z" fill="#263238"/>
<path d="M189.285 111.577C189.21 111.189 188.995 110.841 188.682 110.6C188.368 110.359 187.977 110.24 187.583 110.267C188.008 110.146 188.405 109.942 188.752 109.668C188.924 109.529 189.054 109.344 189.126 109.135C189.198 108.925 189.209 108.7 189.159 108.484C188.937 107.825 188.093 107.685 187.427 107.5C186.553 107.246 185.778 106.729 185.207 106.02C184.401 104.999 184.09 103.667 183.387 102.564C182.933 101.852 182.325 101.251 181.608 100.805C180.891 100.36 180.083 100.08 179.244 99.988C178.405 99.8957 177.555 99.9928 176.759 100.272C175.962 100.551 175.238 101.006 174.64 101.602C173.987 100.931 173.183 100.425 172.296 100.127C171.408 99.8291 170.462 99.7472 169.536 99.8884C168.611 100.03 167.732 100.39 166.974 100.939C166.215 101.488 165.599 102.21 165.175 103.045C164.04 102.572 162.799 102.412 161.581 102.583C160.363 102.754 159.213 103.25 158.252 104.018C157.291 104.786 156.555 105.798 156.119 106.948C155.684 108.098 155.566 109.344 155.777 110.556L161.076 113.805C161.119 113.402 161.247 113.012 161.451 112.663C161.656 112.313 161.932 112.01 162.263 111.775C162.593 111.54 162.969 111.378 163.367 111.299C163.764 111.22 164.174 111.227 164.569 111.318C166.167 111.784 167.188 113.634 168.846 113.76C170.141 113.856 171.243 112.857 172.494 112.524C174.011 112.117 175.617 112.724 176.986 113.494C178.355 114.263 179.665 115.225 181.189 115.61C183.01 115.975 184.9 115.75 186.584 114.966C187.331 114.704 188.013 114.282 188.582 113.731C188.862 113.454 189.072 113.114 189.194 112.739C189.317 112.365 189.348 111.966 189.285 111.577Z" fill="#263238"/>
<path d="M161.971 111.303L186.243 111.17C185.367 109.539 184.095 108.155 182.543 107.145C179.32 104.789 175.435 103.513 171.443 103.496C167.484 103.496 159.566 108.58 156.776 111.385C154.556 113.605 154.616 115.521 154.616 115.521C154.334 118.674 156.192 122.181 156.984 125.267C157.383 126.851 158.219 131.646 158.219 131.646C159.551 131.609 160.018 130.529 159.781 129.211L159.389 124.031C160.698 122.939 161.616 121.449 162.002 119.787C162.388 118.126 162.221 116.384 161.527 114.826C161.194 114.367 160.395 112.228 161.971 111.303Z" fill="#263238"/>
<path d="M159.041 123.691C157.805 119.399 156.665 114.811 157.983 110.519H157.243L156.947 110.734C156.262 110.504 155.523 110.498 154.835 110.717C154.147 110.936 153.547 111.368 153.121 111.951C152.696 112.534 152.467 113.237 152.468 113.959C152.469 114.681 152.701 115.384 153.128 115.965C152.407 115.959 151.708 116.217 151.162 116.689C150.617 117.162 150.264 117.818 150.168 118.533C150.171 119.53 150.444 120.507 150.96 121.36C151.477 122.215 151.793 123.177 151.885 124.172C151.916 124.668 151.771 125.158 151.476 125.558C151.181 125.957 150.755 126.239 150.272 126.355C150.506 126.86 150.906 127.269 151.406 127.513C151.907 127.757 152.475 127.821 153.017 127.694C152.672 128.538 152.094 129.267 151.352 129.796C152.936 130.876 155.104 130.536 156.821 129.67C157.886 129.242 158.755 128.436 159.263 127.406C159.736 126.214 159.381 124.905 159.041 123.691Z" fill="#263238"/>
<path d="M158.641 128.701C158.493 128.642 152.721 127.125 153.084 132.934C153.446 138.743 159.189 137.211 159.189 137.041C159.189 136.87 158.641 128.701 158.641 128.701Z" fill="#FFBE9D"/>
<path d="M157.798 134.932C157.798 134.932 157.701 135.006 157.531 135.094C157.301 135.209 157.036 135.23 156.791 135.154C156.162 134.961 155.592 134.021 155.504 132.971C155.459 132.469 155.527 131.963 155.703 131.491C155.751 131.304 155.843 131.131 155.972 130.988C156.101 130.845 156.263 130.736 156.443 130.669C156.558 130.633 156.682 130.638 156.794 130.683C156.906 130.727 156.999 130.809 157.058 130.913C157.146 131.069 157.109 131.187 157.146 131.202C157.183 131.217 157.265 131.091 157.206 130.854C157.158 130.716 157.07 130.595 156.954 130.506C156.872 130.449 156.779 130.409 156.681 130.389C156.583 130.369 156.482 130.368 156.384 130.388C156.149 130.45 155.933 130.571 155.757 130.739C155.581 130.907 155.45 131.118 155.378 131.35C155.164 131.87 155.076 132.433 155.119 132.993C155.23 134.162 155.859 135.213 156.747 135.42C156.904 135.455 157.068 135.454 157.225 135.418C157.382 135.382 157.53 135.312 157.657 135.213C157.798 135.072 157.82 134.939 157.798 134.932Z" fill="#EB996E"/>
<path d="M152.61 123.883C152.61 123.883 152.447 123.661 152.499 123.203C152.561 122.891 152.691 122.597 152.879 122.342C153.067 122.086 153.308 121.875 153.587 121.723C154.421 121.326 155.328 121.106 156.251 121.079C156.767 121.079 157.277 120.957 157.737 120.723C158.197 120.489 158.596 120.149 158.9 119.732C159.384 118.791 159.545 117.717 159.359 116.676C159.218 115.699 158.959 114.818 158.834 114.056C158.599 113.24 158.612 112.372 158.871 111.562C158.876 112.379 158.967 113.192 159.144 113.99C159.307 114.73 159.596 115.595 159.773 116.624C159.997 117.762 159.825 118.942 159.285 119.969C158.964 120.499 158.478 120.91 157.901 121.138C157.385 121.33 156.844 121.449 156.295 121.493C155.42 121.498 154.554 121.669 153.742 121.996C153.488 122.127 153.263 122.307 153.078 122.525C152.894 122.744 152.755 122.997 152.669 123.269C152.636 123.472 152.616 123.678 152.61 123.883Z" fill="#455A64"/>
<path d="M151.204 121.36C151.204 121.36 151.078 121.197 151.027 120.835C150.967 120.323 151.068 119.806 151.315 119.355C151.485 119.034 151.719 118.752 152.003 118.526C152.335 118.277 152.716 118.1 153.121 118.008C153.513 117.924 153.887 117.768 154.223 117.549C154.372 117.416 154.489 117.251 154.564 117.066C154.64 116.882 154.673 116.682 154.66 116.483C154.66 116.047 154.608 115.581 154.623 115.114C154.629 114.669 154.679 114.225 154.771 113.79C154.92 113.054 155.204 112.351 155.607 111.718C155.736 111.485 155.92 111.288 156.143 111.145C156.367 111.002 156.623 110.916 156.887 110.896C157.272 110.896 157.435 111.074 157.42 111.089C157.405 111.104 157.228 111.022 156.902 111.089C156.68 111.136 156.471 111.234 156.293 111.376C156.114 111.517 155.971 111.697 155.874 111.903C155.54 112.523 155.305 113.193 155.178 113.886C155.106 114.297 155.069 114.712 155.067 115.129C155.067 115.558 155.134 116.017 155.111 116.52C155.122 116.784 155.072 117.046 154.966 117.287C154.859 117.529 154.699 117.742 154.497 117.912C154.115 118.167 153.684 118.341 153.232 118.422C152.895 118.48 152.574 118.609 152.291 118.8C152.007 118.991 151.768 119.241 151.589 119.532C151.285 120.091 151.151 120.726 151.204 121.36Z" fill="#455A64"/>
<path d="M185.215 106.02C185.252 106.02 184.778 106.338 184.016 105.983C183.587 105.75 183.211 105.43 182.913 105.043C182.546 104.562 182.089 104.157 181.566 103.852C180.887 103.47 180.111 103.293 179.333 103.345C178.555 103.396 177.809 103.672 177.186 104.14C176.446 104.658 175.831 105.391 174.966 105.998C174.525 106.324 174.021 106.554 173.486 106.671C172.932 106.768 172.362 106.714 171.835 106.516C170.785 106.138 169.956 105.494 169.053 105.169C168.182 104.834 167.256 104.666 166.322 104.673C164.715 104.671 163.153 105.205 161.882 106.19C161.034 106.853 160.329 107.681 159.81 108.625C159.448 109.298 159.315 109.712 159.278 109.698C159.241 109.683 159.278 109.587 159.337 109.387C159.421 109.099 159.524 108.817 159.648 108.543C160.126 107.535 160.821 106.646 161.683 105.938C162.981 104.877 164.601 104.285 166.278 104.259C167.266 104.233 168.249 104.401 169.171 104.754C170.148 105.11 170.992 105.753 171.946 106.086C172.399 106.261 172.89 106.309 173.367 106.227C173.83 106.121 174.266 105.919 174.647 105.635C175.424 105.08 176.076 104.347 176.867 103.8C177.599 103.251 178.491 102.958 179.406 102.964C180.186 102.969 180.951 103.178 181.626 103.57C182.166 103.915 182.636 104.36 183.009 104.88C183.269 105.26 183.604 105.583 183.994 105.827C184.361 106.046 184.798 106.115 185.215 106.02Z" fill="#455A64"/>
<path d="M173.545 134.983C173.73 134.983 173.937 136.182 175.151 136.885C176.364 137.588 177.659 137.233 177.704 137.403C177.748 137.573 177.445 137.699 176.89 137.803C176.164 137.937 175.415 137.812 174.773 137.448C174.159 137.092 173.703 136.515 173.5 135.834C173.367 135.324 173.456 134.991 173.545 134.983Z" fill="#263238"/>
<path d="M250.12 250.608C247.867 248.673 244.944 247.7 241.98 247.9L236.978 263.788C240.641 263.951 244.296 265.838 247.833 264.868C249.246 264.433 250.504 263.602 251.46 262.474C252.416 261.347 253.03 259.969 253.228 258.504C253.382 257.035 253.18 255.551 252.639 254.176C252.098 252.802 251.234 251.578 250.12 250.608Z" fill="#41B6FF"/>
<path d="M242.039 247.537C242.039 247.412 242.579 247.308 243.519 247.315C244.917 247.341 246.301 247.604 247.611 248.092C249.613 248.872 251.346 250.217 252.599 251.963C253.364 252.998 253.929 254.168 254.264 255.411C254.626 256.772 254.667 258.198 254.382 259.577C254.107 260.975 253.483 262.28 252.569 263.373C251.694 264.369 250.585 265.132 249.343 265.593C247.324 266.307 245.147 266.448 243.053 266C241.705 265.736 240.39 265.327 239.131 264.779C238.25 264.402 237.784 264.121 237.829 263.995C237.873 263.869 238.406 263.906 239.309 264.062C240.211 264.217 241.58 264.506 243.208 264.654C245.055 264.858 246.923 264.604 248.647 263.914C249.593 263.514 250.43 262.895 251.089 262.108C251.781 261.247 252.253 260.231 252.466 259.148C252.669 258.074 252.654 256.97 252.421 255.902C252.188 254.834 251.743 253.824 251.112 252.932C250.092 251.387 248.69 250.133 247.042 249.291C245.874 248.74 244.651 248.313 243.393 248.018C242.542 247.826 242.024 247.671 242.039 247.537Z" fill="#F5F5F5"/>
<path d="M195.693 307.145L184.815 337.625L222.666 351.352C223.761 347.652 206.808 333.296 206.808 333.296L214.578 314.056L195.693 307.145Z" fill="#41B6FF"/>
<g opacity="0.6">
<path d="M195.7 327.413C195.296 327.391 194.898 327.52 194.582 327.774C194.267 328.028 194.056 328.39 193.991 328.79C193.955 329.192 194.074 329.593 194.325 329.909C194.575 330.226 194.938 330.434 195.338 330.492C195.769 330.514 196.193 330.375 196.528 330.102C196.862 329.828 197.081 329.439 197.143 329.012C197.143 328.205 196.344 327.28 195.545 327.391" fill="white"/>
</g>
<path d="M184.815 337.625L185.918 334.554L221.867 348.895C221.867 348.895 223.288 350.235 222.666 351.352L184.815 337.625Z" fill="white"/>
<path d="M207.496 333.326C207.422 333.511 206.467 333.259 205.343 333.525C204.218 333.792 203.448 334.391 203.308 334.265C203.167 334.14 203.826 333.163 205.195 332.867C206.564 332.571 207.592 333.17 207.496 333.326Z" fill="#263238"/>
<path d="M210.9 336.411C210.9 336.604 209.96 336.626 209.05 337.151C208.14 337.677 207.659 338.469 207.474 338.395C207.289 338.321 207.555 337.233 208.702 336.559C209.849 335.886 210.9 336.234 210.9 336.411Z" fill="#263238"/>
<path d="M211.396 341.976C211.218 341.976 211.292 340.94 212.136 340.097C212.979 339.253 213.986 339.172 214.008 339.357C214.03 339.542 213.305 339.882 212.624 340.585C211.943 341.288 211.588 342.028 211.396 341.976Z" fill="#263238"/>
<path d="M208.776 328.745C208.636 328.886 207.881 328.323 206.815 328.005C205.75 327.687 204.81 327.731 204.773 327.539C204.736 327.346 205.75 326.969 206.993 327.354C208.236 327.739 208.924 328.634 208.776 328.745Z" fill="#263238"/>
<path d="M209.501 323.928C208.822 323.868 208.17 323.628 207.614 323.232C206.973 322.865 206.381 322.417 205.853 321.9C205.537 321.598 205.243 321.274 204.973 320.931C204.802 320.736 204.662 320.516 204.558 320.279C204.484 320.104 204.47 319.909 204.52 319.725C204.57 319.541 204.679 319.38 204.832 319.266C204.971 319.17 205.13 319.109 205.297 319.086C205.464 319.063 205.634 319.079 205.794 319.132C206.034 319.219 206.261 319.338 206.467 319.488C206.837 319.735 207.184 320.015 207.503 320.324C208.038 320.842 208.488 321.441 208.835 322.1C209.216 322.676 209.409 323.356 209.39 324.046C209.287 324.046 209.065 323.343 208.421 322.344C208.039 321.769 207.586 321.245 207.074 320.783C206.771 320.511 206.447 320.263 206.105 320.043C205.742 319.791 205.402 319.665 205.239 319.806C205.076 319.946 205.158 319.887 205.202 320.035C205.279 320.21 205.381 320.372 205.505 320.516C205.748 320.845 206.012 321.156 206.297 321.449C206.777 321.955 207.305 322.413 207.873 322.818C208.85 323.521 209.546 323.831 209.501 323.928Z" fill="#263238"/>
<path d="M209.168 324.12C209.008 323.449 209.065 322.744 209.331 322.107C209.555 321.394 209.898 320.724 210.345 320.124C210.613 319.772 210.913 319.445 211.24 319.147C211.435 318.935 211.681 318.777 211.954 318.686C212.227 318.595 212.519 318.576 212.802 318.629C212.969 318.696 213.114 318.808 213.22 318.953C213.326 319.099 213.389 319.271 213.401 319.451C213.415 319.699 213.395 319.948 213.342 320.191C213.226 320.791 212.99 321.363 212.649 321.871C212.309 322.379 211.87 322.814 211.359 323.151C210.264 323.891 209.413 323.802 209.42 323.735C209.427 323.669 210.16 323.498 211.078 322.758C211.6 322.333 212.024 321.801 212.321 321.197C212.493 320.846 212.615 320.472 212.683 320.087C212.772 319.665 212.735 319.28 212.572 319.273C212.406 319.267 212.24 319.297 212.086 319.362C211.933 319.428 211.795 319.526 211.684 319.65C211.378 319.91 211.095 320.198 210.841 320.509C210.407 321.039 210.053 321.63 209.79 322.263C209.331 323.38 209.279 324.12 209.168 324.12Z" fill="#263238"/>
<path d="M159.026 225.744C153.284 225.878 147.837 226.684 143.878 230.85C138.632 236.378 132.149 244.244 131.779 249.698C131.232 257.838 136.153 260.28 139.742 262.278C141.329 263.137 143.118 263.553 144.922 263.484L211.285 262.981L213.364 251.741L170.444 241.159L172.228 225.004L159.026 225.744Z" fill="#263238"/>
<path d="M172.265 224.997L193.14 224.035C193.14 224.035 229.208 226.04 236.896 233.093C244.585 240.145 243.63 248.159 241.062 255.848C238.495 263.536 215.902 312.739 215.902 312.739C215.902 312.739 217.738 315.869 216.709 318.992C216.293 320.359 215.528 321.596 214.49 322.579C213.453 323.562 212.177 324.259 210.789 324.601L190.72 317.201C190.72 317.201 187.997 316.239 189.921 313.671C191.845 311.103 193.125 310.63 193.125 310.63V305.502C193.125 305.502 200.177 292.677 200.814 290.916C201.45 289.155 208.214 263.063 208.214 263.063L212.706 255.344C212.706 255.344 201.85 250.238 192.437 246.538L170.459 241.122L172.265 224.997Z" fill="#263238"/>
<path d="M206.127 316.298C205.52 315.945 204.932 315.56 204.366 315.144C201.531 313.307 198.337 312.094 194.997 311.584C194.297 311.516 193.6 311.413 192.911 311.274C193.615 311.192 194.326 311.205 195.027 311.311C198.45 311.676 201.72 312.92 204.521 314.922C205.115 315.308 205.655 315.771 206.127 316.298Z" fill="#455A64"/>
<path d="M216.154 312.776C215.716 312.417 215.326 312.004 214.992 311.547C214.311 310.756 213.409 309.631 212.469 308.343C211.529 307.056 210.715 305.864 210.16 304.984C209.829 304.523 209.551 304.026 209.331 303.504C209.729 303.906 210.081 304.35 210.382 304.828L212.78 308.114C213.675 309.327 214.496 310.423 215.207 311.377C215.572 311.808 215.89 312.277 216.154 312.776Z" fill="#455A64"/>
<path d="M223.48 248.329C223.48 248.388 222.74 248.551 221.578 248.936C218.536 249.94 215.78 251.661 213.542 253.953C213.105 254.457 212.643 254.939 212.158 255.396C212.471 254.798 212.87 254.25 213.342 253.768C214.418 252.552 215.665 251.498 217.042 250.638C218.419 249.771 219.914 249.111 221.482 248.677C222.127 248.461 222.8 248.343 223.48 248.329Z" fill="#455A64"/>
<path d="M202.982 283.168C202.991 283.02 203.018 282.873 203.063 282.732L203.374 281.511L204.573 277.034L208.68 262.3C209.516 259.422 210.227 256.684 211.033 254.197C211.885 252.037 213.172 250.075 214.815 248.433C215.899 247.321 217.1 246.328 218.396 245.473C218.862 245.177 219.225 244.955 219.484 244.822C219.608 244.743 219.739 244.676 219.876 244.622C219.876 244.622 219.373 244.962 218.485 245.591C217.231 246.486 216.067 247.5 215.007 248.618C213.422 250.253 212.184 252.191 211.366 254.316C210.626 256.765 209.886 259.54 209.05 262.404L204.839 277.1C204.292 278.943 203.84 280.445 203.515 281.54C203.359 282.029 203.241 282.428 203.137 282.739C203.105 282.889 203.053 283.033 202.982 283.168Z" fill="#455A64"/>
<path d="M184.519 245.584C184.408 245.584 183.971 241.691 183.535 236.867C183.098 232.042 182.795 228.12 182.943 228.112C183.091 228.105 183.483 232.005 183.92 236.83C184.356 241.654 184.623 245.576 184.519 245.584Z" fill="#455A64"/>
<path d="M149.769 256.04C149.709 256.04 149.391 255.44 148.733 254.515C147.882 253.312 146.863 252.238 145.706 251.326C144.54 250.426 143.252 249.696 141.88 249.158C140.822 248.743 140.134 248.588 140.149 248.521C140.771 248.551 141.386 248.678 141.969 248.899C144.863 249.853 147.335 251.784 148.962 254.36C149.321 254.872 149.594 255.439 149.769 256.04Z" fill="#455A64"/>
<path d="M162.556 241.832C162.556 241.891 161.638 241.329 160.106 240.626C156.087 238.8 151.63 238.163 147.26 238.791C145.595 239.027 144.581 239.323 144.566 239.257C144.782 239.135 145.014 239.045 145.255 238.99C145.898 238.792 146.553 238.633 147.216 238.517C151.635 237.741 156.187 238.395 160.21 240.382C160.813 240.679 161.396 241.016 161.956 241.388C162.176 241.508 162.378 241.657 162.556 241.832Z" fill="#455A64"/>
<path d="M212.55 251.718C212.372 251.71 212.196 251.68 212.025 251.63L210.545 251.311L205.143 250.12C200.577 249.099 194.257 247.722 187.25 246.339C180.242 244.955 173.878 243.808 169.268 243.016L163.799 242.076L162.319 241.817C162.144 241.797 161.973 241.754 161.808 241.691C161.984 241.696 162.16 241.711 162.334 241.736L163.814 241.928C165.109 242.106 166.981 242.387 169.297 242.75C173.922 243.49 180.301 244.57 187.316 245.961C194.331 247.352 200.636 248.766 205.195 249.854C207.466 250.401 209.309 250.86 210.574 251.193L212.054 251.578C212.224 251.61 212.389 251.657 212.55 251.718Z" fill="#455A64"/>
<path d="M170.481 243.053C170.407 243.053 170.252 242.18 169.564 240.937C169.161 240.219 168.663 239.56 168.084 238.976C167.353 238.256 166.577 237.584 165.76 236.963C164.255 235.851 162.664 234.861 161.002 234.003C160.299 233.668 159.621 233.282 158.974 232.848C159.719 233.084 160.44 233.389 161.128 233.759C162.845 234.555 164.476 235.524 165.997 236.652C166.825 237.283 167.606 237.973 168.335 238.717C168.93 239.332 169.428 240.033 169.815 240.796C170.081 241.312 170.282 241.859 170.415 242.424C170.476 242.628 170.498 242.841 170.481 243.053Z" fill="#455A64"/>
<path d="M244.4 253.08C244.481 253.169 243.371 254.286 242.505 255.996C241.64 257.705 241.358 259.244 241.247 259.222C241.245 258.026 241.562 256.851 242.165 255.818C242.656 254.724 243.426 253.78 244.4 253.08Z" fill="#263238"/>
<g opacity="0.3">
<path d="M196.899 177.26L201.65 210.722L201.887 211.255C203.001 199.687 201.289 188.021 196.899 177.26Z" fill="black"/>
</g>
<path d="M222.481 196.485L207.037 223.48L168.979 224.309L168.883 226.033L205.735 225.759L206.904 225.715L245.813 225.796L253.679 212.232L263.729 197.832C263.874 197.618 263.958 197.369 263.973 197.111C263.987 196.852 263.93 196.595 263.809 196.367C263.688 196.139 263.507 195.948 263.286 195.815C263.064 195.681 262.81 195.611 262.552 195.612L223.709 195.76C223.459 195.761 223.213 195.829 222.998 195.957C222.782 196.084 222.604 196.266 222.481 196.485Z" fill="#E0E0E0"/>
<path d="M253.679 212.254C253.679 212.254 255.677 214.089 255.367 215.643C255.056 217.197 255.152 218.359 253.679 218.463C253.707 219.031 253.515 219.589 253.143 220.02C252.771 220.451 252.248 220.723 251.681 220.779C251.681 220.779 252.133 223.221 249.291 223.643C249.291 223.643 248.418 226.255 246.627 225.619C245.595 225.268 244.603 224.809 243.667 224.25L243.142 223.302C243.142 223.302 240.5 222.311 241.151 220.823C241.551 219.921 242.912 219.684 242.912 219.684C242.756 219.313 242.689 218.91 242.719 218.509C242.749 218.107 242.873 217.719 243.083 217.375C243.712 216.524 245.769 217.227 245.769 217.227C245.726 216.498 245.959 215.78 246.42 215.214C247.16 214.378 250.401 216.635 250.401 216.635L252.185 214.504L253.679 212.254Z" fill="#FFBE9D"/>
<path d="M249.291 223.643C248.137 223.151 247.037 222.544 246.006 221.83C244.908 221.224 243.876 220.504 242.927 219.684C244.08 220.18 245.181 220.79 246.213 221.504C247.308 222.112 248.34 222.828 249.291 223.643Z" fill="#EB996E"/>
<path d="M251.681 220.779C250.608 220.357 249.585 219.816 248.633 219.166C247.614 218.626 246.659 217.976 245.784 217.227C246.859 217.645 247.882 218.187 248.832 218.84C249.851 219.38 250.806 220.03 251.681 220.779Z" fill="#EB996E"/>
<path d="M248.425 215.421C248.485 215.31 249.706 215.954 251.126 216.857C252.007 217.365 252.855 217.929 253.665 218.544C253.613 218.67 252.34 218.093 250.919 217.183C250.028 216.685 249.192 216.095 248.425 215.421Z" fill="#EB996E"/>
<path d="M263.729 196.648C263.667 196.657 263.605 196.657 263.544 196.648H262.996H260.894L253.169 196.707L227.676 196.766H225.818C225.545 196.74 225.269 196.788 225.02 196.905C224.772 197.022 224.559 197.204 224.405 197.432C223.813 198.488 223.236 199.529 222.673 200.555L219.388 206.475L213.816 216.487C212.232 219.314 210.937 221.608 210.027 223.228C209.59 223.968 209.235 224.605 208.983 225.049L208.702 225.515L208.599 225.67C208.599 225.67 208.599 225.604 208.665 225.493L208.917 225.004L209.901 223.154L213.601 216.354L219.107 206.297C220.143 204.41 221.238 202.427 222.363 200.377L224.102 197.232C224.291 196.951 224.552 196.724 224.857 196.576C225.163 196.428 225.502 196.363 225.841 196.389H227.698L253.191 196.44L260.917 196.507L263.018 196.544H263.566C263.625 196.569 263.68 196.604 263.729 196.648Z" fill="#263238"/>
<path d="M236.349 210.227C236.169 210.487 236.068 210.793 236.058 211.109C236.048 211.425 236.13 211.737 236.293 212.007C236.456 212.278 236.693 212.496 236.977 212.635C237.261 212.774 237.579 212.829 237.893 212.792C238.206 212.755 238.503 212.628 238.747 212.427C238.99 212.225 239.171 211.958 239.266 211.657C239.362 211.356 239.368 211.033 239.285 210.728C239.202 210.424 239.033 210.149 238.798 209.938C238.434 209.654 237.973 209.525 237.514 209.579C237.055 209.633 236.637 209.866 236.349 210.227Z" fill="white"/>
<g opacity="0.3">
<path d="M128.309 199.8C127.983 199.933 127.606 200.155 127.606 200.54C127.617 200.683 127.677 200.818 127.775 200.923C127.873 201.028 128.004 201.096 128.146 201.117C128.689 201.04 129.22 200.899 129.729 200.696C133.733 199.815 137.026 200.659 140.829 202.176L140.955 202.05C139.446 198.772 132.615 198.046 128.309 199.8Z" fill="black"/>
</g>
<path d="M334.48 350.02C334.48 350.124 267.547 350.212 185 350.212C102.453 350.212 35.52 350.094 35.52 350.02C35.52 349.946 102.438 349.828 185 349.828C267.562 349.828 334.48 349.879 334.48 350.02Z" fill="#263238"/>
<path d="M107.611 114.115C107.737 114.241 132.312 105.798 132.312 105.798L122.84 84.1157L100.988 92.4999L113.02 99.4115L107.611 114.115Z" fill="#455A64"/>
<path d="M119.14 90.6426V61.124C119.14 61.124 153.039 54.9228 177.467 55.2928C201.894 55.6628 227.047 59.6662 227.047 59.6662V88.0082C227.047 88.0082 150.486 81.1706 119.14 90.6426Z" fill="#455A64"/>
<path d="M118.962 90.6722L132.282 105.924V88.0082C132.282 88.0082 121.145 89.3402 118.962 90.6722Z" fill="#263238"/>
<path d="M119.14 61.1166C119.251 61.1166 119.295 67.7766 119.251 75.9166C119.207 84.0566 119.073 90.7166 118.97 90.7166C118.866 90.7166 118.814 84.101 118.859 75.9166C118.903 67.7322 119.029 61.1166 119.14 61.1166Z" fill="#263238"/>
<path d="M238.517 111.851C238.391 111.977 213.816 103.533 213.816 103.533L223.265 81.844L245.14 90.2134L233.1 97.125L238.517 111.851Z" fill="#455A64"/>
<path d="M227.18 88.4078L213.86 103.659V87.0388C218.326 87.1917 222.776 87.6491 227.18 88.4078Z" fill="#263238"/>
<path d="M227.032 59.6661C227.136 59.6661 227.254 66.0967 227.291 74.0369C227.328 81.9771 227.291 88.4077 227.165 88.4077C227.039 88.4077 226.943 81.9771 226.906 74.0369C226.869 66.0967 226.921 59.6661 227.032 59.6661Z" fill="#263238"/>
<path d="M138.254 74.0666C138.184 73.2168 138.366 72.3652 138.778 71.6184C139.19 70.8716 139.812 70.2627 140.568 69.8678C141.324 69.473 142.179 69.3097 143.027 69.3984C143.875 69.4871 144.678 69.8239 145.336 70.3666L144.3 71.6098C144.021 71.3553 143.689 71.1656 143.329 71.0543C142.968 70.943 142.587 70.9128 142.213 70.966C141.55 71.0582 140.95 71.4102 140.546 71.9445C140.143 72.4788 139.967 73.1516 140.06 73.815C140.152 74.4784 140.504 75.0779 141.038 75.4818C141.573 75.8856 142.245 76.0607 142.909 75.9684C143.285 75.9189 143.645 75.7855 143.963 75.578C144.281 75.3705 144.547 75.0942 144.744 74.7696L146.046 75.6798C145.564 76.3818 144.885 76.9258 144.095 77.2438C143.304 77.5617 142.438 77.6394 141.604 77.4672C140.769 77.295 140.005 76.8805 139.405 76.2756C138.805 75.6707 138.397 74.9023 138.232 74.0666H138.254Z" fill="white"/>
<path d="M146.328 72.9566C146.19 72.1022 146.312 71.2262 146.678 70.4419C147.043 69.6576 147.636 69.0012 148.379 68.5577C149.122 68.1142 149.981 67.904 150.845 67.9543C151.709 68.0047 152.538 68.3132 153.225 68.84C153.911 69.3668 154.424 70.0876 154.696 70.9091C154.968 71.7305 154.988 72.6148 154.752 73.4474C154.516 74.2799 154.035 75.0225 153.372 75.5788C152.709 76.1352 151.895 76.4797 151.034 76.5678C150.486 76.6552 149.925 76.63 149.387 76.4937C148.849 76.3573 148.344 76.1127 147.904 75.7747C147.463 75.4368 147.096 75.0126 146.825 74.528C146.554 74.0435 146.385 73.5088 146.328 72.9566ZM153.069 72.261C153.009 71.7808 152.809 71.329 152.493 70.9619C152.178 70.5948 151.762 70.3286 151.296 70.1966C150.831 70.0645 150.337 70.0725 149.876 70.2194C149.415 70.3664 149.007 70.6458 148.704 71.0229C148.4 71.4 148.215 71.858 148.17 72.3398C148.126 72.8216 148.224 73.3059 148.452 73.7323C148.681 74.1587 149.031 74.5083 149.457 74.7375C149.883 74.9667 150.367 75.0654 150.849 75.0212C151.181 74.9993 151.505 74.9087 151.801 74.7551C152.096 74.6014 152.356 74.3881 152.565 74.1286C152.774 73.8692 152.926 73.5692 153.013 73.2477C153.1 72.9262 153.119 72.5902 153.069 72.261Z" fill="white"/>
<path d="M163.769 75.4207L163.451 70.6995L161.387 74.7399L160.573 74.7917L158.02 71.1509L158.323 75.7685L156.614 75.8795L156.14 68.0133L157.62 67.9171L160.876 72.6161L163.459 67.5471L164.939 67.4509L165.471 75.3097L163.769 75.4207Z" fill="white"/>
<path d="M173.959 70.0336C174.004 71.7948 172.716 72.9196 170.614 72.9936L169.023 73.038L169.09 75.2136L167.262 75.2654L167.04 67.34L170.452 67.2438C172.561 67.2142 173.9 68.2724 173.959 70.0336ZM172.109 70.0854C172.109 69.2196 171.51 68.7312 170.392 68.7608L168.912 68.8052L168.994 71.5432L170.474 71.4988C171.584 71.4692 172.131 70.9438 172.109 70.0854Z" fill="white"/>
<path d="M175.38 67.1698H177.2V73.5634H181.152V75.0434H175.38V67.1698Z" fill="white"/>
<path d="M188.219 73.7928V75.2728L182.114 75.0952L182.343 67.2142L188.263 67.3918L188.219 68.8718L184.075 68.746L184.031 70.4628L187.686 70.5664L187.642 71.9872L183.986 71.8762L183.934 73.704L188.219 73.7928Z" fill="white"/>
<path d="M191.593 69.0419L189.077 68.8939L189.166 67.4139L196.019 67.8283L195.93 69.3083L193.414 69.1529L193.029 75.5391L191.209 75.4281L191.593 69.0419Z" fill="white"/>
<path d="M202.656 74.8732L202.523 76.3532L196.44 75.7908L197.18 67.9468L203.1 68.4944L202.967 69.9744L198.838 69.56L198.683 71.2694L202.323 71.6024L202.198 73.0158L198.549 72.6828L198.387 74.4958L202.656 74.8732Z" fill="white"/>
<path d="M204.936 68.6646L208.48 69.1382C211.033 69.4786 212.58 71.2472 212.269 73.5782C211.958 75.9092 209.99 77.2782 207.437 76.9082L203.892 76.4346L204.936 68.6646ZM207.548 75.4503C207.87 75.502 208.199 75.4887 208.516 75.4111C208.833 75.3334 209.131 75.1931 209.393 74.9984C209.654 74.8036 209.874 74.5584 210.04 74.2772C210.205 73.9961 210.312 73.6846 210.355 73.3612C210.399 73.0379 210.376 72.7092 210.29 72.3945C210.204 72.0799 210.056 71.7857 209.854 71.5293C209.652 71.2729 209.401 71.0595 209.116 70.9018C208.83 70.744 208.516 70.6451 208.192 70.6107L206.541 70.3888L205.898 75.2284L207.548 75.4503Z" fill="white"/>
<path d="M242.195 62.3524L244.133 64.6242L249.595 62.3524L247.996 59.9622L242.195 62.3524Z" fill="#455A64"/>
<path d="M239.693 51.5409C239.693 52.103 239.527 52.6523 239.215 53.1196C238.902 53.5869 238.459 53.9512 237.939 54.1662C237.42 54.3813 236.849 54.4376 236.297 54.3279C235.746 54.2183 235.24 53.9477 234.843 53.5503C234.445 53.1529 234.174 52.6465 234.065 52.0953C233.955 51.5441 234.011 50.9727 234.227 50.4535C234.442 49.9343 234.806 49.4905 235.273 49.1782C235.74 48.866 236.29 48.6993 236.852 48.6993C237.605 48.7013 238.327 49.0013 238.859 49.5338C239.392 50.0663 239.692 50.7879 239.693 51.5409Z" fill="#41B6FF"/>
<path d="M176.039 93.9281C176.037 94.2098 175.952 94.4846 175.794 94.7177C175.636 94.9508 175.412 95.1317 175.151 95.2375C174.89 95.3432 174.604 95.3689 174.328 95.3114C174.052 95.254 173.8 95.1159 173.603 94.9146C173.406 94.7134 173.273 94.4582 173.221 94.1813C173.169 93.9045 173.201 93.6185 173.312 93.3598C173.424 93.101 173.609 92.8811 173.845 92.728C174.082 92.5749 174.358 92.4955 174.64 92.4999C175.014 92.5058 175.371 92.6591 175.633 92.9265C175.895 93.1939 176.041 93.5538 176.039 93.9281Z" fill="#41B6FF"/>
<path d="M109.846 72.5717C109.846 72.786 109.782 72.9955 109.662 73.1735C109.543 73.3514 109.373 73.4899 109.175 73.5712C108.977 73.6525 108.759 73.673 108.549 73.6301C108.339 73.5872 108.147 73.4829 107.996 73.3303C107.846 73.1777 107.744 72.9838 107.704 72.7733C107.664 72.5627 107.687 72.345 107.771 72.1479C107.855 71.9508 107.996 71.7831 108.176 71.6662C108.355 71.5492 108.566 71.4884 108.78 71.4913C109.064 71.4952 109.335 71.6107 109.534 71.8129C109.734 72.0151 109.846 72.2877 109.846 72.5717Z" fill="#41B6FF"/>
<path d="M105.835 60.6799L109.017 60.8723L110.526 54.6119L107.552 54.7377L105.835 60.6799Z" fill="#455A64"/>
<path d="M205.291 110.652L206.364 113.657L212.713 112.591L211.433 109.905L205.291 110.652Z" fill="#41B6FF"/>
<path d="M141.074 93.314L139.113 95.83L143.412 100.618L144.996 98.0944L141.074 93.314Z" fill="#455A64"/>
<path d="M133.474 34.2102L140.985 41.8692L151.559 37.8732L151.981 40.5002L147.401 49.876L151.626 56.8764L151.271 58.9706L141.037 57.2464L134.983 63.8842L133.563 62.8112L132.312 54.3678L122.766 49.395L122.344 47.4636L131.957 44.8366L133.474 34.2102Z" fill="#41B6FF"/>
<g opacity="0.3">
<path d="M133.474 34.2102L140.985 41.8692L151.559 37.8732L151.981 40.5002L147.401 49.876L151.626 56.8764L151.271 58.9706L141.037 57.2464L134.983 63.8842L133.563 62.8112L132.312 54.3678L122.766 49.395L122.344 47.4636L131.957 44.8366L133.474 34.2102Z" fill="black"/>
</g>
<path d="M133.474 32.0568L140.985 39.7232L151.559 37.8732L146.594 47.3896L151.626 56.8764L141.037 55.1004L133.563 62.8112L131.986 52.1922L122.344 47.4636L131.957 42.6832L133.474 32.0568Z" fill="#41B6FF"/>
<path d="M211.359 34.2102L203.84 41.8692L193.266 37.8732L192.844 40.5002L197.425 49.876L193.199 56.8764L193.554 58.9706L203.789 57.2464L209.842 63.8842L211.263 62.8112L212.513 54.3678L222.059 49.395L222.481 47.4636L212.868 44.8366L211.359 34.2102Z" fill="#41B6FF"/>
<g opacity="0.3">
<path d="M211.359 34.2102L203.84 41.8692L193.266 37.8732L192.844 40.5002L197.425 49.876L193.199 56.8764L193.554 58.9706L203.789 57.2464L209.842 63.8842L211.263 62.8112L212.513 54.3678L222.059 49.395L222.481 47.4636L212.868 44.8366L211.359 34.2102Z" fill="black"/>
</g>
<path d="M211.359 32.0568L203.84 39.7232L193.266 37.8732L198.231 47.3896L193.199 56.8764L203.789 55.1004L211.263 62.8112L212.839 52.1922L222.481 47.4636L212.868 42.6832L211.359 32.0568Z" fill="#41B6FF"/>
<path d="M172.168 20.7644L178.421 32.9818L192.844 32.1308L192.356 35.4904L183.194 45.1918L185.673 55.3372L184.452 57.757L172.62 51.7556L162.711 57.5572L161.387 55.6998L163.074 44.918L153.321 35.2166L153.543 32.708L166.271 33.1594L172.168 20.7644Z" fill="#41B6FF"/>
<g opacity="0.3">
<path d="M172.168 20.7644L178.421 32.9818L192.844 32.1308L192.356 35.4904L183.194 45.1918L185.673 55.3372L184.452 57.757L172.62 51.7556L162.711 57.5572L161.387 55.6998L163.074 44.918L153.321 35.2166L153.543 32.708L166.271 33.1594L172.168 20.7644Z" fill="black"/>
</g>
<path d="M172.982 18.1448L179.235 30.3548L192.844 32.1308L183.157 41.8544L185.673 55.3372L173.441 49.136L161.387 55.6998L163.51 42.143L153.543 32.708L167.092 30.5324L172.982 18.1448Z" fill="#41B6FF"/>
<path d="M197.898 127.746L208.347 128.901C211.875 123.906 217.143 120.412 223.116 119.105C229.089 117.797 235.335 118.771 240.626 121.835C245.918 124.898 249.872 129.83 251.712 135.661C253.552 141.492 253.144 147.8 250.57 153.346C247.995 158.892 243.439 163.275 237.798 165.632C232.156 167.99 225.837 168.152 220.082 166.087C214.326 164.023 209.552 159.88 206.696 154.473C203.84 149.067 203.109 142.788 204.647 136.87L197.898 127.746Z" fill="#FAFAFA"/>
<path d="M197.898 127.746C198.305 128.294 200.422 131.091 204.743 136.826H204.588C204.593 136.814 204.601 136.803 204.611 136.794C204.621 136.786 204.633 136.779 204.646 136.776C204.658 136.772 204.672 136.771 204.685 136.774C204.698 136.776 204.71 136.781 204.721 136.789C204.738 136.799 204.752 136.815 204.76 136.834C204.768 136.852 204.77 136.873 204.765 136.893C203.706 141.044 203.762 145.402 204.928 149.524C205.27 150.761 205.724 151.965 206.282 153.121C206.578 153.713 206.86 154.32 207.178 154.919L208.28 156.673C211.801 161.777 217.128 165.355 223.184 166.685C226.537 167.422 230.008 167.437 233.366 166.729C236.907 165.959 240.235 164.418 243.112 162.215C246.126 159.927 248.549 156.95 250.179 153.535C251.867 150.062 252.699 146.236 252.606 142.376C252.499 138.683 251.563 135.062 249.868 131.779C248.275 128.667 246.016 125.944 243.253 123.802C238.275 119.955 232.011 118.164 225.752 118.8C223.107 119.117 220.525 119.83 218.093 120.916C214.223 122.705 210.888 125.475 208.421 128.952C208.413 128.967 208.401 128.978 208.387 128.985C208.372 128.991 208.355 128.993 208.34 128.989L197.898 127.746L208.362 128.804L208.273 128.849C210.732 125.324 214.083 122.516 217.982 120.709C220.426 119.582 223.029 118.839 225.7 118.504C232.045 117.832 238.405 119.628 243.46 123.521C246.271 125.688 248.568 128.45 250.187 131.609C251.917 134.939 252.871 138.617 252.976 142.369C253.074 146.289 252.231 150.177 250.52 153.705C248.86 157.173 246.397 160.195 243.334 162.519C240.409 164.751 237.029 166.313 233.433 167.092C230.015 167.811 226.482 167.788 223.073 167.025C216.952 165.676 211.574 162.049 208.029 156.88L206.919 155.104C206.601 154.497 206.319 153.876 206.016 153.276C205.459 152.105 205.009 150.887 204.669 149.635C203.508 145.468 203.478 141.068 204.58 136.885L204.758 136.952C204.744 136.973 204.723 136.989 204.698 136.996C204.674 137.003 204.648 137 204.625 136.989L197.898 127.746Z" fill="#263238"/>
<path d="M219.336 134.266C219.345 134.379 219.345 134.493 219.336 134.606C219.336 134.85 219.336 135.161 219.336 135.553C219.336 136.412 219.336 137.603 219.38 139.113C219.38 142.184 219.432 146.513 219.469 151.693L219.299 151.522H236.711C236.756 151.478 236.349 151.885 236.519 151.707V149.339C236.519 148.562 236.519 147.785 236.519 147.016V142.509C236.519 139.594 236.519 136.833 236.519 134.295L236.682 134.465L224.102 134.377L220.542 134.34H219.595H219.255H219.558H220.476L223.991 134.295L236.667 134.214H236.837V134.377C236.837 136.915 236.837 139.675 236.837 142.591V151.7C237.015 151.53 236.608 151.944 236.645 151.9H219.232H219.062V151.7C219.062 146.476 219.121 142.117 219.144 139.024C219.144 137.544 219.144 136.345 219.188 135.501C219.188 135.124 219.188 134.821 219.188 134.584C219.223 134.472 219.273 134.364 219.336 134.266Z" fill="#263238"/>
<path d="M234.869 137.144C235.12 137.344 232.782 140.718 229.637 144.685C229.015 145.477 228.401 146.231 227.831 146.905L227.461 147.356L227.047 146.979C224.324 144.529 222.481 142.65 222.644 142.457C222.807 142.265 224.945 143.819 227.765 146.157L226.973 146.231C227.513 145.491 228.105 144.751 228.734 143.967C231.872 140.001 234.624 136.952 234.869 137.144Z" fill="#41B6FF"/>
</svg>
