<svg width="296" height="296" viewBox="0 0 296 296" fill="none" xmlns="http://www.w3.org/2000/svg">
<path d="M245.875 153.849C245.846 108.567 252.654 96.5789 228.115 58.3238C203.577 20.0688 143.424 11.5973 97.9346 39.9718C52.4453 68.3464 40.2146 104.837 40.2146 104.837C40.2146 104.837 23.7096 147.461 46.9042 190.381C68.1155 229.643 109.887 251.949 146.117 270.301H238.76C244.391 265.555 249.178 259.891 252.92 253.548C271.787 221.799 245.911 199.131 245.875 153.849Z" fill="#0866FF"/>
<path opacity="0.7" d="M245.875 153.849C245.846 108.567 252.654 96.5789 228.115 58.3238C203.577 20.0688 143.424 11.5973 97.9346 39.9718C52.4453 68.3464 40.2146 104.837 40.2146 104.837C40.2146 104.837 23.7096 147.461 46.9042 190.381C68.1155 229.643 109.887 251.949 146.117 270.301H238.76C244.391 265.555 249.178 259.891 252.92 253.548C271.787 221.799 245.911 199.131 245.875 153.849Z" fill="white"/>
<path d="M245.875 153.849C245.846 108.567 252.654 96.5789 228.115 58.3238C203.577 20.0688 143.424 11.5973 97.9346 39.9718C52.4453 68.3464 40.2146 104.837 40.2146 104.837C40.2146 104.837 23.7096 147.461 46.9042 190.381C68.1155 229.643 109.887 251.949 146.117 270.301H238.76C244.391 265.555 249.178 259.891 252.92 253.548C271.787 221.799 245.911 199.131 245.875 153.849Z" fill="#0866FF"/>
<path opacity="0.7" d="M245.875 153.849C245.846 108.567 252.654 96.5789 228.115 58.3238C203.577 20.0688 143.424 11.5973 97.9346 39.9718C52.4453 68.3464 40.2146 104.837 40.2146 104.837C40.2146 104.837 23.7096 147.461 46.9042 190.381C68.1155 229.643 109.887 251.949 146.117 270.301H238.76C244.391 265.555 249.178 259.891 252.92 253.548C271.787 221.799 245.911 199.131 245.875 153.849Z" fill="white"/>
<path d="M136.036 30.0262C136.835 33.1934 136.444 27.3622 138.013 20.2227C139.582 13.0832 142.264 15.984 142.264 15.984" stroke="#263238" stroke-linecap="round" stroke-linejoin="round"/>
<path d="M135.544 22.7328L140.464 20.72" stroke="#263238" stroke-linecap="round" stroke-linejoin="round"/>
<path d="M144.531 18.3047C144.531 18.3047 141.571 24.3786 146.017 26.9656" stroke="#263238" stroke-linecap="round" stroke-linejoin="round"/>
<path d="M148.699 16.576C148.699 16.576 153.547 19.2696 150.51 25.1067" stroke="#263238" stroke-linecap="round" stroke-linejoin="round"/>
<path d="M145.372 20.3589L148.847 22.8986" stroke="#263238" stroke-linecap="round" stroke-linejoin="round"/>
<path d="M148.101 19.2459L145.377 23.5734" stroke="#263238" stroke-linecap="round" stroke-linejoin="round"/>
<path d="M42.2155 173.113C42.2155 173.113 33.969 172.994 33.9276 180.11" stroke="#263238" stroke-linecap="round" stroke-linejoin="round"/>
<path d="M41.5288 177.6C41.3571 176.552 37.7696 175.232 37.148 177.967C36.5264 180.702 40.9842 179.062 42.3635 177.784C42.3635 177.784 39.8061 180.27 40.5875 180.968" stroke="#263238" stroke-linecap="round" stroke-linejoin="round"/>
<path d="M42.032 181.744C42.032 181.744 40.9486 183.1 39.7765 182.454" stroke="#263238" stroke-linecap="round" stroke-linejoin="round"/>
<path d="M49.2485 177.008L43.0621 183.289C43.0621 183.289 46.176 180.134 47.9816 181.152C50.2312 182.383 47.3126 185.758 44.9091 183.342" stroke="#263238" stroke-linecap="round" stroke-linejoin="round"/>
<path d="M52.3742 178.701C52.3742 178.701 54.0141 186.214 45.5485 186.48" stroke="#263238" stroke-linecap="round" stroke-linejoin="round"/>
<path d="M162.818 50.989L165.801 51.4803L165.843 58.2587L172.379 46.3418L182.691 48.0349" stroke="#263238" stroke-linecap="round" stroke-linejoin="round"/>
<path d="M173.509 51.5632L178.044 59.567" stroke="#263238" stroke-linecap="round" stroke-linejoin="round"/>
<path d="M179.21 52.4986L171.094 58.4245" stroke="#263238" stroke-linecap="round" stroke-linejoin="round"/>
<path d="M122.047 63.0539C121.283 62.083 116.884 62.7757 117.778 65.8896C118.672 69.0035 122.307 64.8536 123 62.7757C123 62.7757 121.786 66.748 123 67.0144" stroke="#263238" stroke-linecap="round" stroke-linejoin="round"/>
<path d="M125.415 59.8512L124.432 63.344C124.432 63.344 124.924 61.568 125.788 61.568C126.848 61.568 126.463 63.344 125.107 62.977" stroke="#263238" stroke-linecap="round" stroke-linejoin="round"/>
<path d="M208.343 102.901L206.271 110.39L210.799 115.351" stroke="#263238" stroke-linecap="round" stroke-linejoin="round"/>
<path d="M210.936 105.944L216.121 110.284" stroke="#263238" stroke-linecap="round" stroke-linejoin="round"/>
<path d="M214.505 104.879L212.262 110.39" stroke="#263238" stroke-linecap="round" stroke-linejoin="round"/>
<path d="M218.152 109.68C218.152 109.68 218.199 111.243 217.525 111.456" stroke="#263238" stroke-linecap="round" stroke-linejoin="round"/>
<path d="M218.809 104.222L221.941 106.548" stroke="#263238" stroke-linecap="round" stroke-linejoin="round"/>
<path d="M223.101 102.309L220.011 113.439" stroke="#263238" stroke-linecap="round" stroke-linejoin="round"/>
<path d="M223.255 98.4437L228.275 104.127L226.138 110.343" stroke="#263238" stroke-linecap="round" stroke-linejoin="round"/>
<path d="M84.9994 245.094L92.2632 223.474L101.072 233.307L84.9994 245.094Z" stroke="#263238" stroke-linecap="round" stroke-linejoin="round"/>
<path d="M98.9114 234.888L97.0525 232.763L99.0357 231.046" stroke="#263238" stroke-linecap="round" stroke-linejoin="round"/>
<path d="M42.064 123.626C45.8368 122.063 47.6284 117.738 46.0657 113.965C44.5029 110.192 40.1776 108.4 36.4048 109.963C32.6321 111.526 30.8405 115.851 32.4032 119.624C33.9659 123.397 38.2912 125.188 42.064 123.626Z" stroke="#263238" stroke-linecap="round" stroke-linejoin="round"/>
<path d="M47.4369 118.524C51.9685 118.524 55.6421 114.851 55.6421 110.319C55.6421 105.788 51.9685 102.114 47.4369 102.114C42.9054 102.114 39.2318 105.788 39.2318 110.319C39.2318 114.851 42.9054 118.524 47.4369 118.524Z" stroke="#263238" stroke-linecap="round" stroke-linejoin="round"/>
<path d="M40.6882 109.544L39.6877 113.019" stroke="#263238" stroke-linecap="round" stroke-linejoin="round"/>
<path d="M42.1031 109.976L40.6882 114.984" stroke="#263238" stroke-linecap="round" stroke-linejoin="round"/>
<path d="M43.5889 110.816L42.103 116.482" stroke="#263238" stroke-linecap="round" stroke-linejoin="round"/>
<path d="M45.2406 112.48L44.181 117.855" stroke="#263238" stroke-linecap="round" stroke-linejoin="round"/>
<path d="M46.1701 114.232L45.2407 118.228" stroke="#263238" stroke-linecap="round" stroke-linejoin="round"/>
<path d="M32.1634 107.318C31.5181 107.122 29.748 108.804 31.1214 109.934C32.4949 111.065 32.8442 108.052 32.5067 106.897C32.5067 106.897 33.1994 109.07 33.8269 108.81" stroke="#263238" stroke-linecap="round" stroke-linejoin="round"/>
<path d="M41.7064 97.828L44.0744 102.138C44.0744 102.138 42.8904 99.9829 43.7251 99.1778C44.7434 98.1832 46.0931 100.285 44.3882 101.167" stroke="#263238" stroke-linecap="round" stroke-linejoin="round"/>
<path d="M84.9757 97.313L88.3205 100.48" stroke="#263238" stroke-linecap="round" stroke-linejoin="round"/>
<path d="M88.3205 96.4901L85.5203 100.67" stroke="#263238" stroke-linecap="round" stroke-linejoin="round"/>
<path d="M91.612 97.6918L94.9568 96.4427" stroke="#263238" stroke-linecap="round" stroke-linejoin="round"/>
<path d="M96.5612 92.9558L98.5976 94.7555" stroke="#263238" stroke-linecap="round" stroke-linejoin="round"/>
<path d="M100.155 90.7891L97.5793 99.6336" stroke="#263238" stroke-linecap="round" stroke-linejoin="round"/>
<path d="M246.355 89.0131L246.213 82.2525H251.322C251.322 82.2525 248.492 83.8154 249.794 87.4502C251.097 91.0851 253.192 89.0131 253.192 89.0131" stroke="#263238" stroke-linecap="round" stroke-linejoin="round"/>
<path d="M237.7 204.341L243.513 200.339L251.209 200.877L251.689 210.634L246.041 214.677L239.067 214.168L237.7 204.341Z" stroke="#263238" stroke-linecap="round" stroke-linejoin="round"/>
<path d="M239.067 214.168L244.691 210.119L251.689 210.634" stroke="#263238" stroke-linecap="round" stroke-linejoin="round"/>
<path d="M244.697 210.119L243.513 200.339" stroke="#263238" stroke-linecap="round" stroke-linejoin="round"/>
<path d="M237.7 204.341L245.378 205.229L251.209 200.877" stroke="#263238" stroke-linecap="round" stroke-linejoin="round"/>
<path d="M245.378 205.229L246.041 214.677" stroke="#263238" stroke-linecap="round" stroke-linejoin="round"/>
<path d="M238.759 131.063L238.511 144.069L249.907 138.895L238.759 131.063Z" stroke="#263238" stroke-linecap="round" stroke-linejoin="round"/>
<path d="M238.76 131.063L244.188 141.417" stroke="#263238" stroke-linecap="round" stroke-linejoin="round"/>
<path d="M243.318 139.753L244.638 139.114L245.526 140.884" stroke="#263238" stroke-linecap="round" stroke-linejoin="round"/>
<path d="M139.398 129.832L144.111 134.881" stroke="#263238" stroke-linecap="round" stroke-linejoin="round"/>
<path d="M144.146 129.151L140.186 134.573" stroke="#263238" stroke-linecap="round" stroke-linejoin="round"/>
<path d="M146.076 126.504C146.302 126.4 146.561 126.389 146.795 126.474C147.029 126.56 147.22 126.734 147.325 126.96C147.362 127.041 147.388 127.127 147.402 127.215C147.633 128.352 145.768 129.832 145.768 129.832H148.426" stroke="#263238" stroke-linecap="round" stroke-linejoin="round"/>
<path d="M66.0317 54.168C66.2573 51.2995 67.2022 48.5342 68.7791 46.1275C70.3559 43.7208 72.514 41.7503 75.0538 40.3981" stroke="#263238" stroke-linecap="round" stroke-linejoin="round"/>
<path d="M79.1208 72.224C74.8032 71.1885 71.0567 68.5161 68.672 64.7707" stroke="#263238" stroke-linecap="round" stroke-linejoin="round"/>
<path d="M100.226 56.8971C99.8602 61.4309 97.7105 65.6344 94.2486 68.5846C90.7867 71.5348 86.2955 72.9907 81.7611 72.6325" stroke="#263238" stroke-linecap="round" stroke-linejoin="round"/>
<path d="M84.4902 38.4386C88.3881 38.751 92.0626 40.3848 94.9056 43.0697C97.7487 45.7545 99.59 49.3294 100.125 53.203" stroke="#263238" stroke-linecap="round" stroke-linejoin="round"/>
<path d="M90.5286 68.7371C88.1356 70.0797 85.4227 70.7467 82.6799 70.6666C79.9372 70.5865 77.2677 69.7623 74.9572 68.2824C72.6466 66.8024 70.7817 64.7222 69.5621 62.2642C68.3424 59.8063 67.8137 57.063 68.0326 54.3279" stroke="#263238" stroke-linecap="round" stroke-linejoin="round"/>
<path d="M69.0035 50.0891C69.8001 48.0183 71.0422 46.1478 72.6418 44.6102C74.2415 43.0727 76.1596 41.9055 78.2604 41.1915C80.3611 40.4775 82.5932 40.234 84.7985 40.4783C87.0038 40.7226 89.1284 41.4487 91.0219 42.6052C92.9155 43.7617 94.5316 45.3203 95.756 47.1707C96.9803 49.0211 97.7829 51.118 98.107 53.313C98.431 55.5081 98.2685 57.7474 97.6311 59.8727C96.9936 61.9979 95.8967 63.9571 94.4181 65.6114" stroke="#263238" stroke-linecap="round" stroke-linejoin="round"/>
<path d="M81.6427 44.6427L83.1286 55.5355L91.4995 52.9307" stroke="#263238" stroke-linecap="round" stroke-linejoin="round"/>
<path d="M213.653 76.7055C211.246 76.7287 208.89 76.0203 206.895 74.6741C204.9 73.3279 203.362 71.4074 202.483 69.1671C201.604 66.9268 201.427 64.4724 201.974 62.1289C202.521 59.7855 203.768 57.6637 205.548 56.0446" stroke="#263238" stroke-linecap="round" stroke-linejoin="round"/>
<path d="M224.776 68.672C224.2 70.3733 223.243 71.9211 221.979 73.1981C220.716 74.475 219.178 75.4477 217.483 76.0424" stroke="#263238" stroke-linecap="round" stroke-linejoin="round"/>
<path d="M209.598 53.6293C212.568 52.5839 215.832 52.7613 218.672 54.1224C221.512 55.4835 223.695 57.9168 224.741 60.8872" stroke="#263238" stroke-linecap="round" stroke-linejoin="round"/>
<path d="M219.401 56.1453C220.628 56.9746 221.666 58.0546 222.445 59.3141C223.224 60.5736 223.727 61.984 223.922 63.4522C224.116 64.9204 223.997 66.4132 223.572 67.832C223.147 69.2509 222.427 70.5635 221.458 71.6835C220.489 72.8035 219.293 73.7053 217.95 74.3294C216.607 74.9536 215.147 75.2859 213.666 75.3046C212.185 75.3232 210.717 75.0277 209.358 74.4375C208 73.8473 206.782 72.9759 205.785 71.8807" stroke="#263238" stroke-linecap="round" stroke-linejoin="round"/>
<path d="M203.648 68.305C203.018 66.5122 202.887 64.5818 203.27 62.7204C203.653 60.859 204.534 59.1367 205.821 57.738C207.107 56.3392 208.749 55.3165 210.572 54.7794C212.395 54.2423 214.33 54.2111 216.169 54.689" stroke="#263238" stroke-linecap="round" stroke-linejoin="round"/>
<path d="M209.538 58.3594L213.54 64.8299L209.894 69.56" stroke="#263238" stroke-linecap="round" stroke-linejoin="round"/>
<path d="M129.648 241.791C129.642 240.238 130.017 238.707 130.739 237.332C131.462 235.958 132.51 234.781 133.792 233.905" stroke="#263238" stroke-linecap="round" stroke-linejoin="round"/>
<path d="M146.052 248.35C144.923 249.537 143.507 250.413 141.94 250.893C140.373 251.373 138.709 251.441 137.109 251.09C135.508 250.739 134.025 249.98 132.803 248.889C131.581 247.797 130.662 246.408 130.133 244.857" stroke="#263238" stroke-linecap="round" stroke-linejoin="round"/>
<path d="M139.15 232.265C141.676 232.265 144.099 233.269 145.885 235.055C147.671 236.842 148.675 239.264 148.675 241.791" stroke="#263238" stroke-linecap="round" stroke-linejoin="round"/>
<path d="M139.15 250.191C136.922 250.191 134.785 249.306 133.21 247.731C131.634 246.155 130.749 244.019 130.749 241.791" stroke="#263238" stroke-linecap="round" stroke-linejoin="round"/>
<path d="M132.608 236.516C133.387 235.554 134.368 234.776 135.483 234.237C136.597 233.698 137.817 233.412 139.054 233.399C140.292 233.386 141.517 233.647 142.642 234.162C143.768 234.677 144.765 235.435 145.564 236.38C146.363 237.326 146.943 238.436 147.263 239.632C147.583 240.828 147.635 242.079 147.415 243.297C147.195 244.515 146.709 245.67 145.992 246.678C145.274 247.687 144.343 248.524 143.264 249.131" stroke="#263238" stroke-linecap="round" stroke-linejoin="round"/>
<path d="M137.847 247.497L139.15 241.791L137.332 237.126" stroke="#263238" stroke-linecap="round" stroke-linejoin="round"/>
<path d="M28.2443 270.514H267.756" stroke="#263238" stroke-linecap="round" stroke-linejoin="round"/>
<path d="M149.77 145.679L145.869 219.958L96.4427 217.365L96.8571 209.491L100.344 143.08L131.465 144.714L149.77 145.679Z" fill="white"/>
<mask id="mask0_106_1466" style="mask-type:luminance" maskUnits="userSpaceOnUse" x="96" y="143" width="54" height="77">
<path d="M149.77 145.679L145.869 219.958L96.4427 217.365L96.8571 209.491L100.344 143.08L131.465 144.714L149.77 145.679Z" fill="white"/>
</mask>
<g mask="url(#mask0_106_1466)">
<path opacity="0.2" d="M134.343 189.197L123.207 190.115L126.457 204.139L96.8571 209.491L100.344 143.08L131.465 144.714L134.343 189.197Z" fill="black" fill-opacity="0.7"/>
</g>
<path d="M149.77 145.679L145.869 219.958L96.4427 217.365L96.8571 209.491L100.344 143.08L131.465 144.714L149.77 145.679Z" stroke="#263238" stroke-linecap="round" stroke-linejoin="round"/>
<path d="M103.831 148.16L116.695 148.835" stroke="#263238" stroke-width="2" stroke-linecap="round" stroke-linejoin="round"/>
<path d="M103.701 150.628L112.45 151.09" stroke="#263238" stroke-width="2" stroke-linecap="round" stroke-linejoin="round"/>
<path d="M106.53 156.625L143.53 158.567" stroke="#263238" stroke-width="2" stroke-linecap="round" stroke-linejoin="round"/>
<path d="M106.4 159.094L143.4 161.036" stroke="#263238" stroke-width="2" stroke-linecap="round" stroke-linejoin="round"/>
<path d="M106.252 161.977L137.806 163.629" stroke="#263238" stroke-width="2" stroke-linecap="round" stroke-linejoin="round"/>
<path d="M106.265 164.607L106.107 167.616L109.116 167.774L109.274 164.765L106.265 164.607Z" stroke="#263238" stroke-linecap="round" stroke-linejoin="round"/>
<path d="M111.719 164.896L111.561 167.905L114.57 168.063L114.729 165.054L111.719 164.896Z" stroke="#263238" stroke-linecap="round" stroke-linejoin="round"/>
<path d="M117.167 165.185L117.009 168.194L120.018 168.352L120.176 165.343L117.167 165.185Z" stroke="#263238" stroke-linecap="round" stroke-linejoin="round"/>
<path d="M122.621 165.474L122.463 168.483L125.472 168.641L125.63 165.632L122.621 165.474Z" stroke="#263238" stroke-linecap="round" stroke-linejoin="round"/>
<path d="M104.559 156.519C104.555 156.617 104.532 156.713 104.491 156.802C104.45 156.891 104.392 156.971 104.32 157.038C104.248 157.104 104.163 157.156 104.071 157.19C103.979 157.224 103.881 157.239 103.783 157.235C103.584 157.225 103.397 157.136 103.263 156.988C103.129 156.84 103.06 156.644 103.07 156.445C103.08 156.245 103.169 156.058 103.318 155.925C103.466 155.791 103.661 155.721 103.86 155.732C103.958 155.736 104.055 155.76 104.143 155.802C104.232 155.843 104.312 155.902 104.378 155.975C104.444 156.047 104.495 156.132 104.528 156.225C104.561 156.317 104.576 156.415 104.571 156.513L104.559 156.519Z" fill="#263238"/>
<path d="M105.773 171.029L142.773 172.971" stroke="#263238" stroke-width="2" stroke-linecap="round" stroke-linejoin="round"/>
<path d="M105.642 173.497L142.642 175.439" stroke="#263238" stroke-width="2" stroke-linecap="round" stroke-linejoin="round"/>
<path d="M105.494 176.38L137.048 178.032" stroke="#263238" stroke-width="2" stroke-linecap="round" stroke-linejoin="round"/>
<path d="M105.501 179.02L105.343 182.029L108.352 182.187L108.51 179.178L105.501 179.02Z" stroke="#263238" stroke-linecap="round" stroke-linejoin="round"/>
<path d="M110.961 179.303L110.803 182.312L113.812 182.47L113.97 179.461L110.961 179.303Z" stroke="#263238" stroke-linecap="round" stroke-linejoin="round"/>
<path d="M116.409 179.586L116.251 182.595L119.26 182.753L119.418 179.744L116.409 179.586Z" stroke="#263238" stroke-linecap="round" stroke-linejoin="round"/>
<path d="M121.857 179.875L121.699 182.884L124.708 183.042L124.866 180.033L121.857 179.875Z" stroke="#263238" stroke-linecap="round" stroke-linejoin="round"/>
<path d="M103.807 170.922C103.803 171.021 103.779 171.118 103.737 171.207C103.695 171.297 103.635 171.377 103.562 171.444C103.489 171.51 103.403 171.562 103.31 171.595C103.217 171.629 103.119 171.643 103.02 171.639C102.87 171.631 102.726 171.58 102.606 171.491C102.485 171.402 102.394 171.279 102.343 171.138C102.292 170.997 102.285 170.844 102.321 170.699C102.357 170.554 102.435 170.422 102.546 170.321C102.657 170.22 102.795 170.155 102.943 170.132C103.091 170.11 103.243 170.132 103.378 170.196C103.514 170.259 103.628 170.362 103.705 170.49C103.782 170.618 103.82 170.767 103.813 170.916L103.807 170.922Z" fill="#263238"/>
<path d="M105.021 185.432L142.015 187.374" stroke="#263238" stroke-width="2" stroke-linecap="round" stroke-linejoin="round"/>
<path d="M104.891 187.901L141.885 189.843" stroke="#263238" stroke-width="2" stroke-linecap="round" stroke-linejoin="round"/>
<path d="M104.737 190.778L136.29 192.436" stroke="#263238" stroke-width="2" stroke-linecap="round" stroke-linejoin="round"/>
<path d="M104.749 193.414L104.591 196.423L107.6 196.582L107.758 193.573L104.749 193.414Z" stroke="#263238" stroke-linecap="round" stroke-linejoin="round"/>
<path d="M110.842 193.685L110.691 196.701L113.706 196.851L113.857 193.836L110.842 193.685Z" stroke="#263238" stroke-width="1.00125" stroke-linecap="round" stroke-linejoin="round"/>
<path d="M115.651 193.993L115.493 197.002L118.502 197.16L118.66 194.151L115.651 193.993Z" stroke="#263238" stroke-linecap="round" stroke-linejoin="round"/>
<path d="M121.111 194.275L120.953 197.284L123.962 197.443L124.12 194.433L121.111 194.275Z" stroke="#263238" stroke-linecap="round" stroke-linejoin="round"/>
<path d="M103.049 185.326C103.045 185.424 103.021 185.521 102.979 185.611C102.937 185.7 102.877 185.781 102.804 185.847C102.731 185.914 102.646 185.965 102.553 185.999C102.46 186.032 102.361 186.047 102.262 186.042C102.061 186.042 101.868 185.962 101.726 185.82C101.584 185.678 101.504 185.485 101.504 185.284C101.504 185.083 101.584 184.89 101.726 184.748C101.868 184.606 102.061 184.526 102.262 184.526H102.369C102.467 184.531 102.564 184.555 102.654 184.597C102.743 184.639 102.824 184.698 102.89 184.771C102.957 184.845 103.008 184.93 103.042 185.023C103.075 185.116 103.09 185.215 103.085 185.314L103.049 185.326Z" fill="#263238"/>
<path d="M104.239 200.244L141.233 202.192" stroke="#263238" stroke-width="2" stroke-linecap="round" stroke-linejoin="round"/>
<path d="M104.109 202.713L141.109 204.66" stroke="#263238" stroke-width="2" stroke-linecap="round" stroke-linejoin="round"/>
<path d="M103.961 205.596L135.515 207.253" stroke="#263238" stroke-width="2" stroke-linecap="round" stroke-linejoin="round"/>
<path d="M103.965 208.234L103.806 211.243L106.815 211.401L106.974 208.392L103.965 208.234Z" stroke="#263238" stroke-linecap="round" stroke-linejoin="round"/>
<path d="M109.426 208.517L109.267 211.526L112.276 211.684L112.435 208.675L109.426 208.517Z" stroke="#263238" stroke-linecap="round" stroke-linejoin="round"/>
<path d="M114.885 208.8L114.727 211.809L117.736 211.967L117.895 208.958L114.885 208.8Z" stroke="#263238" stroke-linecap="round" stroke-linejoin="round"/>
<path d="M120.334 209.095L120.175 212.104L123.184 212.262L123.343 209.253L120.334 209.095Z" stroke="#263238" stroke-linecap="round" stroke-linejoin="round"/>
<path d="M102.268 200.143C102.26 200.292 102.207 200.434 102.118 200.553C102.029 200.672 101.906 200.761 101.766 200.81C101.626 200.86 101.474 200.866 101.33 200.829C101.186 200.792 101.056 200.713 100.957 200.602C100.858 200.492 100.794 200.354 100.773 200.207C100.752 200.06 100.775 199.91 100.839 199.776C100.904 199.642 101.006 199.53 101.134 199.454C101.262 199.378 101.409 199.342 101.558 199.35C101.656 199.355 101.753 199.38 101.842 199.423C101.932 199.466 102.011 199.526 102.077 199.599C102.143 199.673 102.194 199.759 102.227 199.852C102.26 199.946 102.274 200.045 102.268 200.143Z" fill="#263238"/>
<path d="M107.288 165.861L107.679 166.536L109.283 164.765" stroke="#263238" stroke-width="2" stroke-linecap="round" stroke-linejoin="round"/>
<path d="M117.447 180.655L117.838 181.33L119.442 179.56" stroke="#263238" stroke-width="2" stroke-linecap="round" stroke-linejoin="round"/>
<path d="M122.544 195.857L122.935 196.532L124.539 194.756" stroke="#263238" stroke-width="2" stroke-linecap="round" stroke-linejoin="round"/>
<path d="M110.467 209.426L110.858 210.095L112.462 208.325" stroke="#263238" stroke-width="2" stroke-linecap="round" stroke-linejoin="round"/>
<path d="M116.926 198.936L69.2403 212.191L49.3254 140.517L69.0686 135.029L97.011 127.268L115.079 192.293L116.926 198.936Z" fill="white"/>
<mask id="mask1_106_1466" style="mask-type:luminance" maskUnits="userSpaceOnUse" x="49" y="127" width="68" height="86">
<path d="M116.926 198.936L69.2403 212.191L49.3254 140.517L69.0686 135.029L97.011 127.268L115.079 192.293L116.926 198.936Z" fill="white"/>
</mask>
<g mask="url(#mask1_106_1466)">
<path opacity="0.2" d="M115.079 192.293L78.2091 194.679L69.0687 135.029L97.0111 127.268L115.079 192.293Z" fill="black" fill-opacity="0.7"/>
</g>
<path d="M116.926 198.936L69.2403 212.191L49.3254 140.517L69.0686 135.029L97.011 127.268L115.079 192.293L116.926 198.936Z" stroke="#263238" stroke-linecap="round" stroke-linejoin="round"/>
<path d="M54.2509 144.223L66.6592 140.778" stroke="#263238" stroke-width="2" stroke-linecap="round" stroke-linejoin="round"/>
<path d="M54.908 146.609L63.3499 144.264" stroke="#263238" stroke-width="2" stroke-linecap="round" stroke-linejoin="round"/>
<path d="M59.496 151.392L95.1936 141.476" stroke="#263238" stroke-width="2" stroke-linecap="round" stroke-linejoin="round"/>
<path d="M60.1591 153.772L95.8567 143.856" stroke="#263238" stroke-width="2" stroke-linecap="round" stroke-linejoin="round"/>
<path d="M60.9286 156.554L91.3752 148.095" stroke="#263238" stroke-width="2" stroke-linecap="round" stroke-linejoin="round"/>
<path d="M64.6909 158.238L61.7876 159.045L62.5944 161.949L65.4976 161.142L64.6909 158.238Z" stroke="#263238" stroke-linecap="round" stroke-linejoin="round"/>
<path d="M69.9546 156.77L67.0513 157.577L67.8581 160.481L70.7614 159.674L69.9546 156.77Z" stroke="#263238" stroke-linecap="round" stroke-linejoin="round"/>
<path d="M75.2197 155.307L72.3164 156.113L73.1232 159.017L76.0265 158.21L75.2197 155.307Z" stroke="#263238" stroke-linecap="round" stroke-linejoin="round"/>
<path d="M80.4752 153.847L77.5719 154.654L78.3787 157.557L81.282 156.751L80.4752 153.847Z" stroke="#263238" stroke-linecap="round" stroke-linejoin="round"/>
<path d="M57.5957 151.919C57.6491 152.111 57.6239 152.317 57.5256 152.491C57.4273 152.665 57.2641 152.792 57.0718 152.845C56.8794 152.899 56.6738 152.874 56.5 152.775C56.3263 152.677 56.1987 152.514 56.1453 152.322C56.0919 152.129 56.1171 151.924 56.2154 151.75C56.3136 151.576 56.4769 151.448 56.6692 151.395C56.8615 151.342 57.0672 151.367 57.2409 151.465C57.4147 151.563 57.5423 151.727 57.5957 151.919Z" fill="#263238"/>
<path d="M63.3558 165.286L99.0534 155.37" stroke="#263238" stroke-width="2" stroke-linecap="round" stroke-linejoin="round"/>
<path d="M64.0189 167.672L99.7165 157.75" stroke="#263238" stroke-width="2" stroke-linecap="round" stroke-linejoin="round"/>
<path d="M64.7944 170.449L95.235 161.989" stroke="#263238" stroke-width="2" stroke-linecap="round" stroke-linejoin="round"/>
<path d="M68.554 172.13L65.6507 172.936L66.4575 175.84L69.3607 175.033L68.554 172.13Z" stroke="#263238" stroke-linecap="round" stroke-linejoin="round"/>
<path d="M73.8135 170.669L70.9103 171.476L71.7171 174.379L74.6203 173.572L73.8135 170.669Z" stroke="#263238" stroke-linecap="round" stroke-linejoin="round"/>
<path d="M79.0789 169.207L76.1756 170.013L76.9824 172.917L79.8857 172.11L79.0789 169.207Z" stroke="#263238" stroke-linecap="round" stroke-linejoin="round"/>
<path d="M84.3483 167.737L81.4451 168.544L82.2519 171.447L85.1551 170.64L84.3483 167.737Z" stroke="#263238" stroke-linecap="round" stroke-linejoin="round"/>
<path d="M61.4615 165.819C61.5015 165.964 61.4979 166.116 61.451 166.259C61.4042 166.401 61.3163 166.526 61.1984 166.618C61.0805 166.711 60.9378 166.766 60.7885 166.777C60.6392 166.789 60.4899 166.755 60.3594 166.682C60.2289 166.609 60.1231 166.498 60.0554 166.364C59.9877 166.231 59.9611 166.08 59.9789 165.932C59.9967 165.783 60.0582 165.643 60.1556 165.529C60.253 165.415 60.3819 165.333 60.5261 165.292C60.6213 165.265 60.721 165.257 60.8193 165.269C60.9176 165.28 61.0127 165.311 61.099 165.36C61.1854 165.408 61.2613 165.473 61.3225 165.551C61.3837 165.629 61.4289 165.718 61.4555 165.813L61.4615 165.819Z" fill="#263238"/>
<path d="M67.2216 179.187L102.913 169.265" stroke="#263238" stroke-width="2" stroke-linecap="round" stroke-linejoin="round"/>
<path d="M67.8846 181.566L103.576 171.65" stroke="#263238" stroke-width="2" stroke-linecap="round" stroke-linejoin="round"/>
<path d="M68.6542 184.349L99.1008 175.889" stroke="#263238" stroke-width="2" stroke-linecap="round" stroke-linejoin="round"/>
<path d="M72.4116 186.024L69.5083 186.831L70.3151 189.734L73.2183 188.927L72.4116 186.024Z" stroke="#263238" stroke-linecap="round" stroke-linejoin="round"/>
<path d="M77.6826 184.56L74.7793 185.367L75.5861 188.27L78.4893 187.463L77.6826 184.56Z" stroke="#263238" stroke-linecap="round" stroke-linejoin="round"/>
<path d="M82.9363 183.099L80.033 183.906L80.8398 186.809L83.7431 186.003L82.9363 183.099Z" stroke="#263238" stroke-linecap="round" stroke-linejoin="round"/>
<path d="M88.2016 181.637L85.2983 182.444L86.1051 185.347L89.0084 184.54L88.2016 181.637Z" stroke="#263238" stroke-linecap="round" stroke-linejoin="round"/>
<path d="M65.3213 179.713C65.3613 179.858 65.3577 180.011 65.3108 180.153C65.264 180.295 65.1761 180.42 65.0582 180.513C64.9403 180.605 64.7976 180.66 64.6483 180.672C64.499 180.683 64.3497 180.65 64.2192 180.576C64.0887 180.503 63.9829 180.392 63.9152 180.259C63.8475 180.125 63.8209 179.974 63.8387 179.826C63.8565 179.677 63.918 179.537 64.0154 179.423C64.1128 179.309 64.2417 179.227 64.3859 179.187C64.4811 179.16 64.5808 179.152 64.6791 179.163C64.7774 179.175 64.8725 179.206 64.9588 179.254C65.0452 179.302 65.1211 179.367 65.1823 179.445C65.2435 179.523 65.2887 179.612 65.3153 179.708L65.3213 179.713Z" fill="#263238"/>
<path d="M71.1939 193.477L106.886 183.561" stroke="#263238" stroke-width="2" stroke-linecap="round" stroke-linejoin="round"/>
<path d="M71.851 195.863L107.549 185.941" stroke="#263238" stroke-width="2" stroke-linecap="round" stroke-linejoin="round"/>
<path d="M72.6266 198.64L103.073 190.18" stroke="#263238" stroke-width="2" stroke-linecap="round" stroke-linejoin="round"/>
<path d="M76.3845 200.322L73.4812 201.129L74.288 204.032L77.1913 203.225L76.3845 200.322Z" stroke="#263238" stroke-linecap="round" stroke-linejoin="round"/>
<path d="M81.6496 198.858L78.7463 199.665L79.5531 202.568L82.4564 201.761L81.6496 198.858Z" stroke="#263238" stroke-linecap="round" stroke-linejoin="round"/>
<path d="M86.9149 197.396L84.0117 198.202L84.8184 201.106L87.7217 200.299L86.9149 197.396Z" stroke="#263238" stroke-linecap="round" stroke-linejoin="round"/>
<path d="M92.1745 195.935L89.2712 196.742L90.078 199.645L92.9813 198.838L92.1745 195.935Z" stroke="#263238" stroke-linecap="round" stroke-linejoin="round"/>
<path d="M69.2936 194.004C69.3493 194.197 69.3261 194.405 69.2289 194.581C69.1318 194.757 68.9687 194.887 68.7756 194.943C68.5825 194.998 68.3751 194.975 68.1991 194.878C68.0232 194.781 67.893 194.618 67.8373 194.425C67.7823 194.231 67.8063 194.023 67.9039 193.847C68.0014 193.67 68.1648 193.54 68.3582 193.483C68.5497 193.43 68.7545 193.454 68.9283 193.551C69.1022 193.647 69.2313 193.808 69.2877 193.998L69.2936 194.004Z" fill="#263238"/>
<path d="M68.1037 158.526L68.6898 159.041L69.6488 156.85" stroke="#263238" stroke-width="2" stroke-linecap="round" stroke-linejoin="round"/>
<path d="M66.6769 174.03L67.263 174.545L68.2161 172.355" stroke="#263238" stroke-width="2" stroke-linecap="round" stroke-linejoin="round"/>
<path d="M70.5368 187.782L71.1229 188.297L72.076 186.107" stroke="#263238" stroke-width="2" stroke-linecap="round" stroke-linejoin="round"/>
<path d="M85.023 199.048L85.6091 199.563L86.5681 197.373" stroke="#263238" stroke-width="2" stroke-linecap="round" stroke-linejoin="round"/>
<path d="M121.583 110.712L72.3184 115.447L79.435 189.49L128.699 184.755L121.583 110.712Z" fill="white" stroke="#263238" stroke-linecap="round" stroke-linejoin="round"/>
<path d="M76.516 119.963L89.3387 118.732" stroke="#263238" stroke-width="2" stroke-linecap="round" stroke-linejoin="round"/>
<path d="M76.7528 122.426L85.473 121.585" stroke="#263238" stroke-width="2" stroke-linecap="round" stroke-linejoin="round"/>
<path d="M80.4351 127.937L117.311 124.391" stroke="#263238" stroke-width="2" stroke-linecap="round" stroke-linejoin="round"/>
<path d="M80.6719 130.394L117.548 126.854" stroke="#263238" stroke-width="2" stroke-linecap="round" stroke-linejoin="round"/>
<path d="M80.9501 133.265L112.403 130.246" stroke="#263238" stroke-width="2" stroke-linecap="round" stroke-linejoin="round"/>
<path d="M84.3641 135.574L81.3647 135.862L81.653 138.862L84.6524 138.574L84.3641 135.574Z" stroke="#263238" stroke-linecap="round" stroke-linejoin="round"/>
<path d="M89.8008 135.05L86.8014 135.338L87.0897 138.338L90.0891 138.05L89.8008 135.05Z" stroke="#263238" stroke-linecap="round" stroke-linejoin="round"/>
<path d="M95.2376 134.533L92.2382 134.821L92.5264 137.82L95.5259 137.532L95.2376 134.533Z" stroke="#263238" stroke-linecap="round" stroke-linejoin="round"/>
<path d="M100.674 134.003L97.6743 134.291L97.9626 137.291L100.962 137.003L100.674 134.003Z" stroke="#263238" stroke-linecap="round" stroke-linejoin="round"/>
<path d="M78.4755 128.127C78.49 128.276 78.46 128.426 78.3892 128.558C78.3184 128.69 78.2101 128.798 78.0779 128.868C77.9458 128.939 77.7956 128.969 77.6465 128.954C77.4975 128.939 77.3561 128.88 77.2403 128.785C77.1246 128.69 77.0396 128.563 76.9961 128.42C76.9527 128.276 76.9527 128.123 76.9962 127.98C77.0397 127.837 77.1247 127.709 77.2405 127.614C77.3563 127.519 77.4976 127.461 77.6467 127.446C77.7451 127.436 77.8444 127.446 77.939 127.474C78.0336 127.503 78.1217 127.55 78.1981 127.613C78.2745 127.675 78.3379 127.752 78.3845 127.84C78.431 127.927 78.46 128.022 78.4696 128.121L78.4755 128.127Z" fill="#263238"/>
<path d="M81.8144 142.293L118.69 138.753" stroke="#263238" stroke-width="2" stroke-linecap="round" stroke-linejoin="round"/>
<path d="M82.0512 144.756L118.927 141.21" stroke="#263238" stroke-width="2" stroke-linecap="round" stroke-linejoin="round"/>
<path d="M82.3295 147.627L113.782 144.602" stroke="#263238" stroke-width="2" stroke-linecap="round" stroke-linejoin="round"/>
<path d="M85.7431 149.928L82.7437 150.216L83.0319 153.215L86.0314 152.927L85.7431 149.928Z" stroke="#263238" stroke-linecap="round" stroke-linejoin="round"/>
<path d="M91.1799 149.41L88.1804 149.698L88.4687 152.697L91.4682 152.409L91.1799 149.41Z" stroke="#263238" stroke-linecap="round" stroke-linejoin="round"/>
<path d="M96.6166 148.886L93.6171 149.174L93.9054 152.174L96.9049 151.886L96.6166 148.886Z" stroke="#263238" stroke-linecap="round" stroke-linejoin="round"/>
<path d="M102.054 148.374L99.0544 148.663L99.3427 151.662L102.342 151.374L102.054 148.374Z" stroke="#263238" stroke-linecap="round" stroke-linejoin="round"/>
<path d="M79.8549 142.483C79.8694 142.632 79.8393 142.782 79.7686 142.914C79.6978 143.046 79.5895 143.154 79.4573 143.224C79.3251 143.295 79.175 143.325 79.0259 143.31C78.8768 143.295 78.7354 143.236 78.6197 143.141C78.5039 143.046 78.4189 142.919 78.3755 142.776C78.332 142.632 78.332 142.479 78.3755 142.336C78.419 142.192 78.504 142.065 78.6198 141.97C78.7356 141.875 78.877 141.816 79.0261 141.802C79.1252 141.792 79.2253 141.802 79.3206 141.831C79.416 141.86 79.5047 141.907 79.5816 141.97C79.6586 142.034 79.7224 142.111 79.7693 142.199C79.8161 142.287 79.8452 142.383 79.8549 142.483Z" fill="#263238"/>
<path d="M83.1937 156.649L120.069 153.109" stroke="#263238" stroke-width="2" stroke-linecap="round" stroke-linejoin="round"/>
<path d="M83.4305 159.112L120.306 155.566" stroke="#263238" stroke-width="2" stroke-linecap="round" stroke-linejoin="round"/>
<path d="M83.7088 161.983L115.162 158.958" stroke="#263238" stroke-width="2" stroke-linecap="round" stroke-linejoin="round"/>
<path d="M87.1221 164.287L84.1227 164.575L84.411 167.575L87.4104 167.287L87.1221 164.287Z" stroke="#263238" stroke-linecap="round" stroke-linejoin="round"/>
<path d="M92.5589 163.764L89.5594 164.052L89.8477 167.051L92.8471 166.763L92.5589 163.764Z" stroke="#263238" stroke-linecap="round" stroke-linejoin="round"/>
<path d="M97.9955 163.246L94.9961 163.534L95.2844 166.533L98.2838 166.245L97.9955 163.246Z" stroke="#263238" stroke-linecap="round" stroke-linejoin="round"/>
<path d="M103.432 162.722L100.433 163.01L100.721 166.01L103.721 165.722L103.432 162.722Z" stroke="#263238" stroke-linecap="round" stroke-linejoin="round"/>
<path d="M81.2283 156.839C81.2418 156.987 81.211 157.135 81.1399 157.266C81.0688 157.397 80.9606 157.503 80.8289 157.572C80.6973 157.641 80.5481 157.67 80.4002 157.654C80.2524 157.638 80.1125 157.579 79.9982 157.484C79.884 157.389 79.8006 157.262 79.7585 157.119C79.7164 156.977 79.7175 156.825 79.7617 156.683C79.806 156.541 79.8913 156.415 80.0069 156.322C80.1225 156.228 80.2633 156.171 80.4114 156.158C80.5097 156.149 80.6089 156.159 80.7032 156.189C80.7974 156.218 80.885 156.266 80.9609 156.329C81.0367 156.392 81.0994 156.47 81.1453 156.557C81.1912 156.645 81.2194 156.74 81.2283 156.839Z" fill="#263238"/>
<path d="M84.6146 171.42L121.49 167.873" stroke="#263238" stroke-width="2" stroke-linecap="round" stroke-linejoin="round"/>
<path d="M84.8514 173.876L121.727 170.336" stroke="#263238" stroke-width="2" stroke-linecap="round" stroke-linejoin="round"/>
<path d="M85.1237 176.748L116.577 173.728" stroke="#263238" stroke-width="2" stroke-linecap="round" stroke-linejoin="round"/>
<path d="M88.5405 179.055L85.5411 179.343L85.8294 182.343L88.8288 182.055L88.5405 179.055Z" stroke="#263238" stroke-linecap="round" stroke-linejoin="round"/>
<path d="M93.9832 178.537L90.9837 178.825L91.272 181.825L94.2714 181.536L93.9832 178.537Z" stroke="#263238" stroke-linecap="round" stroke-linejoin="round"/>
<path d="M99.4135 178.008L96.414 178.296L96.7023 181.296L99.7017 181.008L99.4135 178.008Z" stroke="#263238" stroke-linecap="round" stroke-linejoin="round"/>
<path d="M104.85 177.484L101.851 177.772L102.139 180.772L105.138 180.484L104.85 177.484Z" stroke="#263238" stroke-linecap="round" stroke-linejoin="round"/>
<path d="M82.6491 171.603C82.6649 171.753 82.6359 171.903 82.5658 172.036C82.4957 172.169 82.3876 172.278 82.2553 172.35C82.123 172.421 81.9725 172.451 81.8228 172.437C81.6732 172.423 81.5313 172.364 81.415 172.269C81.2988 172.173 81.2136 172.046 81.1701 171.902C81.1267 171.758 81.1271 171.604 81.1711 171.461C81.2152 171.317 81.301 171.189 81.4177 171.095C81.5344 171 81.6766 170.942 81.8263 170.928C81.9246 170.918 82.0239 170.928 82.1186 170.957C82.2132 170.985 82.3012 171.032 82.3776 171.095C82.4541 171.158 82.5174 171.235 82.564 171.322C82.6106 171.409 82.6395 171.505 82.6491 171.603Z" fill="#263238"/>
<path d="M82.5485 136.959L83.0339 137.569L84.36 135.58" stroke="#263238" stroke-width="2" stroke-linecap="round" stroke-linejoin="round"/>
<path d="M94.7851 150.09L95.2705 150.7L96.5907 148.71" stroke="#263238" stroke-width="2" stroke-linecap="round" stroke-linejoin="round"/>
<path d="M90.7536 165.269L91.239 165.878L92.5651 163.889" stroke="#263238" stroke-width="2" stroke-linecap="round" stroke-linejoin="round"/>
<path d="M102.967 178.879L103.452 179.488L104.778 177.499" stroke="#263238" stroke-width="2" stroke-linecap="round" stroke-linejoin="round"/>
<path d="M181.833 81.5243H151.244C150.164 81.5243 149.128 81.9534 148.364 82.7173C147.6 83.4811 147.171 84.5171 147.171 85.5973V111.888C147.171 112.968 147.6 114.004 148.364 114.768C149.128 115.532 150.164 115.961 151.244 115.961H164.801L172.568 125.32L170.62 115.961H181.833C182.91 115.956 183.941 115.525 184.701 114.762C185.461 113.998 185.888 112.965 185.888 111.888V85.5973C185.888 84.5201 185.461 83.4868 184.701 82.7235C183.941 81.9602 182.91 81.529 181.833 81.5243Z" fill="white" stroke="#263238" stroke-linecap="round" stroke-linejoin="round"/>
<path d="M168.986 95.9454V93.163L166.903 92.9854C166.778 92.5511 166.605 92.1321 166.388 91.7363L167.731 90.1379L165.76 88.1725L164.162 89.5163C163.768 89.295 163.348 89.122 162.913 89.0013L162.735 86.9174H159.953L159.775 89.0013C159.339 89.122 158.92 89.295 158.526 89.5163L156.927 88.1725L154.956 90.1379L156.288 91.76C156.067 92.1551 155.892 92.5742 155.767 93.0091L153.683 93.1867V95.9691L155.767 96.1526C155.892 96.5876 156.067 97.0067 156.288 97.4018L154.938 99.0002L156.91 100.966L158.508 99.6218C158.902 99.8431 159.322 100.016 159.757 100.137L159.935 102.221H162.717L162.895 100.137C163.33 100.016 163.75 99.8431 164.144 99.6218L165.742 100.966L167.714 99.0002L166.37 97.4018C166.588 97.006 166.76 96.587 166.885 96.1526L168.986 95.9454ZM161.344 97.7925C160.703 97.7937 160.077 97.6049 159.544 97.25C159.01 96.8952 158.594 96.3902 158.348 95.7989C158.102 95.2077 158.037 94.5567 158.161 93.9283C158.284 93.2999 158.592 92.7224 159.044 92.2687C159.496 91.815 160.072 91.5055 160.7 91.3794C161.328 91.2533 161.979 91.3162 162.572 91.5602C163.164 91.8043 163.67 92.2184 164.027 92.7503C164.384 93.2821 164.575 93.9079 164.576 94.5483C164.578 94.973 164.495 95.3938 164.334 95.7867C164.172 96.1795 163.935 96.5365 163.635 96.8374C163.335 97.1382 162.979 97.377 162.587 97.5398C162.195 97.7027 161.774 97.7866 161.35 97.7866L161.344 97.7925Z" fill="#0866FF"/>
<path d="M178.192 102.156V100.178L176.706 100.048C176.62 99.7384 176.496 99.4402 176.339 99.16L177.298 98.0234L175.901 96.6262L174.758 97.5794C174.477 97.4243 174.179 97.3012 173.87 97.2123L173.746 95.7323H171.763L171.639 97.2123C171.328 97.3012 171.028 97.4243 170.745 97.5794L169.608 96.6262L168.211 98.0234L169.164 99.16C169.008 99.4404 168.887 99.7386 168.803 100.048L167.317 100.178V102.156L168.803 102.286C168.887 102.595 169.008 102.893 169.164 103.174L168.211 104.31L169.608 105.713L170.745 104.754C171.026 104.914 171.326 105.038 171.639 105.121L171.763 106.607H173.746L173.87 105.121C174.181 105.038 174.479 104.914 174.758 104.754L175.901 105.713L177.298 104.31L176.339 103.174C176.499 102.895 176.622 102.596 176.706 102.286L178.192 102.156ZM172.752 103.47C172.296 103.47 171.851 103.335 171.472 103.082C171.093 102.829 170.798 102.469 170.624 102.048C170.45 101.627 170.404 101.164 170.493 100.718C170.582 100.271 170.801 99.8606 171.123 99.5385C171.445 99.2164 171.856 98.9971 172.302 98.9083C172.749 98.8194 173.212 98.865 173.633 99.0393C174.054 99.2136 174.413 99.5088 174.666 99.8875C174.919 100.266 175.054 100.711 175.054 101.167C175.054 101.778 174.812 102.363 174.38 102.795C173.948 103.227 173.362 103.47 172.752 103.47Z" fill="#0866FF"/>
<path d="M168.507 106.767V105.376L167.447 105.281C167.387 105.06 167.299 104.848 167.187 104.648L167.868 103.843L166.873 102.842L166.062 103.523C165.862 103.416 165.652 103.328 165.434 103.263L165.34 102.209H163.931L163.842 103.263C163.622 103.326 163.409 103.413 163.209 103.523L162.397 102.842L161.403 103.843L162.084 104.648C161.974 104.849 161.886 105.061 161.823 105.281L160.769 105.376V106.779L161.823 106.874C161.886 107.094 161.974 107.306 162.084 107.507L161.403 108.336L162.397 109.336L163.209 108.656C163.411 108.763 163.623 108.85 163.842 108.916L163.931 109.97H165.34L165.434 108.916C165.652 108.85 165.862 108.763 166.062 108.656L166.873 109.336L167.868 108.336L167.187 107.531C167.299 107.331 167.387 107.118 167.447 106.897L168.507 106.767ZM164.635 107.703C164.311 107.703 163.994 107.606 163.724 107.426C163.455 107.246 163.244 106.99 163.12 106.69C162.996 106.391 162.964 106.061 163.027 105.743C163.09 105.425 163.246 105.133 163.476 104.903C163.705 104.674 163.997 104.518 164.315 104.454C164.633 104.391 164.963 104.424 165.263 104.548C165.562 104.672 165.819 104.882 165.999 105.152C166.179 105.421 166.275 105.738 166.275 106.063C166.273 106.497 166.1 106.912 165.793 107.218C165.485 107.525 165.069 107.697 164.635 107.697V107.703Z" fill="#0866FF"/>
<path d="M165.719 182.555L189.564 270.514H193.128L169.288 182.555H165.719Z" fill="#757575" stroke="#263238" stroke-linecap="round" stroke-linejoin="round"/>
<path d="M219.425 245.579H174.226V249.262H219.425V245.579Z" fill="#999999" stroke="#263238" stroke-linecap="round" stroke-linejoin="round"/>
<path d="M243.537 162.8L214.334 270.544H210.782L239.979 162.8C241.056 158.828 238.588 155.595 234.473 155.595H209.313C205.205 155.595 200.978 158.828 199.901 162.8L170.691 270.544H167.139L196.343 162.8C197.935 156.921 204.163 152.144 210.249 152.144H235.415C241.483 152.144 245.129 156.916 243.537 162.8Z" fill="#757575" stroke="#263238" stroke-linecap="round" stroke-linejoin="round"/>
<path d="M243.999 162.83L236.753 189.576C236.403 190.702 235.714 191.692 234.779 192.41C233.844 193.128 232.709 193.538 231.531 193.584H190.186C189.687 193.623 189.187 193.537 188.73 193.333C188.274 193.129 187.875 192.814 187.572 192.417C187.268 192.02 187.069 191.553 186.992 191.058C186.915 190.564 186.963 190.059 187.131 189.588L194.383 162.841C194.735 161.718 195.426 160.731 196.361 160.016C197.295 159.301 198.428 158.892 199.605 158.845H240.944C241.338 158.817 241.734 158.867 242.109 158.992C242.484 159.117 242.831 159.314 243.129 159.573C243.428 159.832 243.672 160.148 243.849 160.501C244.026 160.855 244.131 161.24 244.159 161.634C244.185 162.039 244.131 162.446 243.999 162.83Z" fill="#0866FF"/>
<mask id="mask2_106_1466" style="mask-type:luminance" maskUnits="userSpaceOnUse" x="186" y="158" width="59" height="36">
<path d="M243.999 162.83L236.753 189.576C236.403 190.702 235.714 191.692 234.779 192.41C233.844 193.128 232.709 193.538 231.531 193.584H190.186C189.687 193.623 189.187 193.537 188.73 193.333C188.274 193.129 187.875 192.814 187.572 192.417C187.268 192.02 187.069 191.553 186.992 191.058C186.915 190.564 186.963 190.059 187.131 189.588L194.383 162.841C194.735 161.718 195.426 160.731 196.361 160.016C197.295 159.301 198.428 158.892 199.605 158.845H240.944C241.338 158.817 241.734 158.867 242.109 158.992C242.484 159.117 242.831 159.314 243.129 159.573C243.428 159.832 243.672 160.148 243.849 160.501C244.026 160.855 244.131 161.24 244.159 161.634C244.185 162.039 244.131 162.446 243.999 162.83Z" fill="white"/>
</mask>
<g mask="url(#mask2_106_1466)">
<path opacity="0.2" d="M243.999 162.829L236.753 189.576C236.403 190.702 235.714 191.692 234.779 192.41C233.844 193.127 232.709 193.537 231.531 193.584H190.186C189.687 193.623 189.187 193.537 188.73 193.333C188.274 193.129 187.875 192.814 187.572 192.417C187.268 192.019 187.069 191.552 186.992 191.058C186.915 190.564 186.963 190.059 187.131 189.588L194.383 162.841C194.735 161.718 195.426 160.731 196.361 160.016C197.295 159.3 198.428 158.891 199.605 158.845H220.982C230.223 168.317 229.045 185.775 228.441 191.044C229.405 190.812 230.294 190.334 231.019 189.658C231.745 188.982 232.285 188.13 232.585 187.184L239.819 160.432C239.967 159.914 239.997 159.37 239.908 158.839H240.944C241.441 158.804 241.939 158.892 242.393 159.097C242.848 159.301 243.244 159.615 243.547 160.011C243.85 160.406 244.05 160.871 244.129 161.363C244.207 161.855 244.163 162.359 243.999 162.829Z" fill="black" fill-opacity="0.7"/>
</g>
<path d="M243.999 162.83L236.753 189.576C236.403 190.702 235.714 191.692 234.779 192.41C233.844 193.128 232.709 193.538 231.531 193.584H190.186C189.687 193.623 189.187 193.537 188.73 193.333C188.274 193.129 187.875 192.814 187.572 192.417C187.268 192.02 187.069 191.553 186.992 191.058C186.915 190.564 186.963 190.059 187.131 189.588L194.383 162.841C194.735 161.718 195.426 160.731 196.361 160.016C197.295 159.301 198.428 158.892 199.605 158.845H240.944C241.338 158.817 241.734 158.867 242.109 158.992C242.484 159.117 242.831 159.314 243.129 159.573C243.428 159.832 243.672 160.148 243.849 160.501C244.026 160.855 244.131 161.24 244.159 161.634C244.185 162.039 244.131 162.446 243.999 162.83Z" stroke="#263238" stroke-linecap="round" stroke-linejoin="round"/>
<path d="M219.691 220.644L233.212 270.514H236.776L223.261 220.644H219.691Z" fill="#757575" stroke="#263238" stroke-linecap="round" stroke-linejoin="round"/>
<path d="M223.273 214.896V219.774H170.04V214.896C170.04 213.945 170.418 213.032 171.091 212.359C171.764 211.686 172.676 211.308 173.628 211.308H219.679C220.151 211.307 220.619 211.399 221.055 211.578C221.491 211.758 221.888 212.022 222.222 212.355C222.556 212.689 222.82 213.085 223.001 213.521C223.181 213.957 223.274 214.424 223.273 214.896Z" fill="#0866FF"/>
<mask id="mask3_106_1466" style="mask-type:luminance" maskUnits="userSpaceOnUse" x="170" y="211" width="54" height="9">
<path d="M223.273 214.896V219.774H170.04V214.896C170.04 213.945 170.418 213.032 171.091 212.359C171.764 211.686 172.676 211.308 173.628 211.308H219.679C220.151 211.307 220.619 211.399 221.055 211.578C221.491 211.758 221.888 212.022 222.222 212.355C222.556 212.689 222.82 213.085 223.001 213.521C223.181 213.957 223.274 214.424 223.273 214.896Z" fill="white"/>
</mask>
<g mask="url(#mask3_106_1466)">
<path opacity="0.2" d="M223.148 213.978C221.426 216.003 218.336 218.063 213.019 219.798H170.04V214.896C170.04 213.945 170.418 213.032 171.091 212.359C171.764 211.686 172.676 211.309 173.628 211.309H219.679C220.471 211.309 221.24 211.571 221.867 212.054C222.495 212.537 222.945 213.213 223.148 213.978Z" fill="black" fill-opacity="0.7"/>
</g>
<path d="M223.273 214.896V219.774H170.04V214.896C170.04 213.945 170.418 213.032 171.091 212.359C171.764 211.686 172.676 211.308 173.628 211.308H219.679C220.151 211.307 220.619 211.399 221.055 211.578C221.491 211.758 221.888 212.022 222.222 212.355C222.556 212.689 222.82 213.085 223.001 213.521C223.181 213.957 223.274 214.424 223.273 214.896Z" stroke="#263238" stroke-linecap="round" stroke-linejoin="round"/>
<path d="M225.078 218.3H168.696C168.137 218.3 167.684 218.753 167.684 219.312V221.864C167.684 222.423 168.137 222.876 168.696 222.876H225.078C225.638 222.876 226.091 222.423 226.091 221.864V219.312C226.091 218.753 225.638 218.3 225.078 218.3Z" fill="#999999" stroke="#263238" stroke-linecap="round" stroke-linejoin="round"/>
<path d="M168.311 218.448C165.76 221.047 178.127 261.883 178.127 261.883C176.777 263.067 174.788 263.612 172.905 263.86C171.175 264.075 169.426 264.101 167.69 263.937C167.69 263.937 149.965 220.946 154.843 210.278C159.722 199.611 189.991 194.768 189.991 194.768L191.281 191.571L206.939 189.369L209.527 208.544C209.527 208.544 206.957 208.792 203.091 209.29C192.726 210.604 173 213.712 168.311 218.448Z" fill="#263238"/>
<mask id="mask4_106_1466" style="mask-type:luminance" maskUnits="userSpaceOnUse" x="153" y="189" width="57" height="76">
<path d="M168.311 218.448C165.76 221.047 178.127 261.883 178.127 261.883C176.777 263.067 174.788 263.612 172.905 263.86C171.175 264.075 169.426 264.101 167.69 263.937C167.69 263.937 149.965 220.946 154.843 210.278C159.722 199.611 189.991 194.768 189.991 194.768L191.281 191.571L206.939 189.369L209.527 208.544C209.527 208.544 206.957 208.792 203.091 209.29C192.726 210.604 173 213.712 168.311 218.448Z" fill="white"/>
</mask>
<g mask="url(#mask4_106_1466)">
<path opacity="0.3" d="M178.127 261.907C176.777 263.091 174.788 263.635 172.905 263.884C169.466 251.097 160.71 216.974 164.025 212.8C168.116 207.65 188.363 202.967 188.363 202.967C188.445 200.339 195.544 197.971 195.544 197.971L203.086 209.272C192.72 210.604 172.994 213.712 168.306 218.448C165.76 221.071 178.127 261.907 178.127 261.907Z" fill="black"/>
</g>
<path d="M168.311 218.448C165.76 221.047 178.127 261.883 178.127 261.883C176.777 263.067 174.788 263.612 172.905 263.86C171.175 264.075 169.426 264.101 167.69 263.937C167.69 263.937 149.965 220.946 154.843 210.278C159.722 199.611 189.991 194.768 189.991 194.768L191.281 191.571L206.939 189.369L209.527 208.544C209.527 208.544 206.957 208.792 203.091 209.29C192.726 210.604 173 213.712 168.311 218.448Z" stroke="#263238" stroke-linecap="round" stroke-linejoin="round"/>
<path d="M159.55 179.796C156.951 179.352 175.451 163.132 175.451 163.132L184.372 169.134C184.372 169.134 169.194 179.826 166.808 180.116C164.422 180.406 159.55 179.796 159.55 179.796Z" fill="white"/>
<mask id="mask5_106_1466" style="mask-type:luminance" maskUnits="userSpaceOnUse" x="159" y="163" width="26" height="18">
<path d="M159.55 179.796C156.951 179.352 175.451 163.132 175.451 163.132L184.372 169.134C184.372 169.134 169.194 179.826 166.808 180.116C164.422 180.406 159.55 179.796 159.55 179.796Z" fill="white"/>
</mask>
<g mask="url(#mask5_106_1466)">
<path opacity="0.2" d="M159.55 179.796C156.951 179.352 175.451 163.132 175.451 163.132L184.372 169.134C184.372 169.134 169.194 179.826 166.808 180.116C164.422 180.406 159.55 179.796 159.55 179.796Z" fill="black" fill-opacity="0.7"/>
</g>
<path d="M159.55 179.796C156.951 179.352 175.451 163.132 175.451 163.132L184.372 169.134C184.372 169.134 169.194 179.826 166.808 180.116C164.422 180.406 159.55 179.796 159.55 179.796Z" stroke="#263238" stroke-linecap="round" stroke-linejoin="round"/>
<path d="M162.8 172.976C162.8 172.976 166.678 173.941 167.868 174.752C169.057 175.564 168.714 178.494 168.714 178.494C168.714 178.494 163.546 177.038 162.8 172.976Z" fill="white" stroke="#263238" stroke-linecap="round" stroke-linejoin="round"/>
<path d="M160.325 165.547L167.536 179.376H168.388L161.539 164.866L160.325 165.547Z" fill="#263238"/>
<path d="M166.826 175.546C166.826 175.546 162.279 172.313 161.166 172.313C160.053 172.313 156.72 176.25 156.72 178.233C156.72 180.217 163.99 181.3 165.411 179.625C166.121 178.79 164.712 176.777 164.712 176.777C165.558 177.678 166.466 178.518 167.429 179.293C168.021 179.625 169.152 179.192 169.152 179.192C169.152 179.192 167.637 176.765 166.826 175.546Z" fill="white" stroke="#263238" stroke-linecap="round" stroke-linejoin="round"/>
<path d="M164.712 180.08C163.664 178.75 162.377 177.625 160.917 176.765" stroke="#263238" stroke-linecap="round" stroke-linejoin="round"/>
<path d="M164.712 176.765C164.712 176.765 163.137 175.392 162.078 175.09" stroke="#263238" stroke-linecap="round" stroke-linejoin="round"/>
<path d="M159.757 178.512C160.858 179.076 161.92 179.713 162.936 180.418" stroke="#263238" stroke-linecap="round" stroke-linejoin="round"/>
<path d="M181.247 156.039C178.92 157.661 168.471 168.406 168.471 168.406C168.471 168.406 173.367 173.977 177.659 174.782L189.292 169.134L181.247 156.039Z" fill="#0866FF" stroke="#263238" stroke-linecap="round" stroke-linejoin="round"/>
<path opacity="0.4" d="M181.247 156.039C178.92 157.661 168.471 168.406 168.471 168.406C168.471 168.406 173.367 173.977 177.659 174.782L189.292 169.134L181.247 156.039Z" fill="white" stroke="#263238" stroke-linecap="round" stroke-linejoin="round"/>
<path d="M175.629 257.573L180.56 270.544C180.56 270.544 181.377 273.877 166.506 272.823L158.313 272.125L175.629 257.573Z" fill="#0866FF"/>
<mask id="mask6_106_1466" style="mask-type:luminance" maskUnits="userSpaceOnUse" x="158" y="257" width="23" height="17">
<path d="M175.629 257.573L180.56 270.544C180.56 270.544 181.377 273.877 166.506 272.823L158.313 272.125L175.629 257.573Z" fill="white"/>
</mask>
<g mask="url(#mask6_106_1466)">
<path opacity="0.3" d="M175.629 257.573L180.56 270.544C180.56 270.544 181.377 273.877 166.506 272.823L158.313 272.125L175.629 257.573Z" fill="black"/>
</g>
<path d="M175.629 257.573L180.56 270.544C180.56 270.544 181.377 273.877 166.506 272.823L158.313 272.125L175.629 257.573Z" stroke="#263238" stroke-linecap="round" stroke-linejoin="round"/>
<path d="M173.758 263.777C173.758 263.777 174.812 268.815 173.758 272.563C173.758 272.563 158.064 275.02 154.553 274.084C151.043 273.149 148.912 271.396 148.805 270.532C148.805 270.532 148.929 268.129 152.446 267.424C155.962 266.72 162.954 266.24 165.719 262.274C168.483 258.307 173.758 263.777 173.758 263.777Z" fill="#0866FF" stroke="#263238" stroke-linecap="round" stroke-linejoin="round"/>
<path d="M194.466 191.05C199.48 183.899 222.533 192.507 222.533 192.507C222.533 192.507 224.729 209.722 215.547 214.316C206.365 218.91 193.128 218.661 189.552 222.385L175.001 265.352C175.001 265.352 169.774 267.537 162.172 264.097C162.172 264.097 171.414 231.65 174.125 220.129C176.807 208.727 194.17 200.99 194.17 200.99C193.275 199.933 192.597 198.71 192.175 197.391" fill="#263238"/>
<path d="M194.466 191.05C199.48 183.899 222.533 192.507 222.533 192.507C222.533 192.507 224.729 209.722 215.547 214.316C206.365 218.91 193.128 218.661 189.552 222.385L175.001 265.352C175.001 265.352 169.774 267.537 162.172 264.097C162.172 264.097 171.414 231.65 174.125 220.129C176.807 208.727 194.17 200.99 194.17 200.99C193.275 199.933 192.597 198.71 192.175 197.391" stroke="#263238" stroke-linecap="round" stroke-linejoin="round"/>
<path d="M217.803 207.508C217.067 208.16 216.294 208.769 215.488 209.331" stroke="white" stroke-linecap="round" stroke-linejoin="round"/>
<path d="M219.691 192.927C221.574 197.012 221.722 202.198 219.099 205.98" stroke="white" stroke-linecap="round" stroke-linejoin="round"/>
<path d="M214.44 193.584C214.44 193.584 213.961 196.733 215.364 197.983C216.767 199.232 221.071 199.865 221.071 199.865" stroke="white" stroke-linecap="round" stroke-linejoin="round"/>
<path d="M195.544 193.726C195.544 193.726 195.739 196.864 194.466 196.716C193.193 196.568 193.128 197.971 193.128 197.971" stroke="white" stroke-linecap="round" stroke-linejoin="round"/>
<path d="M181.555 158.455C181.36 157.664 181.257 156.854 181.247 156.039C181.247 156.039 188.351 150.048 197.497 150.084C208.39 150.119 215.05 153.547 217.714 158.307C221.941 165.837 222.533 192.507 222.533 192.507C222.533 192.507 195.2 196.722 191.281 191.553C190.6 190.654 191.121 184.301 191.121 184.301C191.121 184.301 188.061 176.274 187.415 170.046C186.516 168.807 185.68 167.522 184.911 166.198C183.938 164.568 183.095 162.864 182.389 161.101" fill="#0866FF"/>
<path d="M181.555 158.455C181.36 157.664 181.257 156.854 181.247 156.039C181.247 156.039 188.351 150.048 197.497 150.084C208.39 150.119 215.05 153.547 217.714 158.307C221.941 165.837 222.533 192.507 222.533 192.507C222.533 192.507 195.2 196.722 191.281 191.553C190.6 190.654 191.121 184.301 191.121 184.301C191.121 184.301 188.061 176.274 187.415 170.046C186.516 168.807 185.68 167.522 184.911 166.198C183.938 164.568 183.095 162.864 182.389 161.101" stroke="#263238" stroke-linecap="round" stroke-linejoin="round"/>
<g opacity="0.6">
<path d="M181.555 158.455C181.36 157.664 181.257 156.854 181.247 156.039C181.247 156.039 188.351 150.048 197.497 150.084C208.39 150.119 215.05 153.547 217.714 158.307C221.941 165.837 222.533 192.507 222.533 192.507C222.533 192.507 195.2 196.722 191.281 191.553C190.6 190.654 191.121 184.301 191.121 184.301C191.121 184.301 188.061 176.274 187.415 170.046C186.516 168.807 185.68 167.522 184.911 166.198C183.938 164.568 183.095 162.864 182.389 161.101" fill="white"/>
<path d="M181.555 158.455C181.36 157.664 181.257 156.854 181.247 156.039C181.247 156.039 188.351 150.048 197.497 150.084C208.39 150.119 215.05 153.547 217.714 158.307C221.941 165.837 222.533 192.507 222.533 192.507C222.533 192.507 195.2 196.722 191.281 191.553C190.6 190.654 191.121 184.301 191.121 184.301C191.121 184.301 188.061 176.274 187.415 170.046C186.516 168.807 185.68 167.522 184.911 166.198C183.938 164.568 183.095 162.864 182.389 161.101" stroke="#263238" stroke-linecap="round" stroke-linejoin="round"/>
</g>
<path d="M192.021 164.866C192.021 164.866 196.195 181.057 195.573 184.621C195.425 185.851 195.63 187.097 196.165 188.215C195.62 188.788 195.269 189.519 195.163 190.303C195.056 191.088 195.2 191.885 195.573 192.584" stroke="#263238" stroke-linecap="round" stroke-linejoin="round"/>
<path d="M203.092 178.263C202.346 178.235 201.622 178.006 200.996 177.6L199.759 172.177C202.213 172.401 204.688 172.227 207.088 171.662L208.414 177.582C207.668 177.79 206.911 177.954 206.146 178.074" stroke="#263238" stroke-linecap="round" stroke-linejoin="round"/>
<path d="M189.055 166.974C189.055 166.974 185.503 151.842 194.466 150.084C203.429 148.326 205.27 152.511 204.743 155.347C204.039 159.13 196.609 168.406 196.609 168.406L192.021 164.854L189.055 166.974Z" fill="#0866FF" stroke="#263238" stroke-linecap="round" stroke-linejoin="round"/>
<path opacity="0.4" d="M189.055 166.974C189.055 166.974 185.503 151.842 194.466 150.084C203.429 148.326 205.27 152.511 204.743 155.347C204.039 159.13 196.609 168.406 196.609 168.406L192.021 164.854L189.055 166.974Z" fill="white" stroke="#263238" stroke-linecap="round" stroke-linejoin="round"/>
<path d="M177.298 213.712C177.298 213.712 183.088 207.028 196.159 201.979C196.159 201.979 192.773 200.943 192.015 199.534" stroke="white" stroke-linecap="round" stroke-linejoin="round"/>
<path d="M170.49 234.166L165.198 253.382" stroke="white" stroke-linecap="round" stroke-linejoin="round"/>
<path d="M211.385 178.784C211.385 178.784 213.753 182.78 223.504 182.413C221.689 180.47 219.394 179.041 216.85 178.269C212.865 177.203 211.385 178.784 211.385 178.784Z" fill="#0866FF" stroke="#263238" stroke-linecap="round" stroke-linejoin="round"/>
<path d="M173.557 180.388C173.557 180.388 175.818 176.884 177.89 176.179C179.962 175.475 186.048 175.416 186.989 175.392C187.93 175.368 204.654 179.619 212.504 182.235L211.818 169.134L222.367 169.969C222.367 169.969 221.941 185.953 220.301 190.186C218.661 194.419 216.311 193.389 212.303 191.66C196.538 184.87 187.303 180.14 186.444 180.412C185.586 180.684 173.557 180.388 173.557 180.388Z" fill="white" stroke="#263238" stroke-linecap="round" stroke-linejoin="round"/>
<path d="M209.183 161.521C208.908 162.607 208.819 163.733 208.923 164.848C209.39 168.945 211.385 178.784 211.385 178.784C211.385 178.784 221.219 180.187 223.504 182.413C223.504 182.413 225.126 169.389 221.822 162.776C218.519 156.164 215.103 155.436 215.103 155.436C212.942 154.903 210.959 156.916 209.864 159.503" fill="#0866FF"/>
<path d="M209.183 161.521C208.908 162.607 208.819 163.733 208.923 164.848C209.39 168.945 211.385 178.784 211.385 178.784C211.385 178.784 221.219 180.187 223.504 182.413C223.504 182.413 225.126 169.389 221.822 162.776C218.519 156.164 215.103 155.436 215.103 155.436C212.942 154.903 210.959 156.916 209.864 159.503" stroke="#263238" stroke-linecap="round" stroke-linejoin="round"/>
<g opacity="0.4">
<path d="M209.183 161.521C208.908 162.607 208.819 163.733 208.923 164.848C209.39 168.945 211.385 178.784 211.385 178.784C211.385 178.784 221.219 180.187 223.504 182.413C223.504 182.413 225.126 169.389 221.822 162.776C218.519 156.164 215.103 155.436 215.103 155.436C212.942 154.903 210.959 156.916 209.864 159.503" fill="white"/>
<path d="M209.183 161.521C208.908 162.607 208.819 163.733 208.923 164.848C209.39 168.945 211.385 178.784 211.385 178.784C211.385 178.784 221.219 180.187 223.504 182.413C223.504 182.413 225.126 169.389 221.822 162.776C218.519 156.164 215.103 155.436 215.103 155.436C212.942 154.903 210.959 156.916 209.864 159.503" stroke="#263238" stroke-linecap="round" stroke-linejoin="round"/>
</g>
<path d="M180.294 166.589C181.766 167.793 183.483 168.662 185.326 169.134" stroke="#263238" stroke-linecap="round" stroke-linejoin="round"/>
<path d="M211.385 166.589C211.385 166.589 214.937 173.302 219.425 174.782" stroke="#263238" stroke-linecap="round" stroke-linejoin="round"/>
<path d="M188.369 218.3C188.369 218.3 189.026 218.797 189.292 220.591" stroke="white" stroke-linecap="round" stroke-linejoin="round"/>
<path d="M185.935 220.591C186.507 220.653 187.06 220.834 187.558 221.121C188.057 221.408 188.49 221.797 188.83 222.26" stroke="white" stroke-linecap="round" stroke-linejoin="round"/>
<path d="M166.352 213.712C166.352 213.712 168.246 214.671 167.838 217.388" stroke="white" stroke-linecap="round" stroke-linejoin="round"/>
<path d="M164.357 216.021C164.357 216.021 166.944 217.554 167.127 218.928" stroke="white" stroke-linecap="round" stroke-linejoin="round"/>
<path d="M194.342 199.457C194.342 199.457 200.102 200.262 201.393 199.457" stroke="white" stroke-linecap="round" stroke-linejoin="round"/>
<path d="M192.021 164.215C191.524 162.805 191.322 161.308 191.429 159.816C191.453 159.31 191.506 158.806 191.589 158.307L190.588 156.72L189.304 154.678L190.79 148.758C190.79 148.758 200.262 150.581 200.972 153.221C201.683 155.862 192.021 164.215 192.021 164.215Z" fill="white"/>
<mask id="mask7_106_1466" style="mask-type:luminance" maskUnits="userSpaceOnUse" x="189" y="148" width="13" height="17">
<path d="M192.021 164.215C191.524 162.805 191.322 161.308 191.429 159.816C191.453 159.31 191.506 158.806 191.589 158.307L190.588 156.72L189.304 154.678L190.79 148.758C190.79 148.758 200.262 150.581 200.972 153.221C201.683 155.862 192.021 164.215 192.021 164.215Z" fill="white"/>
</mask>
<g mask="url(#mask7_106_1466)">
<path opacity="0.2" d="M191.417 159.84C191.441 159.334 191.494 158.83 191.577 158.33L190.577 156.744C192.38 156.465 194.022 155.544 195.2 154.151C195.25 155.377 194.911 156.587 194.231 157.609C193.552 158.631 192.567 159.412 191.417 159.84Z" fill="black" fill-opacity="0.7"/>
</g>
<path d="M192.021 164.215C191.524 162.805 191.322 161.308 191.429 159.816C191.453 159.31 191.506 158.806 191.589 158.307L190.588 156.72L189.304 154.678L190.79 148.758C190.79 148.758 200.262 150.581 200.972 153.221C201.683 155.862 192.021 164.215 192.021 164.215Z" stroke="#263238" stroke-linecap="round" stroke-linejoin="round"/>
<path d="M197.965 149.255C200.925 141.559 198.959 128.458 184.751 130.968C176.416 132.448 175.41 142.524 178.192 147C180.974 151.475 178.02 151.617 182.206 154.932C183.905 156.276 185.272 158.555 187.297 158.703C189.706 158.869 192.791 156.59 195.094 154.127" fill="white"/>
<path d="M197.965 149.255C200.925 141.559 198.959 128.458 184.751 130.968C176.416 132.448 175.41 142.524 178.192 147C180.974 151.475 178.02 151.617 182.206 154.932C183.905 156.276 185.272 158.555 187.297 158.703C189.706 158.869 192.791 156.59 195.094 154.127" stroke="#263238" stroke-linecap="round" stroke-linejoin="round"/>
<path d="M183.964 147C183.964 147 186.06 145.093 188.552 145.881" stroke="#263238" stroke-linecap="round" stroke-linejoin="round"/>
<path d="M180.039 147C179.758 146.505 179.367 146.082 178.895 145.764C178.424 145.446 177.885 145.24 177.322 145.164" stroke="#263238" stroke-linecap="round" stroke-linejoin="round"/>
<path d="M181.424 149.776C181.424 149.776 181.122 151.309 180.726 152.86C180.329 154.411 183.212 153.565 183.094 153.328" fill="white"/>
<path d="M181.424 149.776C181.424 149.776 181.122 151.309 180.726 152.86C180.329 154.411 183.212 153.565 183.094 153.328" stroke="#263238" stroke-linecap="round" stroke-linejoin="round"/>
<path d="M184.58 155.264C185.802 154.914 186.89 154.202 187.7 153.221" stroke="#263238" stroke-linecap="round" stroke-linejoin="round"/>
<path d="M186.883 148.947C186.925 149.022 186.952 149.104 186.962 149.189C186.972 149.274 186.966 149.36 186.942 149.443C186.919 149.525 186.88 149.602 186.827 149.67C186.774 149.737 186.709 149.793 186.634 149.835C186.482 149.918 186.304 149.938 186.138 149.89C185.971 149.843 185.831 149.731 185.746 149.581C185.692 149.489 185.663 149.385 185.663 149.279C185.621 149.204 185.594 149.122 185.584 149.037C185.573 148.952 185.58 148.866 185.603 148.783C185.626 148.701 185.665 148.624 185.718 148.556C185.771 148.489 185.837 148.433 185.912 148.391C186.063 148.308 186.242 148.288 186.408 148.336C186.574 148.383 186.715 148.495 186.8 148.645C186.854 148.737 186.883 148.841 186.883 148.947Z" fill="#263238"/>
<path d="M180.56 148.817C180.678 149.243 180.596 149.646 180.371 149.705C180.146 149.764 179.867 149.468 179.779 149.036C179.69 148.604 179.749 148.207 179.974 148.148C180.199 148.089 180.43 148.385 180.56 148.817Z" fill="#263238"/>
<path d="M189.203 139.073C189.203 139.073 187.001 144.833 181.555 144.703C181.555 144.703 183.443 143.264 183.964 141.891C183.964 141.891 179.773 146.035 175.587 143.927C171.402 141.82 173.456 132.016 179.879 128.144C186.302 124.273 192.874 125.309 195.1 129.009C195.1 129.009 199.599 128.594 201.582 135.207C203.358 141.127 200.516 150.102 197.74 150.202C193.436 150.362 192.572 145.691 192.572 145.691C190.795 143.884 189.619 141.573 189.203 139.073Z" fill="#263238" stroke="#263238" stroke-linecap="round" stroke-linejoin="round"/>
<path d="M193.921 149.285C193.921 149.285 193.785 143.85 196.881 144.507C199.978 145.164 197.734 151.445 195.407 151.38" fill="white"/>
<path d="M193.921 149.285C193.921 149.285 193.785 143.85 196.881 144.507C199.978 145.164 197.734 151.445 195.407 151.38" stroke="#263238" stroke-linecap="round" stroke-linejoin="round"/>
<path d="M184.361 179.796H136.628C136.095 179.796 135.663 180.228 135.663 180.761V182.425C135.663 182.958 136.095 183.39 136.628 183.39H184.361C184.894 183.39 185.326 182.958 185.326 182.425V180.761C185.326 180.228 184.894 179.796 184.361 179.796Z" fill="#0866FF" stroke="#263238" stroke-linecap="round" stroke-linejoin="round"/>
<path d="M66.1797 252.109H46.0458L48.1533 270.514H64.0722L66.1797 252.109Z" fill="#263238" stroke="#263238" stroke-linecap="round" stroke-linejoin="round"/>
<path d="M68.5655 239.298C68.5655 239.298 59.7743 239.991 59.4072 246.479C59.4072 246.479 68.3109 250.576 68.5655 239.298Z" fill="#0866FF" stroke="#263238" stroke-linecap="round" stroke-linejoin="round"/>
<path d="M51.1725 240.908C51.1725 240.908 46.2589 234.266 38.3202 237.67C38.3202 237.67 43.1687 245.68 51.1725 240.908Z" fill="#0866FF" stroke="#263238" stroke-linecap="round" stroke-linejoin="round"/>
<path d="M38.9951 219.94C38.9951 219.94 37.5802 232.715 49.213 229.199C49.213 229.199 45.5189 219.804 38.9951 219.94Z" fill="#0866FF" stroke="#263238" stroke-linecap="round" stroke-linejoin="round"/>
<path d="M53.28 212.824C53.28 212.824 44.0803 217.785 50.8469 225.315C50.841 225.315 57.2879 219.934 53.28 212.824Z" fill="#0866FF" stroke="#263238" stroke-linecap="round" stroke-linejoin="round"/>
<path d="M64.5932 224.244C64.5932 224.244 54.5884 223.231 54.5884 232.49C54.5884 232.49 64.5932 232.887 64.5932 224.244Z" fill="#0866FF" stroke="#263238" stroke-linecap="round" stroke-linejoin="round"/>
<path d="M55.1626 259.693C55.1626 259.693 59.721 250.126 55.3461 240.382C50.9712 230.637 49.4853 222.426 51.7941 216.642" stroke="#263238" stroke-linecap="round" stroke-linejoin="round"/>
<path d="M61.3075 226.736C61.3075 226.736 55.3106 229.104 53.28 235.29" stroke="#263238" stroke-linecap="round" stroke-linejoin="round"/>
<path d="M42.1564 225.049C42.1564 225.049 45.6196 229.785 51.4863 229.258" stroke="#263238" stroke-linecap="round" stroke-linejoin="round"/>
<path d="M42.1564 239.032C42.1564 239.032 51.7468 241.791 55.5593 240.891" stroke="#263238" stroke-linecap="round" stroke-linejoin="round"/>
<path d="M65.7121 242.217C65.7121 242.217 61.4201 246.953 57.1103 246.852" stroke="#263238" stroke-linecap="round" stroke-linejoin="round"/>
<path d="M67.044 251.701H45.1815V254.3H67.044V251.701Z" fill="#263238" stroke="#263238" stroke-linecap="round" stroke-linejoin="round"/>
<path d="M225.694 235.024C220.583 238.363 216.294 242.815 213.15 248.048C207.934 256.75 203.802 268.993 210.219 270.544L216.323 270.313L228.068 266.282L226.837 263.914C226.837 263.914 216.554 269.36 214.795 269.36C213.037 269.36 210.746 269.798 209.781 269.094C208.816 268.389 213.161 252.565 222.462 247.29C231.762 242.016 225.694 235.024 225.694 235.024Z" fill="#0866FF"/>
<mask id="mask8_106_1466" style="mask-type:luminance" maskUnits="userSpaceOnUse" x="206" y="235" width="23" height="36">
<path d="M225.694 235.024C220.583 238.363 216.294 242.815 213.15 248.048C207.934 256.75 203.802 268.993 210.219 270.544L216.323 270.313L228.068 266.282L226.837 263.914C226.837 263.914 216.554 269.36 214.795 269.36C213.037 269.36 210.746 269.798 209.781 269.094C208.816 268.389 213.161 252.565 222.462 247.29C231.762 242.016 225.694 235.024 225.694 235.024Z" fill="white"/>
</mask>
<g mask="url(#mask8_106_1466)">
<path opacity="0.5" d="M225.694 235.024C220.583 238.363 216.294 242.815 213.15 248.048C207.934 256.75 203.802 268.993 210.219 270.544L216.323 270.313L228.068 266.282L226.837 263.914C226.837 263.914 216.554 269.36 214.795 269.36C213.037 269.36 210.746 269.798 209.781 269.094C208.816 268.389 213.161 252.565 222.462 247.29C231.762 242.016 225.694 235.024 225.694 235.024Z" fill="black" fill-opacity="0.7"/>
</g>
<path d="M225.694 235.024C220.583 238.363 216.294 242.815 213.15 248.048C207.934 256.75 203.802 268.993 210.219 270.544L216.323 270.313L228.068 266.282L226.837 263.914C226.837 263.914 216.554 269.36 214.795 269.36C213.037 269.36 210.746 269.798 209.781 269.094C208.816 268.389 213.161 252.565 222.462 247.29C231.762 242.016 225.694 235.024 225.694 235.024Z" stroke="#263238" stroke-linecap="round" stroke-linejoin="round"/>
<path d="M232.378 229.317C232.378 229.317 232.378 226.766 236.244 226.416C240.109 226.067 240.66 229.791 240.66 229.791H239.328C239.328 229.791 239.357 227.559 236.516 227.387C233.674 227.216 233.781 229.791 233.781 229.791L232.378 229.317Z" fill="#0866FF" stroke="#263238" stroke-linecap="round" stroke-linejoin="round"/>
<path d="M226.659 270.544C218.483 270.544 220.035 233.881 220.976 232.064C221.917 230.247 245.639 229.341 247.977 230.11C250.315 230.88 259.693 267.406 254.519 270.325L226.659 270.544Z" fill="#0866FF"/>
<mask id="mask9_106_1466" style="mask-type:luminance" maskUnits="userSpaceOnUse" x="220" y="229" width="37" height="42">
<path d="M226.659 270.544C218.483 270.544 220.035 233.881 220.976 232.064C221.917 230.247 245.639 229.341 247.977 230.11C250.315 230.88 259.693 267.406 254.519 270.325L226.659 270.544Z" fill="white"/>
</mask>
<g mask="url(#mask9_106_1466)">
<path opacity="0.2" d="M226.659 270.544C218.483 270.544 220.035 233.881 220.976 232.064C221.917 230.247 245.639 229.341 247.977 230.11C250.315 230.88 259.693 267.406 254.519 270.325L226.659 270.544Z" fill="black" fill-opacity="0.7"/>
</g>
<path d="M226.659 270.544C218.483 270.544 220.035 233.881 220.976 232.064C221.917 230.247 245.639 229.341 247.977 230.11C250.315 230.88 259.693 267.406 254.519 270.325L226.659 270.544Z" stroke="#263238" stroke-linecap="round" stroke-linejoin="round"/>
<path d="M220.976 232.023C223.936 232.656 225.641 244.656 229.625 247.711C233.609 250.765 252.393 250.108 254.519 247.711C256.644 245.313 252.488 231.851 249.469 229.791C246.45 227.731 244.301 229.732 235.805 228.79C223.214 227.387 220.976 232.023 220.976 232.023Z" fill="#0866FF" stroke="#263238" stroke-linecap="round" stroke-linejoin="round"/>
<path d="M242.537 238.919L246.017 241.761C246.065 241.801 246.104 241.851 246.133 241.906C246.161 241.962 246.178 242.022 246.183 242.084C246.188 242.147 246.181 242.209 246.161 242.268C246.142 242.328 246.111 242.383 246.071 242.43L243.359 245.354C243.273 245.44 243.156 245.489 243.034 245.489C242.912 245.489 242.795 245.44 242.708 245.354L239.245 242.128C239.16 242.041 239.113 241.924 239.113 241.802C239.113 241.681 239.16 241.564 239.245 241.477L241.927 238.984C242.003 238.901 242.107 238.848 242.219 238.836C242.332 238.824 242.445 238.854 242.537 238.919Z" fill="#0866FF"/>
<mask id="mask10_106_1466" style="mask-type:luminance" maskUnits="userSpaceOnUse" x="239" y="238" width="8" height="8">
<path d="M242.537 238.919L246.017 241.761C246.065 241.801 246.104 241.851 246.133 241.906C246.161 241.962 246.178 242.022 246.183 242.084C246.188 242.147 246.181 242.209 246.161 242.268C246.142 242.328 246.111 242.383 246.071 242.43L243.359 245.354C243.273 245.44 243.156 245.489 243.034 245.489C242.912 245.489 242.795 245.44 242.708 245.354L239.245 242.128C239.16 242.041 239.113 241.924 239.113 241.802C239.113 241.681 239.16 241.564 239.245 241.477L241.927 238.984C242.003 238.901 242.107 238.848 242.219 238.836C242.332 238.824 242.445 238.854 242.537 238.919Z" fill="white"/>
</mask>
<g mask="url(#mask10_106_1466)">
<path opacity="0.2" d="M242.537 238.919L246.017 241.761C246.065 241.801 246.104 241.851 246.133 241.906C246.161 241.962 246.178 242.022 246.183 242.084C246.188 242.147 246.181 242.209 246.161 242.268C246.142 242.328 246.111 242.383 246.071 242.43L243.359 245.354C243.273 245.44 243.156 245.489 243.034 245.489C242.912 245.489 242.795 245.44 242.708 245.354L239.245 242.128C239.16 242.041 239.113 241.924 239.113 241.802C239.113 241.681 239.16 241.564 239.245 241.477L241.927 238.984C242.003 238.901 242.107 238.848 242.219 238.836C242.332 238.824 242.445 238.854 242.537 238.919Z" fill="black" fill-opacity="0.7"/>
</g>
<path d="M242.537 238.919L246.017 241.761C246.065 241.801 246.104 241.851 246.133 241.906C246.161 241.962 246.178 242.022 246.183 242.084C246.188 242.147 246.181 242.209 246.161 242.268C246.142 242.328 246.111 242.383 246.071 242.43L243.359 245.354C243.273 245.44 243.156 245.489 243.034 245.489C242.912 245.489 242.795 245.44 242.708 245.354L239.245 242.128C239.16 242.041 239.113 241.924 239.113 241.802C239.113 241.681 239.16 241.564 239.245 241.477L241.927 238.984C242.003 238.901 242.107 238.848 242.219 238.836C242.332 238.824 242.445 238.854 242.537 238.919Z" stroke="#263238" stroke-linecap="round" stroke-linejoin="round"/>
<path d="M231.058 253.844C231.058 253.844 246.793 255.14 254.519 253.139C255.552 253.953 256.321 255.055 256.727 256.306C257.431 258.414 258.899 265.624 254.519 267.472C250.138 269.319 234.391 268.963 232.289 266.88C230.187 264.796 231.058 253.844 231.058 253.844Z" fill="#0866FF"/>
<mask id="mask11_106_1466" style="mask-type:luminance" maskUnits="userSpaceOnUse" x="230" y="253" width="28" height="16">
<path d="M231.058 253.844C231.058 253.844 246.793 255.14 254.519 253.139C255.552 253.953 256.321 255.055 256.727 256.306C257.431 258.414 258.899 265.624 254.519 267.472C250.138 269.319 234.391 268.963 232.289 266.88C230.187 264.796 231.058 253.844 231.058 253.844Z" fill="white"/>
</mask>
<g mask="url(#mask11_106_1466)">
<path opacity="0.4" d="M231.058 253.844C231.058 253.844 246.793 255.14 254.519 253.139C255.552 253.953 256.321 255.055 256.727 256.306C257.431 258.414 258.899 265.624 254.519 267.472C250.138 269.319 234.391 268.963 232.289 266.88C230.187 264.796 231.058 253.844 231.058 253.844Z" fill="black" fill-opacity="0.7"/>
</g>
<path d="M231.058 253.844C231.058 253.844 246.793 255.14 254.519 253.139C255.552 253.953 256.321 255.055 256.727 256.306C257.431 258.414 258.899 265.624 254.519 267.472C250.138 269.319 234.391 268.963 232.289 266.88C230.187 264.796 231.058 253.844 231.058 253.844Z" stroke="#263238" stroke-linecap="round" stroke-linejoin="round"/>
<path d="M231.058 253.844C231.058 253.844 232.905 258.822 233.87 259.586C234.835 260.35 255.276 260.35 257.55 258.503C259.823 256.656 256.709 253.317 254.525 253.139C254.519 253.139 240.198 254.809 231.058 253.844Z" fill="#0866FF" stroke="#263238" stroke-linecap="round" stroke-linejoin="round"/>
<path d="M224.463 252.784C224.463 252.784 224.99 263.245 226.043 265.619C225.261 266.027 224.392 266.24 223.51 266.24C222.627 266.24 221.758 266.027 220.976 265.619C218.312 264.21 218.75 255.199 219.277 255.223C219.804 255.247 224.463 252.784 224.463 252.784Z" fill="#0866FF"/>
<mask id="mask12_106_1466" style="mask-type:luminance" maskUnits="userSpaceOnUse" x="218" y="252" width="9" height="15">
<path d="M224.463 252.784C224.463 252.784 224.99 263.245 226.043 265.619C225.261 266.027 224.392 266.24 223.51 266.24C222.627 266.24 221.758 266.027 220.976 265.619C218.312 264.21 218.75 255.199 219.277 255.223C219.804 255.247 224.463 252.784 224.463 252.784Z" fill="white"/>
</mask>
<g mask="url(#mask12_106_1466)">
<path opacity="0.4" d="M224.463 252.784C224.463 252.784 224.99 263.245 226.043 265.619C225.261 266.027 224.392 266.24 223.51 266.24C222.627 266.24 221.758 266.027 220.976 265.619C218.312 264.21 218.75 255.199 219.277 255.223C219.804 255.247 224.463 252.784 224.463 252.784Z" fill="black" fill-opacity="0.7"/>
</g>
<path d="M224.463 252.784C224.463 252.784 224.99 263.245 226.043 265.619C225.261 266.027 224.392 266.24 223.51 266.24C222.627 266.24 221.758 266.027 220.976 265.619C218.312 264.21 218.75 255.199 219.277 255.223C219.804 255.247 224.463 252.784 224.463 252.784Z" stroke="#263238" stroke-linecap="round" stroke-linejoin="round"/>
<path d="M224.463 252.784L220.502 253.577C220.502 253.577 216.725 256.478 218.395 257.443C220.064 258.408 224.368 256.04 224.463 252.784Z" fill="#0866FF" stroke="#263238" stroke-linecap="round" stroke-linejoin="round"/>
</svg>
