<svg width="463" height="463" viewBox="0 0 463 463" fill="none" xmlns="http://www.w3.org/2000/svg">
<path d="M371.974 402.125C386.79 391.671 398.923 377.862 407.384 361.825C460.315 262.66 448.36 116.435 346.426 53.7173C299.311 24.7335 231.5 6.38939 180.57 36.1603C139.27 60.3011 113.954 105.758 93.0075 147.114C79.849 173.162 69.0055 201.118 52.782 225.453C31.7433 257.011 8.58403 299.163 31.9655 335.832C63.8292 385.781 124.01 408.588 178.579 423.608C237.788 439.896 304.367 442.211 359.057 410.431C363.483 407.857 367.789 405.088 371.974 402.125Z" fill="#2B7BAD"/>
<path opacity="0.7" d="M371.974 402.125C386.79 391.671 398.923 377.862 407.384 361.825C460.315 262.66 448.36 116.435 346.426 53.7173C299.311 24.7335 231.5 6.38939 180.57 36.1603C139.27 60.3011 113.954 105.758 93.0075 147.114C79.849 173.162 69.0055 201.118 52.782 225.453C31.7433 257.011 8.58403 299.163 31.9655 335.832C63.8292 385.781 124.01 408.588 178.579 423.608C237.788 439.896 304.367 442.211 359.057 410.431C363.483 407.857 367.789 405.088 371.974 402.125Z" fill="white"/>
<g opacity="0.3">
<path d="M418.552 74.5152H323.174V199.775H418.552V74.5152Z" stroke="black" stroke-miterlimit="10"/>
<path d="M401.051 97.4986H340.675V176.792H401.051V97.4986Z" stroke="black" stroke-miterlimit="10"/>
</g>
<path d="M300.83 60.4771H48.3094V285.254H300.83V60.4771Z" fill="#263238" stroke="#263238" stroke-miterlimit="10"/>
<path d="M296.042 55.0044H43.522V279.782H296.042V55.0044Z" fill="white" stroke="#263238" stroke-linecap="round" stroke-linejoin="round"/>
<path d="M246.872 145.715H259.428V133.159H246.872V145.715Z" fill="white" stroke="#263238" stroke-linecap="round" stroke-linejoin="round"/>
<path d="M263.308 145.715H275.865V133.159H263.308V145.715Z" fill="white" stroke="#263238" stroke-linecap="round" stroke-linejoin="round"/>
<path d="M241.853 140.196H178.061" stroke="#263238" stroke-linecap="round" stroke-linejoin="round"/>
<path d="M246.872 175.357H259.428V162.8H246.872V175.357Z" fill="white" stroke="#263238" stroke-linecap="round" stroke-linejoin="round"/>
<path d="M263.308 175.357H275.865V162.8H263.308V175.357Z" fill="white" stroke="#263238" stroke-linecap="round" stroke-linejoin="round"/>
<path d="M241.853 169.828H178.061" stroke="#263238" stroke-linecap="round" stroke-linejoin="round"/>
<path d="M246.872 204.998H259.428V192.441H246.872V204.998Z" fill="white" stroke="#263238" stroke-linecap="round" stroke-linejoin="round"/>
<path d="M263.308 204.998H275.865V192.441H263.308V204.998Z" fill="white" stroke="#263238" stroke-linecap="round" stroke-linejoin="round"/>
<path d="M241.853 199.47H178.061" stroke="#263238" stroke-linecap="round" stroke-linejoin="round"/>
<path d="M126.825 145.715H139.381V133.159H126.825V145.715Z" fill="white" stroke="#263238" stroke-linecap="round" stroke-linejoin="round"/>
<path d="M143.271 145.715H155.827V133.159H143.271V145.715Z" fill="white" stroke="#263238" stroke-linecap="round" stroke-linejoin="round"/>
<path d="M121.806 140.196H58.0139" stroke="#263238" stroke-linecap="round" stroke-linejoin="round"/>
<path d="M126.825 175.357H139.381V162.8H126.825V175.357Z" fill="white" stroke="#263238" stroke-linecap="round" stroke-linejoin="round"/>
<path d="M143.271 175.357H155.827V162.8H143.271V175.357Z" fill="white" stroke="#263238" stroke-linecap="round" stroke-linejoin="round"/>
<path d="M121.806 169.828H58.0139" stroke="#263238" stroke-linecap="round" stroke-linejoin="round"/>
<path d="M126.825 204.998H139.381V192.441H126.825V204.998Z" fill="white" stroke="#263238" stroke-linecap="round" stroke-linejoin="round"/>
<path d="M143.271 204.998H155.827V192.441H143.271V204.998Z" fill="white" stroke="#263238" stroke-linecap="round" stroke-linejoin="round"/>
<path d="M121.806 199.47H58.0139" stroke="#263238" stroke-linecap="round" stroke-linejoin="round"/>
<path d="M75.8116 248.168H61.9772V262.002H75.8116V248.168Z" fill="white" stroke="#263238" stroke-linecap="round" stroke-linejoin="round"/>
<path d="M132.27 248.168H118.435V262.002H132.27V248.168Z" fill="white" stroke="#263238" stroke-linecap="round" stroke-linejoin="round"/>
<path d="M190.969 248.168H177.135V262.002H190.969V248.168Z" fill="white" stroke="#263238" stroke-linecap="round" stroke-linejoin="round"/>
<path d="M147.391 137.363L149.53 141.659L159.892 131.649" stroke="#263238" stroke-width="2" stroke-linecap="round" stroke-linejoin="round"/>
<path d="M147.391 166.671L149.53 170.958L159.892 160.948" stroke="#263238" stroke-width="2" stroke-linecap="round" stroke-linejoin="round"/>
<path d="M129.52 197.405L131.668 201.692L142.03 191.682" stroke="#263238" stroke-width="2" stroke-linecap="round" stroke-linejoin="round"/>
<path d="M266.744 137.011L268.883 141.298L279.245 131.288" stroke="#263238" stroke-width="2" stroke-linecap="round" stroke-linejoin="round"/>
<path d="M249.446 167.023L251.585 171.31L261.947 161.309" stroke="#263238" stroke-width="2" stroke-linecap="round" stroke-linejoin="round"/>
<path d="M249.446 197.136L251.585 201.424L261.947 191.423" stroke="#263238" stroke-width="2" stroke-linecap="round" stroke-linejoin="round"/>
<path d="M296.042 55.0044H43.522V90.1183H296.042V55.0044Z" fill="#2B7BAD" stroke="#263238" stroke-linecap="round" stroke-linejoin="round"/>
<path d="M296.042 55.0044H286.532V279.782H296.042V55.0044Z" fill="#DBDBDB" stroke="#263238" stroke-linecap="round" stroke-linejoin="round"/>
<path d="M296.042 88.7849H286.532V132.168H296.042V88.7849Z" fill="#949494" stroke="#263238" stroke-linecap="round" stroke-linejoin="round"/>
<path d="M296.042 55.0044H43.522V72.0798H296.042V55.0044Z" fill="#DBDBDB" stroke="#263238" stroke-linecap="round" stroke-linejoin="round"/>
<path d="M155.911 59.977H56.3286V67.0887H155.911V59.977Z" fill="white" stroke="#263238" stroke-linecap="round" stroke-linejoin="round"/>
<path d="M281.134 60.3104H289.875" stroke="#263238" stroke-linecap="round" stroke-linejoin="round"/>
<path d="M281.134 64.0051H289.875" stroke="#263238" stroke-linecap="round" stroke-linejoin="round"/>
<path d="M281.134 67.7091H289.875" stroke="#263238" stroke-linecap="round" stroke-linejoin="round"/>
<path d="M131.733 104.323C131.733 102.129 132.89 100.878 135.001 100.878C137.113 100.878 138.261 102.129 138.261 104.323V111.435C138.261 113.62 137.113 114.87 135.001 114.87C132.89 114.87 131.733 113.62 131.733 111.435V104.323ZM133.89 111.574C133.89 112.546 134.316 112.916 135.001 112.916C135.687 112.916 136.113 112.546 136.113 111.574V104.166C136.113 103.184 135.687 102.814 135.001 102.814C134.316 102.814 133.89 103.184 133.89 104.166V111.574Z" fill="#263238"/>
<path d="M141.567 104.814V114.713H139.631V101.036H142.326L144.539 109.222V101.036H146.456V114.713H144.243L141.567 104.814Z" fill="#263238"/>
<path d="M147.993 101.036H150.151V112.759H153.716V114.713H148.021L147.993 101.036Z" fill="#263238"/>
<path d="M154.642 101.036H156.79V114.713H154.642V101.036Z" fill="#263238"/>
<path d="M160.254 104.814V114.713H158.346V101.036H161.041L163.254 109.222V101.036H165.161V114.713H162.976L160.254 104.814Z" fill="#263238"/>
<path d="M168.828 106.805H171.782V108.759H168.828V112.759H172.532V114.713H166.68V101.036H172.542V102.99H168.838L168.828 106.805Z" fill="#263238"/>
<path d="M176.283 101.036H182.922V102.99H180.672V114.713H178.524V102.99H176.283V101.036Z" fill="#263238"/>
<path d="M186.015 106.805H188.96V108.759H186.015V112.759H189.719V114.713H183.857V101.036H189.719V102.99H186.015V106.805Z" fill="#263238"/>
<path d="M193.941 100.878C196.034 100.878 197.108 102.129 197.108 104.323V104.749H195.08V104.184C195.08 103.203 194.691 102.832 194.006 102.832C193.321 102.832 192.932 103.203 192.932 104.184C192.932 106.962 197.127 107.527 197.127 111.435C197.127 113.62 196.034 114.87 193.923 114.87C191.812 114.87 190.756 113.62 190.756 111.435V110.592H192.793V111.574C192.793 112.546 193.219 112.898 193.904 112.898C194.59 112.898 195.016 112.546 195.016 111.574C195.016 108.796 190.821 108.231 190.821 104.323C190.756 102.129 191.858 100.878 193.941 100.878Z" fill="#263238"/>
<path d="M197.738 101.036H204.377V102.99H202.137V114.713H200.016V102.99H197.766L197.738 101.036Z" fill="#263238"/>
<path d="M72.7465 244.834H70.5704L70.2 242.353H67.598L67.2276 244.834H65.2181L67.4035 231.157H70.5519L72.7465 244.834ZM67.8387 240.491H69.913L68.8758 233.574L67.8387 240.491Z" fill="#263238"/>
<path d="M128.297 234.278V234.76C128.297 236.167 127.871 237.065 126.908 237.538C128.066 237.982 128.51 239.019 128.51 240.464V241.584C128.51 243.695 127.399 244.825 125.251 244.825H121.871V231.157H125.112C127.344 231.157 128.297 232.195 128.297 234.278ZM124.019 233.083V236.695H124.862C125.658 236.695 126.149 236.343 126.149 235.25V234.491C126.149 233.509 125.816 233.083 125.056 233.083H124.019ZM124.019 238.639V242.844H125.251C125.973 242.844 126.362 242.51 126.362 241.492V240.306C126.362 239.028 125.955 238.639 124.982 238.639H124.019Z" fill="#263238"/>
<path d="M187.552 239.732V241.584C187.552 243.779 186.459 245.029 184.348 245.029C182.237 245.029 181.144 243.779 181.144 241.584V234.472C181.144 232.287 182.237 231.037 184.348 231.037C186.459 231.037 187.552 232.287 187.552 234.472V235.806H185.524V234.278C185.524 233.296 185.089 232.926 184.404 232.926C183.718 232.926 183.292 233.296 183.292 234.278V241.686C183.292 242.668 183.728 243.019 184.404 243.019C185.08 243.019 185.524 242.668 185.524 241.686V239.732H187.552Z" fill="#263238"/>
<path d="M58.9862 223.87H223.12" stroke="#263238" stroke-linecap="round" stroke-linejoin="round"/>
<path opacity="0.3" d="M328.573 56.1063H346.694V37.9845H328.573V56.1063Z" stroke="black" stroke-linecap="round" stroke-linejoin="round"/>
<path opacity="0.3" d="M352.306 56.1063H370.428V37.9845H352.306V56.1063Z" stroke="black" stroke-linecap="round" stroke-linejoin="round"/>
<path opacity="0.3" d="M332.471 45.1518L335.564 51.3374L344.657 41.3274" stroke="black" stroke-width="2" stroke-linecap="round" stroke-linejoin="round"/>
<path opacity="0.3" d="M54.2451 321.979H72.3669V303.858H54.2451V321.979Z" stroke="black" stroke-linecap="round" stroke-linejoin="round"/>
<path opacity="0.3" d="M77.9692 321.979H96.0911V303.858H77.9692V321.979Z" stroke="black" stroke-linecap="round" stroke-linejoin="round"/>
<path opacity="0.3" d="M58.125 311.025L61.2178 317.211L70.3112 307.201" stroke="black" stroke-width="2" stroke-linecap="round" stroke-linejoin="round"/>
<path opacity="0.3" d="M140.095 321.979H158.216V303.858H140.095V321.979Z" stroke="black" stroke-linecap="round" stroke-linejoin="round"/>
<path opacity="0.3" d="M163.828 321.979H181.95V303.858H163.828V321.979Z" stroke="black" stroke-linecap="round" stroke-linejoin="round"/>
<path opacity="0.3" d="M143.984 311.025L147.077 317.211L156.17 307.201" stroke="black" stroke-width="2" stroke-linecap="round" stroke-linejoin="round"/>
<g opacity="0.3">
<path d="M168.199 47.0482C174.541 46.0235 178.85 40.0522 177.826 33.7111C176.801 27.37 170.83 23.0603 164.488 24.085C158.147 25.1098 153.838 31.081 154.862 37.4221C155.887 43.7632 161.858 48.073 168.199 47.0482Z" stroke="black" stroke-linecap="round" stroke-linejoin="round"/>
<path d="M169.597 39.7717L166.347 35.5677V28.9468" stroke="black" stroke-linecap="round" stroke-linejoin="round"/>
</g>
<g opacity="0.3">
<path d="M383.438 258.65H381.716L381.419 256.687H379.327L379.03 258.65H377.465L379.206 247.807H381.697L383.438 258.65ZM379.549 255.215H381.188L380.364 249.724L379.549 255.215Z" fill="black"/>
<path d="M407.69 250.298V250.687C407.756 251.119 407.686 251.561 407.49 251.953C407.294 252.344 406.983 252.665 406.597 252.872C407.032 253.07 407.391 253.403 407.62 253.822C407.848 254.242 407.935 254.724 407.866 255.196V256.122C407.909 256.472 407.871 256.826 407.755 257.159C407.639 257.492 407.449 257.793 407.199 258.041C406.949 258.289 406.645 258.476 406.311 258.588C405.977 258.7 405.622 258.734 405.273 258.687H402.597V247.807H405.171C406.931 247.807 407.69 248.622 407.69 250.298ZM404.301 249.372V252.242H404.968C405.597 252.242 405.986 251.965 405.986 251.094V250.492C405.986 249.714 405.727 249.372 405.116 249.372H404.301ZM404.301 253.789V257.122H405.273C405.847 257.122 406.199 256.863 406.199 256.058V255.132C406.199 254.131 405.866 253.817 405.097 253.817L404.301 253.789Z" fill="black"/>
<path d="M432.248 254.65V256.085C432.248 257.826 431.386 258.817 429.71 258.817C428.034 258.817 427.164 257.826 427.164 256.085V250.446C427.164 248.705 428.034 247.714 429.71 247.714C431.386 247.714 432.248 248.705 432.248 250.446V251.502H430.636V250.298C430.636 249.52 430.294 249.233 429.757 249.233C429.219 249.233 428.831 249.52 428.831 250.298V256.159C428.831 256.937 429.173 257.215 429.757 257.215C430.34 257.215 430.636 256.937 430.636 256.159V254.65H432.248Z" fill="black"/>
<path d="M386.827 264.567H373.65V277.744H386.827V264.567Z" stroke="black" stroke-miterlimit="10"/>
<path d="M411.338 264.567H398.161V277.744H411.338V264.567Z" stroke="black" stroke-miterlimit="10"/>
<path d="M435.85 264.567H422.673V277.744H435.85V264.567Z" stroke="black" stroke-miterlimit="10"/>
</g>
<path d="M74.4875 417.219H46.6056" stroke="#263238" stroke-miterlimit="10"/>
<path d="M438.304 417.219H83.5715" stroke="#263238" stroke-miterlimit="10"/>
<path d="M331.175 416.904L337.138 326.341L341.527 283.282L329.489 269.846L323.452 265.456C323.452 265.456 314.951 272.864 308.923 274.503C302.895 276.142 297.098 277.8 297.098 277.8C297.098 277.8 276.531 316.47 274.874 334.017C273.216 351.565 270.485 416.57 270.485 416.57L272.772 416.904H331.175Z" fill="#9E9E9E" stroke="#263238" stroke-miterlimit="10"/>
<path d="M302.904 342.24C302.904 342.24 301.876 341.713 303.932 336.416" stroke="#263238" stroke-miterlimit="10"/>
<path d="M300.487 276.874C301.51 284.19 302.076 291.563 302.182 298.95C302.182 298.95 308.358 296.477 313.294 287.838C316.02 283.201 318.368 278.352 320.313 273.337L300.487 276.874Z" fill="#263238" stroke="#263238" stroke-miterlimit="10"/>
<path d="M331.175 416.904L336.536 335.481C331.277 338.166 320.896 342.601 309.441 342.796C295.718 343.027 278.726 332.369 278.726 332.369L274.902 333.869C274.902 333.916 274.902 333.971 274.902 334.017C273.253 351.611 270.512 416.57 270.512 416.57L272.8 416.904H331.175Z" fill="white" stroke="#263238" stroke-miterlimit="10"/>
<path d="M322.248 371.326C322.248 392.3 322.97 412.477 323.174 416.885H363.594C364.15 410.348 367.631 369.659 369.418 355.075C371.372 339.138 384.188 315.414 384.188 306.923C384.188 298.431 386.79 299.774 375.086 293.598C363.381 287.421 337.564 274.087 333.99 272.457C330.415 270.827 326.508 266.901 326.508 266.901C326.508 266.901 327.804 275.031 327.434 297.135C327.063 319.239 322.248 347.611 322.248 371.326Z" fill="#2B7BAD"/>
<g opacity="0.2">
<path d="M326.508 266.984C326.99 270.831 327.268 274.701 327.341 278.578V267.771C326.823 267.299 326.508 266.984 326.508 266.984Z" fill="black"/>
<path d="M379.66 319.905V322.683C379.975 321.841 380.29 321.026 380.586 320.22V319.887H380.706C380.827 319.581 380.938 319.266 381.049 318.961H380.586V307.432H384.17C384.17 307.293 384.17 307.145 384.17 307.006C384.17 306.867 384.17 306.673 384.17 306.506H380.586V296.635C380.299 296.459 379.993 296.292 379.66 296.107V306.506H369.937V294.931H377.456L375.715 294.005H369.937V290.949L369.011 290.458V293.977H359.288V285.402L358.362 284.921V293.977H348.639V282.43H353.482L351.686 281.504H348.639V279.939L347.713 279.458V281.504H337.99V274.513C337.666 274.346 337.36 274.189 337.064 274.05V281.504H327.434C327.434 281.81 327.434 282.115 327.434 282.43H337.064V294.005H327.517C327.517 294.311 327.517 294.616 327.517 294.931H337.064V306.506H327.341V302.108C327.156 306.626 326.823 311.367 326.415 316.192V318.97H326.174L326.091 319.896H326.415V331.508H325.026L324.933 332.434H326.461V344.009H323.832L323.748 344.935H326.461V356.51H322.85L322.794 357.436H326.498V369.011H322.396C322.396 369.326 322.396 369.631 322.396 369.937H326.508V381.512H322.424C322.424 381.827 322.424 382.132 322.424 382.438H326.498V394.013H322.609C322.609 394.328 322.609 394.633 322.609 394.939H326.48V416.932H327.406V394.911H337.064V416.904H337.99V394.911H347.713V416.904H348.639V394.911H358.362V416.904H359.288V394.911H365.52C365.52 394.606 365.52 394.3 365.603 393.985H359.288V382.438H366.696C366.696 382.132 366.761 381.827 366.789 381.512H359.288V369.937H367.844C367.844 369.622 367.9 369.326 367.937 369.011H359.288V357.436H369.011V358.668L369.419 355.121C369.548 354.084 369.724 353.01 369.937 351.908V344.935H371.669L371.947 344.009H369.937V332.434H375.956C376.076 332.128 376.188 331.814 376.308 331.508H369.937V319.933L379.66 319.905ZM369.937 307.432H379.66V319.007H369.937V307.432ZM337.064 393.985H327.341V382.438H337.064V393.985ZM337.064 381.484H327.341V369.909H337.064V381.484ZM337.064 368.983H327.341V357.436H337.064V368.983ZM337.064 356.482H327.341V344.907H337.064V356.482ZM337.064 343.981H327.341V332.434H337.064V343.981ZM337.064 331.48H327.341V319.905H337.064V331.48ZM337.064 318.979H327.341V307.432H337.064V318.979ZM347.713 393.985H337.99V382.438H347.713V393.985ZM347.713 381.484H337.99V369.909H347.713V381.484ZM347.713 368.983H337.99V357.436H347.713V368.983ZM347.713 356.482H337.99V344.907H347.713V356.482ZM347.713 343.981H337.99V332.434H347.713V343.981ZM347.713 331.48H337.99V319.905H347.713V331.48ZM347.713 318.979H337.99V307.432H347.713V318.979ZM347.713 306.478H337.99V294.903H347.713V306.478ZM347.713 293.977H337.99V282.43H347.713V293.977ZM358.362 393.985H348.639V382.438H358.362V393.985ZM358.362 381.484H348.639V369.909H358.362V381.484ZM358.362 368.983H348.639V357.436H358.362V368.983ZM358.362 356.482H348.639V344.907H358.362V356.482ZM358.362 343.981H348.639V332.434H358.362V343.981ZM358.362 331.48H348.639V319.905H358.362V331.48ZM358.362 318.979H348.639V307.432H358.362V318.979ZM358.362 306.478H348.639V294.903H358.362V306.478ZM369.011 356.482H359.288V344.907H369.011V356.482ZM369.011 343.981H359.288V332.434H369.011V343.981ZM369.011 331.48H359.288V319.905H369.011V331.48ZM369.011 318.979H359.288V307.432H369.011V318.979ZM369.011 306.478H359.288V294.903H369.011V306.478Z" fill="black"/>
</g>
<path d="M322.248 371.326C322.248 392.3 322.97 412.477 323.174 416.885H363.594C364.15 410.348 367.631 369.659 369.418 355.075C371.372 339.138 384.188 315.414 384.188 306.923C384.188 298.431 386.79 299.774 375.086 293.598C363.381 287.421 337.564 274.087 333.99 272.457C330.415 270.827 326.508 266.901 326.508 266.901C326.508 266.901 327.804 275.031 327.434 297.135C327.063 319.239 322.248 347.611 322.248 371.326Z" stroke="#263238" stroke-miterlimit="10"/>
<path d="M326.508 266.984C326.508 266.984 327.804 275.115 327.434 297.218C327.36 302.774 326.98 308.775 326.508 314.96C327.619 313.432 331.203 308.552 332.064 308.275C333.036 307.951 338.24 312.831 342.463 313.479C346.685 314.127 348.315 314.127 343.768 309.247C339.222 304.367 337.286 290.069 335.638 279.337C335.324 277.04 334.819 274.772 334.129 272.559H334.018C330.406 270.892 326.508 266.984 326.508 266.984Z" fill="#263238" stroke="#263238" stroke-miterlimit="10"/>
<path d="M353.186 367.548C356.177 366.187 358.529 365.011 358.529 365.011L359.631 373.511C359.631 373.511 343.444 380.642 334.397 381.188C325.35 381.734 324.526 382.012 324.526 382.012L324.795 373.789" stroke="#263238" stroke-miterlimit="10"/>
<path d="M345.083 370.872C346.741 370.317 348.685 369.53 350.584 368.705" stroke="#263238" stroke-miterlimit="10"/>
<path d="M327.804 372.965C332.537 372.845 337.258 372.415 341.935 371.678" stroke="#263238" stroke-miterlimit="10"/>
<path d="M359.631 373.511L360.177 380.095" stroke="#263238" stroke-miterlimit="10"/>
<path d="M235.565 416.904H281.05C281.152 413.339 282.467 368.029 283.356 344.907C284.282 320.831 300.617 284.31 300.617 284.31C300.617 284.31 302.802 279.161 300.487 276.846C298.172 274.531 292.616 275.457 288.449 278.698C284.282 281.939 245.853 298.607 243.538 300.922C241.223 303.237 241.686 311.108 240.76 320.368C239.834 329.628 224.555 393.522 224.555 393.522C224.555 393.522 220.388 394.448 218.999 395.374C217.61 396.3 217.61 399.078 217.61 399.078C217.61 399.078 219.462 399.541 225.018 402.319C230.13 404.875 234.843 415.246 235.565 416.904Z" fill="#2B7BAD"/>
<path opacity="0.2" d="M294.468 294.903V299.635C294.783 298.783 295.088 297.959 295.394 297.163V294.903H296.265L296.626 293.977H295.394V282.43H301.228C301.293 282.143 301.367 281.828 301.413 281.504H295.394V275.689C295.088 275.735 294.783 275.781 294.468 275.855V281.504H284.745V280.874L283.819 281.347V281.504H283.504L281.652 282.43H283.819V294.005H274.096V286.041L273.17 286.477V293.977H263.447V291.023L262.521 291.458V293.977H257.141L255.178 294.903H262.521V306.506H252.798V296.042L251.872 296.487V306.506H242.149V304.172C241.628 307.545 241.319 310.947 241.223 314.358V318.988H240.89L240.806 319.914H241.223V331.508H238.732L238.538 332.434H241.223V344.009H236.028C235.963 344.315 235.889 344.629 235.824 344.935H241.223V356.51H233.213C233.139 356.825 233.074 357.13 233 357.436H241.223V369.011H231.5V363.918L230.574 367.918V368.965H230.333L230.12 369.891H230.574V381.512H227.407L227.185 382.438H230.574V394.013H222.712C221.769 394.265 220.841 394.575 219.934 394.939V399.976C220.212 400.088 220.518 400.217 220.86 400.375V394.939H230.574V407.903C230.898 408.366 231.204 408.829 231.5 409.301V394.948H241.223V416.941H242.149V394.911H251.872V416.904H252.798V394.911H262.521V416.904H263.447V394.911H273.17V416.904H274.096V394.911H281.699V393.985H274.096V382.438H282.087V381.512H274.096V369.937H282.486V369.011H274.096V357.436H282.902C282.902 357.13 282.902 356.816 282.902 356.51H274.096V344.935H283.356C283.356 344.629 283.356 344.324 283.402 344.009H274.096V332.434H283.819V339.277C284.06 337.305 284.365 335.277 284.745 333.221V332.434H284.893C284.949 332.128 285.014 331.823 285.069 331.508H284.745V319.933H287.847C287.931 319.627 288.023 319.322 288.106 319.007H284.745V307.432H291.69C291.801 307.126 291.903 306.812 292.005 306.506H284.745V294.931L294.468 294.903ZM284.745 282.43H294.468V294.005H284.745V282.43ZM241.223 394.013H231.5V382.438H241.223V394.013ZM241.223 381.512H231.5V369.937H241.223V381.512ZM251.872 394.013H242.149V382.438H251.872V394.013ZM251.872 381.512H242.149V369.937H251.872V381.512ZM251.872 369.011H242.149V357.436H251.872V369.011ZM251.872 356.51H242.149V344.935H251.872V356.51ZM251.872 344.009H242.149V332.434H251.872V344.009ZM251.872 331.508H242.149V319.933H251.872V331.508ZM251.872 319.007H242.149V307.432H251.872V319.007ZM262.521 394.013H252.798V382.438H262.521V394.013ZM262.521 381.512H252.798V369.937H262.521V381.512ZM262.521 369.011H252.798V357.436H262.521V369.011ZM262.521 356.51H252.798V344.935H262.521V356.51ZM262.521 344.009H252.798V332.434H262.521V344.009ZM262.521 331.508H252.798V319.933H262.521V331.508ZM262.521 319.007H252.798V307.432H262.521V319.007ZM273.17 394.013H263.447V382.438H273.17V394.013ZM273.17 381.512H263.447V369.937H273.17V381.512ZM273.17 369.011H263.447V357.436H273.17V369.011ZM273.17 356.51H263.447V344.935H273.17V356.51ZM273.17 344.009H263.447V332.434H273.17V344.009ZM273.17 331.508H263.447V319.933H273.17V331.508ZM273.17 319.007H263.447V307.432H273.17V319.007ZM273.17 306.506H263.447V294.931H273.17V306.506ZM283.819 331.508H274.096V319.933H283.819V331.508ZM283.819 319.007H274.096V307.432H283.819V319.007ZM283.819 306.506H274.096V294.931H283.819V306.506Z" fill="black"/>
<path d="M235.565 416.904H281.05C281.152 413.339 282.467 368.029 283.356 344.907C284.282 320.831 300.617 284.31 300.617 284.31C300.617 284.31 302.802 279.161 300.487 276.846C298.172 274.531 292.616 275.457 288.449 278.698C284.282 281.939 245.853 298.607 243.538 300.922C241.223 303.237 241.686 311.108 240.76 320.368C239.834 329.628 224.555 393.522 224.555 393.522C224.555 393.522 220.388 394.448 218.999 395.374C217.61 396.3 217.61 399.078 217.61 399.078C217.61 399.078 219.462 399.541 225.018 402.319C230.13 404.875 234.843 415.246 235.565 416.904Z" stroke="#263238" stroke-miterlimit="10"/>
<path d="M217.61 399.106C217.61 399.106 219.462 399.569 225.018 402.347C230.574 405.125 235.667 417.163 235.667 417.163H244.64C245.205 415.478 246.585 409.348 240.297 401.884C232.889 393.087 224.555 393.55 224.555 393.55C224.555 393.55 220.388 394.476 218.999 395.402C217.61 396.328 217.61 399.106 217.61 399.106Z" fill="#263238" stroke="#263238" stroke-miterlimit="10"/>
<path d="M294.894 275.744C292.903 281.013 288.19 292.931 284.282 298.607C279.189 306.015 269.929 312.034 273.17 314.812C276.411 317.59 285.671 308.793 285.671 308.793C285.671 308.793 287.986 315.275 288.449 317.127C288.474 317.211 288.515 317.29 288.569 317.359C291.912 306.11 295.932 295.073 300.607 284.31C300.607 284.31 302.793 279.161 300.478 276.846C299.283 275.642 297.246 275.328 294.894 275.744Z" fill="#263238" stroke="#263238" stroke-miterlimit="10"/>
<path d="M261.077 320.442C261.342 318.731 261.515 317.006 261.595 315.275" stroke="#263238" stroke-miterlimit="10"/>
<path d="M253.724 418.061C253.724 418.061 255.113 388.429 255.113 371.298C255.113 358.955 258.475 338.194 260.364 325.48" stroke="#263238" stroke-miterlimit="10"/>
<path d="M256.039 364.844C256.039 364.844 263.447 367.159 267.151 367.622L278.263 369.011L277.42 379.503C277.42 379.503 276.874 379.197 268.54 376.419C260.206 373.641 255.113 371.326 255.113 371.326" stroke="#263238" stroke-miterlimit="10"/>
<path d="M277.42 379.475C277.42 379.475 276.874 400.032 276.874 402.81C276.874 405.588 268.54 403.736 268.54 403.736" stroke="#263238" stroke-miterlimit="10"/>
<path d="M284.069 265.966C284.069 265.966 292.801 278.522 300.617 284.31C308.432 290.097 315.099 281.995 320.313 273.309C325.526 264.623 328.999 258.252 331.601 250.724C334.203 243.195 331.601 230.75 321.183 220.907C310.766 211.063 286.43 196.581 280.356 204.109C274.281 211.637 268.485 228.185 272.531 242.325C274.948 250.826 278.855 258.83 284.069 265.966Z" fill="#9E9E9E" stroke="#263238" stroke-miterlimit="10"/>
<path d="M280.393 238.954C283.688 237.967 287.2 237.967 290.495 238.954" stroke="#263238" stroke-width="2" stroke-miterlimit="10" stroke-linecap="round"/>
<path d="M287.866 246.705C288.144 248.205 287.792 249.529 287.079 249.659C286.366 249.788 285.579 248.677 285.301 247.168C285.023 245.659 285.375 244.344 286.088 244.214C286.801 244.084 287.588 245.196 287.866 246.705Z" fill="#263238"/>
<path d="M313.627 247.103C313.895 248.603 313.544 249.881 312.84 250.057C312.136 250.233 311.34 249.075 311.062 247.566C310.784 246.057 311.136 244.742 311.849 244.612C312.562 244.483 313.349 245.594 313.627 247.103Z" fill="#263238"/>
<path d="M294.542 267.521C297.888 268.674 301.426 269.165 304.96 268.966C311.043 268.679 316.257 264.336 316.257 264.336" stroke="#263238" stroke-miterlimit="10"/>
<path d="M281.254 210.508C281.254 210.508 294.116 239.843 295.727 240.649C297.339 241.455 300.552 231.806 300.552 231.806C300.552 231.806 304.969 239.834 310.21 242.251C315.451 244.668 317.044 240.649 317.044 240.649C319.67 242.128 322.219 243.738 324.683 245.473L326.693 247.075L328.702 254.307C328.702 254.307 322.674 274.003 324.683 276.42C326.693 278.837 337.944 275.615 337.944 275.615C337.944 275.615 335.166 279.633 338.749 279.633C342.333 279.633 348.796 280.439 358.038 267.975C367.279 255.511 368.085 235.426 368.085 235.426C368.085 235.426 372.502 240.241 372.909 234.213C373.317 228.185 367.687 218.138 367.687 218.138C367.687 218.138 376.521 226.981 375.725 217.74C374.928 208.498 369.696 198.044 367.687 195.636C365.677 193.228 353.612 186.376 353.612 186.376C353.612 186.376 358.436 185.57 354.825 179.94C351.213 174.31 337.944 172.708 333.119 172.708C328.295 172.708 318.248 174.319 318.248 174.319C318.248 174.319 324.683 161.856 317.85 161.05C311.016 160.244 298.959 173.514 298.959 173.514C298.959 173.514 286.921 163.865 283.282 165.874C279.643 167.884 282.078 170.699 282.078 170.699C282.078 170.699 266.41 171.903 261.984 178.737C257.558 185.57 262.79 189.589 262.79 189.589C262.79 189.589 234.658 208.878 239.075 216.11C243.492 223.342 251.539 216.517 251.539 216.517C251.539 216.517 240.279 245.455 241.89 247.464C243.501 249.474 251.15 246.659 251.15 246.659C251.15 246.659 250.752 269.966 256.78 272.383C262.808 274.8 264.012 270.373 264.012 270.373C264.012 270.373 267.225 273.587 274.466 273.985C281.708 274.383 284.106 265.947 284.106 265.947C284.106 265.947 276.068 247.057 276.476 231.389C276.883 215.721 281.254 210.508 281.254 210.508Z" fill="#263238" stroke="#263238" stroke-miterlimit="10"/>
<path d="M297.441 244.353C297.441 244.353 294.542 259.41 296.857 262.595C299.172 265.781 307.284 262.595 307.858 260.863" fill="#9E9E9E"/>
<path d="M297.441 244.353C297.441 244.353 294.542 259.41 296.857 262.595C299.172 265.781 307.284 262.595 307.858 260.863" stroke="#263238" stroke-miterlimit="10"/>
<path d="M285.421 253.622C291.737 253.622 296.857 249.862 296.857 245.223C296.857 240.585 291.737 236.825 285.421 236.825C279.105 236.825 273.985 240.585 273.985 245.223C273.985 249.862 279.105 253.622 285.421 253.622Z" stroke="#263238" stroke-miterlimit="10"/>
<path d="M312.923 253.048C319.239 253.048 324.359 249.288 324.359 244.649C324.359 240.011 319.239 236.25 312.923 236.25C306.607 236.25 301.487 240.011 301.487 244.649C301.487 249.288 306.607 253.048 312.923 253.048Z" stroke="#263238" stroke-miterlimit="10"/>
<path d="M297.441 244.353C297.441 244.353 299.756 242.621 301.487 244.649" stroke="#263238" stroke-miterlimit="10"/>
<path d="M202.155 404.579C202.155 404.579 216.693 400.476 221.166 399.736C225.639 398.995 234.593 407.19 236.084 411.663C237.575 416.135 235.667 417.135 235.667 417.135L205.878 416.144L202.155 404.579Z" fill="#9E9E9E" stroke="#263238" stroke-miterlimit="10"/>
<path d="M207.424 403.134C207.424 403.134 218.397 407.246 221.138 408.894C223.879 410.542 223.055 413.829 221.416 415.468C219.439 417.121 217.08 418.254 214.554 418.765C211.997 418.911 209.434 418.911 206.878 418.765C203.59 418.487 200.572 419.043 197.831 419.043C195.09 419.043 186.858 418.219 186.858 418.219L184.385 416.57C184.385 416.57 179.755 417.941 176.162 419.348C172.569 420.756 173.69 417.7 176.431 415.505C179.172 413.311 186.033 407.829 187.135 407.283C188.237 406.736 202.22 402.653 202.22 402.653L207.424 403.134Z" fill="#9E9E9E" stroke="#263238" stroke-miterlimit="10"/>
<path d="M211.536 404.227C211.536 404.227 204.396 400.939 202.479 400.939C200.562 400.939 186.848 405.569 184.932 406.968C183.015 408.366 181.089 421.506 182.459 422.33C183.83 423.154 184.932 420.682 185.237 419.043C185.543 417.404 189.358 408.616 189.358 408.616L186.58 422.608C186.58 422.608 187.682 424.793 188.774 422.876C189.867 420.96 196.729 407.792 197.275 406.968C197.994 406.203 198.828 405.556 199.748 405.051C199.748 405.051 198.377 411.088 197.275 416.848C196.173 422.608 197.007 424.256 198.655 424.525C200.303 424.793 201.118 420.96 201.942 419.043C202.766 417.126 206.331 406.144 206.331 406.144" fill="#9E9E9E"/>
<path d="M211.536 404.227C211.536 404.227 204.396 400.939 202.479 400.939C200.562 400.939 186.848 405.569 184.932 406.968C183.015 408.366 181.089 421.506 182.459 422.33C183.83 423.154 184.932 420.682 185.237 419.043C185.543 417.404 189.358 408.616 189.358 408.616L186.58 422.608C186.58 422.608 187.682 424.793 188.774 422.876C189.867 420.96 196.729 407.792 197.275 406.968C197.994 406.203 198.828 405.556 199.748 405.051C199.748 405.051 198.377 411.088 197.275 416.848C196.173 422.608 197.007 424.256 198.655 424.525C200.303 424.793 201.118 420.96 201.942 419.043C202.766 417.126 206.331 406.144 206.331 406.144" stroke="#263238" stroke-miterlimit="10"/>
<path d="M219.462 409.718C219.462 409.718 211.239 418.219 210.137 420.135C209.035 422.052 209.045 422.33 212.063 422.33C215.082 422.33 224.407 416.293 225.222 415.468C226.037 414.644 225.777 412.181 223.851 410.533C223.238 410.056 222.519 409.734 221.756 409.592C220.992 409.45 220.206 409.493 219.462 409.718Z" fill="#9E9E9E" stroke="#263238" stroke-miterlimit="10"/>
<path d="M270.818 408.773C270.818 408.773 259.845 412.32 257.15 414.329C254.456 416.339 250.566 418.552 251.409 419.228C252.252 419.904 254.956 419.228 255.798 418.552C256.641 417.876 260.521 417.2 260.521 417.2C260.521 417.2 265.077 414.496 268.623 412.311C272.17 410.125 274.865 407.755 270.818 408.773Z" fill="#9E9E9E" stroke="#263238" stroke-miterlimit="10"/>
<path d="M331.388 390.198C331.388 390.198 300.83 395.754 289.773 399.634C278.717 403.514 274.318 406.218 268.79 410.125C263.262 414.033 252.057 421.413 253.724 422.71C255.391 424.006 261.197 419.459 262.178 418.487C263.16 417.515 270.299 414.589 270.299 414.589L275.078 412.144C275.078 412.144 267.883 421.006 265.29 423.256C262.697 425.506 264.447 426.914 266.401 426.266C268.355 425.617 272.04 421.737 272.04 421.737L283.921 413.922C283.921 413.922 279.041 420.756 276.763 422.7C274.485 424.645 279.365 426.284 280.347 424.654C281.328 423.025 286.199 418.802 286.199 418.802C286.199 418.802 294.32 414.579 296.274 412.95C298.228 411.32 303.098 406.773 303.098 406.773L339.509 409.699C339.509 409.699 341.787 408.403 340.49 400.921C339.194 393.439 331.388 390.198 331.388 390.198Z" fill="#9E9E9E" stroke="#263238" stroke-miterlimit="10"/>
<path d="M356.093 332.656L373.974 376.882L345.037 386.957L353.167 410.69C353.167 410.69 373.947 410.746 390.207 409.764C406.468 408.783 417.876 398.976 415.274 387.281C412.672 375.586 402.921 358.668 395.115 338.509C387.309 318.35 389.726 306.33 386.151 300.154C382.577 293.977 372.493 292.347 372.493 292.347L366.937 291.421" fill="#2B7BAD"/>
<path opacity="0.2" d="M412.533 399.578V394.948H414.95C415.052 394.643 415.135 394.337 415.209 394.022H412.533V382.438H413.922C413.82 382.142 413.709 381.827 413.607 381.512H412.533V378.688C412.237 377.919 411.931 377.132 411.607 376.345V381.512H401.884V369.937H408.866C408.727 369.631 408.598 369.326 408.459 369.011H401.884V357.436H403.18C403.032 357.13 402.893 356.825 402.754 356.51H401.884V354.575C401.578 353.889 401.264 353.204 400.958 352.51V356.51H391.235V344.935H397.717C397.587 344.629 397.458 344.324 397.337 344.009H391.235V332.434H392.967C392.865 332.128 392.772 331.814 392.68 331.508H391.235V326.23C390.883 324.767 390.578 323.368 390.309 322.026V331.508H380.586V319.933H389.92L389.753 319.007H380.586V307.432H388.188L388.05 306.506H380.586V295.153C379.774 294.718 378.939 294.325 378.086 293.977H369.937V291.903L369.011 291.736V293.977H366.279L366.029 294.903H369.011V306.506H362.992L362.751 307.432H369.02V319.007H359.695L359.445 319.933H369.011V331.508H359.288V320.526L358.362 324.035V331.443H356.399L356.158 332.369H358.362V338.231L359.288 340.518V332.434H369.011V344.009H360.677L361.047 344.935H369.011V356.51H365.77L366.15 357.436H369.057V364.631L369.983 366.918V357.436H379.66V369.011H370.78L371.159 369.937H379.66V381.512H369.937V378.308L369.011 378.632V381.512H360.733L358.066 382.438H358.362V394.013H348.639V385.679L347.713 386.003V393.967H347.444L348.639 397.448V394.893H358.362V410.635H359.288V394.893H369.011V410.514H369.937V394.911H379.66V410.218H380.586V394.911H390.309V409.727L391.235 409.653V394.911H400.958V407.616L401.884 407.264V394.911H411.607V400.727C411.931 400.347 412.246 399.967 412.533 399.578ZM369.011 394.022H359.288V382.438H369.011V394.022ZM379.66 394.022H369.937V382.438H379.66V394.022ZM379.66 356.519H369.937V344.944H379.66V356.519ZM379.66 344.018H369.937V332.434H379.66V344.018ZM379.66 331.517H369.937V319.942H379.66V331.517ZM379.66 319.016H369.937V307.432H379.66V319.016ZM379.66 306.515H369.937V294.94H379.66V306.515ZM390.309 394.022H380.586V382.438H390.309V394.022ZM390.309 381.521H380.586V369.946H390.309V381.521ZM390.309 369.02H380.586V357.436H390.309V369.02ZM390.309 356.519H380.586V344.944H390.309V356.519ZM390.309 344.018H380.586V332.434H390.309V344.018ZM400.958 394.022H391.235V382.438H400.958V394.022ZM400.958 381.521H391.235V369.946H400.958V381.521ZM400.958 369.02H391.235V357.436H400.958V369.02ZM401.884 394.022V382.438H411.607V394.013L401.884 394.022Z" fill="#263238"/>
<path d="M356.093 332.656L373.974 376.882L345.037 386.957L353.167 410.69C353.167 410.69 373.947 410.746 390.207 409.764C406.468 408.783 417.876 398.976 415.274 387.281C412.672 375.586 402.921 358.668 395.115 338.509C387.309 318.35 389.726 306.33 386.151 300.154C382.577 293.977 372.493 292.347 372.493 292.347L366.937 291.421" stroke="#263238" stroke-miterlimit="10"/>
<path d="M391.383 372.382C385.483 373.474 379.666 374.975 373.974 376.873C373.974 376.873 386.327 368.742 393.152 368.094" stroke="#263238" stroke-miterlimit="10"/>
<path d="M399.662 371.993C398.38 371.809 397.082 371.765 395.791 371.863" stroke="#263238" stroke-miterlimit="10"/>
<path d="M353.491 383.364C353.491 383.364 360.066 389.652 362.011 394.522C363.955 399.393 363.242 412.626 361.946 413.922C360.649 415.218 336.453 415.061 332.471 410.088C331.434 408.792 338.536 405.801 334.962 398.643C331.388 391.485 329.758 390.846 329.758 390.846C329.758 390.846 326.832 389.216 332.36 385.642C337.888 382.068 350.565 379.475 353.491 383.364Z" fill="#263238" stroke="#263238" stroke-miterlimit="10"/>
<path d="M411.135 433.498H387.133L384.133 386.049H414.135L411.135 433.498Z" fill="#263238" stroke="#263238" stroke-linejoin="round"/>
<path d="M415.468 386.123H382.808V393.031H415.468V386.123Z" fill="white" stroke="#263238" stroke-linejoin="round"/>
<path d="M415.468 386.383H382.808L386.068 382.29H412.2L415.468 386.383Z" fill="white" stroke="#263238" stroke-linejoin="round"/>
<path d="M412.014 419.58L413.209 400.68H385.059L386.253 419.58H412.014Z" fill="white" stroke="#263238" stroke-linejoin="round"/>
<path d="M272.818 436.655L302.395 428.84V432.84L272.818 441.128V436.655Z" fill="#263238" stroke="#263238" stroke-linejoin="round"/>
<path d="M302.394 428.84H147.762L117.87 436.655H272.818L302.394 428.84Z" fill="white" stroke="#263238" stroke-linejoin="round"/>
<path d="M272.818 347.296H117.87V441.128H272.818V347.296Z" fill="white" stroke="#263238" stroke-linejoin="round"/>
<path d="M272.818 360.871C239.112 362.473 219.036 393.541 189.209 414.357C162.022 433.34 128.445 436.581 117.907 437.09V441.128H272.818V360.871Z" fill="#263238" stroke="#263238" stroke-linejoin="round"/>
<path d="M272.818 436.655H117.87V441.128H272.818V436.655Z" fill="white" stroke="#263238" stroke-miterlimit="10"/>
<path d="M71.9965 405.699C71.9965 405.699 59.088 385.049 69.45 373.428C79.8119 361.807 96.554 367.4 100.008 378.16C103.462 388.92 96.1373 406.996 96.1373 406.996L71.9965 405.699Z" fill="#2B7BAD" stroke="#263238" stroke-linecap="round" stroke-linejoin="round"/>
<path d="M72.4224 382.031C70.2741 382.031 62.0975 379.021 59.514 375.15C56.9305 371.28 56.486 362.668 63.8199 362.668C71.1538 362.668 73.7188 375.576 73.7188 375.576L74.1448 380.308" fill="#2B7BAD"/>
<path d="M72.4224 382.031C70.2741 382.031 62.0975 379.021 59.514 375.15C56.9305 371.28 56.486 362.668 63.8199 362.668C71.1538 362.668 73.7188 375.576 73.7188 375.576L74.1448 380.308" stroke="#263238" stroke-linecap="round" stroke-linejoin="round"/>
<path d="M79.0433 373.993C77.1172 373.067 71.1445 366.696 70.5611 362.075C69.9777 357.455 73.441 349.565 79.9878 352.815C86.5346 356.066 83.0806 368.789 83.0806 368.789L81.349 373.215" fill="#2B7BAD"/>
<path d="M79.0433 373.993C77.1172 373.067 71.1445 366.696 70.5611 362.075C69.9777 357.455 73.441 349.565 79.9878 352.815C86.5346 356.066 83.0806 368.789 83.0806 368.789L81.349 373.215" stroke="#263238" stroke-linecap="round" stroke-linejoin="round"/>
<path d="M86.8588 376.16C85.7847 374.308 84.3401 365.705 86.4143 361.538C88.4886 357.371 95.7484 352.723 99.3783 359.075C103.008 365.427 93.0908 374.076 93.0908 374.076L89.1923 376.799" fill="#2B7BAD"/>
<path d="M86.8588 376.16C85.7847 374.308 84.3401 365.705 86.4143 361.538C88.4886 357.371 95.7484 352.723 99.3783 359.075C103.008 365.427 93.0908 374.076 93.0908 374.076L89.1923 376.799" stroke="#263238" stroke-linecap="round" stroke-linejoin="round"/>
<path d="M89.4238 391.587C89.0719 389.457 90.6832 380.901 94.0538 377.697C97.4244 374.493 105.86 372.65 107.073 379.864C108.286 387.077 95.9614 391.772 95.9614 391.772L91.3314 392.976" fill="#2B7BAD"/>
<path d="M89.4238 391.587C89.0719 389.457 90.6832 380.901 94.0538 377.697C97.4244 374.493 105.86 372.65 107.073 379.864C108.286 387.077 95.9614 391.772 95.9614 391.772L91.3314 392.976" stroke="#263238" stroke-linecap="round" stroke-linejoin="round"/>
<path d="M60.4585 369.956L61.9123 372.243" stroke="white" stroke-linecap="round" stroke-linejoin="round"/>
<path d="M64.6162 375.567L66.8942 377.428" stroke="white" stroke-linecap="round" stroke-linejoin="round"/>
<path d="M62.1254 365.594L64.4033 368.918" stroke="white" stroke-linecap="round" stroke-linejoin="round"/>
<path d="M67.5239 371.622L70.0149 376.188" stroke="white" stroke-linecap="round" stroke-linejoin="round"/>
<path d="M73.33 360.612L74.1634 363.103" stroke="white" stroke-linecap="round" stroke-linejoin="round"/>
<path d="M76.2375 367.668L77.6914 369.752" stroke="white" stroke-linecap="round" stroke-linejoin="round"/>
<path d="M75.6172 355.63L77.4877 359.779" stroke="white" stroke-linecap="round" stroke-linejoin="round"/>
<path d="M68.348 384.91L68.9777 388.642" stroke="white" stroke-linecap="round" stroke-linejoin="round"/>
<path d="M70.2185 392.17L71.0519 395.291" stroke="white" stroke-linecap="round" stroke-linejoin="round"/>
<path d="M72.2928 385.114L73.1262 389.263" stroke="white" stroke-linecap="round" stroke-linejoin="round"/>
<path d="M74.9967 392.17L75.6171 395.291" stroke="white" stroke-linecap="round" stroke-linejoin="round"/>
<path d="M76.4506 379.716L77.6914 385.531" stroke="white" stroke-linecap="round" stroke-linejoin="round"/>
<path d="M79.3582 391.133L79.5619 393.837" stroke="white" stroke-linecap="round" stroke-linejoin="round"/>
<path d="M81.6361 377.845L82.6732 383.244" stroke="white" stroke-linecap="round" stroke-linejoin="round"/>
<path d="M82.6732 388.855L83.0899 394.457" stroke="white" stroke-linecap="round" stroke-linejoin="round"/>
<path d="M87.6644 379.919V384.494" stroke="white" stroke-linecap="round" stroke-linejoin="round"/>
<path d="M87.0347 390.309L87.2477 393.837" stroke="white" stroke-linecap="round" stroke-linejoin="round"/>
<path d="M92.85 358.325L91.8129 360.825" stroke="white" stroke-linecap="round" stroke-linejoin="round"/>
<path d="M91.3961 363.724L90.359 367.261" stroke="white" stroke-linecap="round" stroke-linejoin="round"/>
<path d="M97.4152 363.103L95.7577 366.427" stroke="white" stroke-linecap="round" stroke-linejoin="round"/>
<path d="M92.2295 370.169L90.359 372.243" stroke="white" stroke-linecap="round" stroke-linejoin="round"/>
<path d="M88.2848 362.899L87.6644 365.594" stroke="white" stroke-linecap="round" stroke-linejoin="round"/>
<path d="M97.4152 377.845L95.1372 381.586" stroke="white" stroke-linecap="round" stroke-linejoin="round"/>
<path d="M93.6834 383.864L92.4333 387.188" stroke="white" stroke-linecap="round" stroke-linejoin="round"/>
<path d="M95.554 388.855L99.2857 386.772" stroke="white" stroke-linecap="round" stroke-linejoin="round"/>
<path d="M101.573 377.845L99.7024 380.966" stroke="white" stroke-linecap="round" stroke-linejoin="round"/>
<path d="M103.443 381.373L100.953 383.244" stroke="white" stroke-linecap="round" stroke-linejoin="round"/>
<path d="M100.758 398.495H65.459V433.794H100.758V398.495Z" fill="#263238" stroke="#263238" stroke-linecap="round" stroke-linejoin="round"/>
</svg>
